<svg width="40" height="40" viewBox="0 0 40 40" fill="none" xmlns="http://www.w3.org/2000/svg">
<path fill-rule="evenodd" clip-rule="evenodd" d="M20 40C31.0457 40 40 31.0457 40 20C40 8.9543 31.0457 0 20 0C8.9543 0 0 8.9543 0 20C0 31.0457 8.9543 40 20 40Z" fill="#049B2E"/>
<path fill-rule="evenodd" clip-rule="evenodd" d="M28.7972 14.2115C29.0676 14.4936 29.0676 14.9509 28.7972 15.2329L17.7203 26.7884C17.4499 27.0705 17.0116 27.0705 16.7412 26.7884L11.2028 21.0107C10.9324 20.7287 10.9324 20.2713 11.2028 19.9893C11.4731 19.7072 11.9115 19.7072 12.1818 19.9893L17.2308 25.2564L27.8182 14.2115C28.0885 13.9295 28.5268 13.9295 28.7972 14.2115Z" fill="white"/>
</svg>
