<svg width="19" height="19" viewBox="0 0 19 19" fill="none" xmlns="http://www.w3.org/2000/svg">
<rect width="18.1856" height="18.1856" rx="2" fill="#4CE5B1"/>
<path d="M10.1096 15.313C10.1096 15.5045 9.95615 15.6598 9.76678 15.6598H7.91347C7.7241 15.6598 7.57062 15.5045 7.57062 15.313C7.57062 15.1214 7.7241 14.9661 7.91347 14.9661H9.76678C9.95615 14.9661 10.1096 15.1214 10.1096 15.313ZM13.134 12V12.9992C13.134 13.7414 12.5371 14.3452 11.8033 14.3452H5.87696C5.14329 14.3452 4.54639 13.7414 4.54639 12.9992V12C4.54639 11.8085 4.69987 11.6532 4.88924 11.6532H4.98044C4.97964 11.6433 4.97918 11.6332 4.97918 11.623V10.6936C4.97869 10.673 4.98006 10.6525 4.98318 10.6324C4.99095 10.5812 5.00981 10.5337 5.0372 10.4924C5.06406 10.4518 5.09964 10.4166 5.14261 10.39C5.16002 10.3791 5.17842 10.3699 5.19769 10.3623C5.33346 10.3051 5.46843 10.246 5.60169 10.1855V5.94788C5.60169 5.25895 6.03502 4.65377 6.65307 4.42093C6.65234 4.40197 6.652 4.38301 6.652 4.3639V3.5073C6.65196 2.68755 7.31123 2.02063 8.12154 2.02063H9.55867C10.369 2.02063 11.0283 2.68755 11.0283 3.5073V4.36394C11.0283 4.38301 11.0279 4.40201 11.0272 4.42089C11.2708 4.51254 11.4892 4.66291 11.6634 4.85833C11.6695 4.84676 11.6756 4.83524 11.6817 4.82368C11.77 4.65427 11.9773 4.58934 12.1449 4.67878C12.3123 4.76815 12.3765 4.97798 12.2881 5.14739C11.6464 6.37772 10.7145 7.51771 9.51836 8.53566C8.56359 9.34813 7.47984 10.0499 6.28743 10.6287V11.6533H11.3929V7.47898C11.3929 7.28742 11.5464 7.13215 11.7357 7.13215C11.9251 7.13215 12.0786 7.28742 12.0786 7.47898V11.6532H12.7912C12.9805 11.6532 13.134 11.8085 13.134 12ZM7.33767 4.36394C7.33767 4.43492 7.34692 4.50379 7.3643 4.56934C7.36708 4.57782 7.36955 4.58645 7.37165 4.59524C7.4697 4.92002 7.76875 5.15695 8.12151 5.15695H9.55863C9.91135 5.15695 10.2104 4.9201 10.3085 4.59535C10.3107 4.58645 10.3132 4.5777 10.316 4.56915C10.3333 4.50367 10.3425 4.43488 10.3425 4.36394V3.5073C10.3425 3.07003 9.99089 2.71429 9.55863 2.71429H8.12151C7.68928 2.71429 7.33767 3.07003 7.33767 3.5073V4.36394V4.36394ZM6.28739 9.85408C8.42771 8.75497 10.1858 7.2278 11.284 5.50948C11.1845 5.32177 11.0268 5.17583 10.8396 5.09213C10.5873 5.54447 10.1077 5.85057 9.55863 5.85057H8.12151C7.57252 5.85057 7.09287 5.54444 6.84061 5.09209C6.51284 5.23853 6.28739 5.57141 6.28739 5.94788V9.85408V9.85408ZM12.4483 12.3469H11.7409C11.7391 12.3469 11.7374 12.3469 11.7357 12.3469H5.94454C5.94283 12.3469 5.94111 12.3469 5.93936 12.3469H5.23209V12.9992C5.23209 13.3589 5.52138 13.6516 5.87696 13.6516H11.8033C12.159 13.6516 12.4483 13.3589 12.4483 12.9992V12.3469V12.3469Z" fill="white"/>
</svg>
