<svg width="45" height="45" viewBox="0 0 45 45" fill="none" xmlns="http://www.w3.org/2000/svg">
<path d="M22.5001 45C16.1016 45 9.98565 42.2623 5.72046 37.4889C2.0317 33.3633 0 28.0401 0 22.4999C0 10.0933 10.0934 0 22.5001 0C28.0394 0 33.363 2.03148 37.4901 5.72068C42.2623 9.98785 44.999 16.1038 44.999 22.4999C44.999 34.9065 34.906 45 22.5001 45Z" fill="#FFBE00"/>
<path d="M41.5868 22.5C41.5868 23.4996 41.5097 24.4815 41.3611 25.4394C41.2146 26.3883 40.9978 27.3152 40.7159 28.2135C38.5713 35.0588 32.6761 40.2453 25.4378 41.3615C25.0987 41.4143 24.7573 41.4572 24.414 41.4914C23.7841 41.5552 23.1468 41.5872 22.5006 41.5872C16.8431 41.5872 11.7602 39.1254 8.26596 35.2151C8.23733 35.1831 8.20882 35.1502 8.17899 35.1183C5.21208 31.754 3.41333 27.3371 3.41333 22.4999C3.41333 11.9587 11.9584 3.41248 22.5006 3.41248C27.339 3.41248 31.7557 5.21244 35.12 8.17824C35.152 8.20797 35.1851 8.23659 35.217 8.26521C39.1263 11.7618 41.5868 16.8425 41.5868 22.5Z" fill="#F4502A"/>
<path d="M8.18365 38.1235C8.60606 38.6021 9.0517 39.0589 9.51969 39.4929C9.08231 39.0868 8.66364 38.6602 8.26589 38.2151C8.23869 38.1849 8.21172 38.1538 8.18365 38.1235ZM7.19989 36.9133C7.2011 36.9149 7.2022 36.9163 7.2033 36.9179C7.2022 36.9164 7.2011 36.9149 7.19989 36.9133ZM7.16114 36.8613C7.16466 36.8661 7.16841 36.8711 7.17204 36.8759C7.16841 36.8711 7.16477 36.8661 7.16114 36.8613ZM7.12492 36.8123C7.13241 36.8224 7.14022 36.833 7.14771 36.8431C7.14022 36.833 7.13241 36.8225 7.12492 36.8123ZM7.09365 36.7698C7.10169 36.7808 7.10929 36.791 7.11732 36.802C7.1094 36.7911 7.10158 36.7806 7.09365 36.7698ZM7.06085 36.7247C7.07076 36.7384 7.08022 36.7513 7.09024 36.7649C7.08044 36.7517 7.07054 36.7381 7.06085 36.7247ZM18.0056 6.9447C9.63253 8.96539 3.4126 16.5056 3.4126 25.4989C3.4126 29.6941 4.76538 33.5729 7.05931 36.7228C4.76549 33.5726 3.41315 29.6943 3.41315 25.4999C3.41315 16.5067 9.63253 8.96561 18.0056 6.9447Z" fill="#C29100"/>
<path d="M22.5 3.41266C20.9519 3.41266 19.4471 3.59684 18.0058 3.94472C9.63272 5.96563 3.41333 13.5067 3.41333 22.4999C3.41333 26.6943 4.76567 30.5726 7.05949 33.7228C7.05993 33.7233 7.06059 33.7243 7.06103 33.7249C7.07072 33.7382 7.08063 33.7518 7.09042 33.7651C7.09141 33.7664 7.09296 33.7685 7.09395 33.7698C7.10187 33.7807 7.10969 33.7911 7.11762 33.802C7.12015 33.8055 7.12268 33.809 7.12521 33.8124C7.1327 33.8225 7.14051 33.8331 7.148 33.8432C7.15251 33.8494 7.15692 33.8552 7.16143 33.8614C7.16506 33.8662 7.1687 33.8712 7.17233 33.876C7.18158 33.8886 7.19093 33.901 7.20029 33.9136C7.20139 33.9151 7.2026 33.9166 7.20371 33.9182C7.51416 34.3333 7.84134 34.7356 8.18394 35.1238C8.21201 35.1541 8.23898 35.1852 8.26618 35.2154C8.66393 35.6605 9.0826 36.0872 9.51998 36.4932C9.73499 36.6927 9.95506 36.8876 10.1792 37.0771C7.36851 33.7524 5.67423 29.4546 5.67423 24.7603C5.67423 14.2191 14.2195 5.67411 24.7616 5.67411C29.4546 5.67411 33.7537 7.36839 37.0772 10.1789C33.5773 6.04049 28.3458 3.41266 22.5 3.41266Z" fill="#BA3D20"/>
<path d="M31.317 15.3952L29.6045 13.6826L22.4995 20.7874L15.3947 13.6826L13.6821 15.3952L20.787 22.4999L13.6821 29.6048L15.3947 31.3173L22.4995 24.2126L29.6045 31.3173L31.317 29.6048L24.2122 22.4999L31.317 15.3952Z" fill="white"/>
</svg>
