<svg width="50" height="24" viewBox="0 0 50 24" fill="none" xmlns="http://www.w3.org/2000/svg">
<path d="M49.1083 10.5658C49.0383 9.72179 48.9598 8.76669 48.8065 7.94251C48.7 7.36609 48.4659 6.59852 47.6745 6.59852C47.5952 6.59852 47.5158 6.60633 47.4374 6.61444C47.3884 6.61909 47.3395 6.6257 47.2593 6.6272C47.2577 6.6272 47.232 6.60227 47.1994 6.50753C46.967 5.84191 45.992 5.01399 44.7419 4.00137C44.4339 3.75288 44.0653 3.45363 43.9083 3.29927C43.9659 2.90047 43.9574 2.41068 43.6797 2.07315C43.5508 1.91564 43.3081 1.7275 42.8898 1.7275C42.8284 1.7275 42.7631 1.73125 42.6177 1.74417C42.3159 1.74417 41.7111 1.62014 40.8737 1.44702C38.7146 1.00393 34.6956 0.17825 28.6694 0.0483706C19.8949 -0.125353 12.9998 6.20663 12.7156 6.4733L12.5123 6.66218C12.152 6.83636 11.014 7.25272 7.53559 7.93651C2.60195 8.90798 1.66081 10.4798 1.48303 11.0876C1.08919 11.3816 0.451351 12.0828 0.3503 12.9077C0.269069 13.5655 0.0851351 13.8346 0.0851351 13.8338L0 13.9436V18.5868L0.00960961 18.6715C0.277027 19.9045 1.55496 20.5569 3.70511 20.5569C4.39084 20.5569 4.90526 20.487 4.88529 20.487C4.91517 20.4853 5.18033 20.4808 5.63979 20.4713C5.59279 20.3415 5.55 20.2101 5.51306 20.0755C5.47733 19.9458 5.44459 19.8152 5.41937 19.6814C5.35871 19.3664 5.32462 19.0422 5.32462 18.7095C5.32462 15.856 7.6461 13.5344 10.4995 13.5344C13.353 13.5344 15.6746 15.856 15.6746 18.7095C15.6746 18.9676 15.6494 19.2179 15.6132 19.4659C15.5934 19.6005 15.5704 19.7341 15.5401 19.8647C15.509 20 15.4764 20.1338 15.4351 20.2652C21.8973 20.1267 30.1201 19.944 36.4886 19.784C36.4605 19.6533 36.4426 19.521 36.4248 19.3873C36.4069 19.2551 36.3967 19.123 36.3898 18.9894C36.3851 18.896 36.3758 18.8044 36.3758 18.7095C36.3758 15.856 38.6974 13.5344 41.5508 13.5344C44.3638 13.5344 46.6559 15.7922 46.7197 18.5913C46.7197 18.6302 46.7258 18.6697 46.7258 18.7095C46.7258 18.8098 46.7165 18.9077 46.7102 19.0072C46.7024 19.1487 46.6884 19.2894 46.6698 19.4278C47.8857 19.2272 48.8001 18.5865 49.3296 17.5502C50.2353 15.7783 49.7736 13.379 49.4485 12.8695C49.273 12.5939 49.1859 11.5162 49.1083 10.5658Z" fill="#242E42"/>
<path d="M6.48316 20.4527C7.15764 22.003 8.70058 23.0876 10.4989 23.0876C12.3618 23.0876 13.9486 21.9221 14.5815 20.2832C14.6317 20.1526 14.6764 20.0188 14.7145 19.882C14.751 19.7514 14.7814 19.6176 14.8063 19.4823C14.8506 19.2312 14.8785 18.973 14.8785 18.7089C14.8785 16.2901 12.9184 14.3299 10.4997 14.3299C8.08091 14.3299 6.12085 16.2901 6.12085 18.7089C6.12085 19.037 6.15974 19.3563 6.22851 19.6643C6.25764 19.7981 6.29262 19.9294 6.33496 20.0577C6.37821 20.1931 6.42761 20.3236 6.48316 20.4527Z" fill="#242E42"/>
<path d="M37.3028 19.7624C37.7755 21.6703 39.4954 23.0876 41.5495 23.0876C43.6969 23.0876 45.4798 21.5397 45.8529 19.5002C45.877 19.3681 45.8956 19.235 45.9088 19.099C45.9205 18.97 45.9283 18.8409 45.9283 18.7088C45.9283 18.7056 45.9283 18.7024 45.9283 18.6985C45.9237 16.2853 43.9643 14.3298 41.5495 14.3298C39.1315 14.3298 37.1707 16.29 37.1707 18.7088C37.1707 18.7966 37.1792 18.882 37.1839 18.9691C37.1917 19.1036 37.2049 19.2356 37.225 19.3664C37.2453 19.5003 37.2717 19.6325 37.3028 19.7624Z" fill="#242E42"/>
</svg>
