<svg width="46" height="46" viewBox="0 0 46 46" fill="none" xmlns="http://www.w3.org/2000/svg">
<path d="M23 46C35.7025 46 46 35.7025 46 23C46 10.2975 35.7025 0 23 0C10.2975 0 0 10.2975 0 23C0 35.7025 10.2975 46 23 46Z" fill="#273B7A"/>
<path d="M27.3869 45.5804C35.4305 44.0268 41.9798 38.2835 44.6741 30.7107L23 9.03658L22.8682 14.1886L18.2821 9.6025L18.9158 20.6036L17.0362 18.724L17.6618 26.1672L22.4044 32.3177L17.6618 35.8552L27.3869 45.5804ZM22.6095 24.2906L22.6094 24.2974L22.6025 24.2906H22.6095Z" fill="#121149"/>
<path d="M17.0362 18.724C17.0362 18.724 15.9649 18.654 15.9828 19.6487C15.9828 19.6487 16.5776 23.6154 16.6628 24.9485C16.7548 26.3882 17.2358 27.7745 18.2561 28.7944L19.0102 29.5484V33.4774H26.2387V29.7546L26.8474 29.1459C27.9606 28.0327 28.5861 26.5229 28.5861 24.9484L28.8067 18.6607C28.8067 18.0182 28.3116 17.4577 27.6691 17.4384C27.0045 17.4185 26.4593 17.9514 26.4593 18.6115L26.2388 19.998H25.9346L26.2011 17.3208C26.2011 16.725 25.7758 16.1917 25.1853 16.1137C24.4703 16.0191 23.8539 16.5794 23.8539 17.2769L23.5873 19.998H23.2071L23.3541 9.90851C23.3541 9.31266 22.9289 8.77953 22.3382 8.70137C21.6232 8.60676 21.0067 9.16712 21.0067 9.86457L20.8597 19.9981H20.4795L18.7994 10.6139C18.7994 10.018 18.3742 9.4848 17.7835 9.40673C17.0685 9.31212 16.452 9.87248 16.452 10.5699L18.1322 23.9087H17.7163L17.0362 18.724Z" fill="#FEE187"/>
<path d="M27.6687 17.4387C27.0042 17.4187 26.4593 17.9514 26.4593 18.6115L26.2384 19.9982L25.9346 19.998L26.2008 17.3211C26.2008 16.7252 25.7755 16.192 25.1849 16.1139C24.4699 16.0193 23.8539 16.5794 23.8539 17.2769L23.587 19.9982H23.2067L23.3541 9.90851C23.3541 9.31266 22.9289 8.77953 22.3382 8.70137C22.2561 8.69049 22.1752 8.6896 22.0965 8.69517V33.4777L26.2387 33.4774V29.7546L26.8474 29.1459C27.9606 28.0327 28.5861 26.5229 28.5861 24.9484L28.8067 18.6607C28.8068 18.018 28.3112 17.4578 27.6687 17.4387Z" fill="#FFC61B"/>
<path d="M27.5351 31.5697H17.6612V35.8545H27.5351V31.5697Z" fill="#D35933"/>
<path d="M27.5366 31.5697H22.0971V35.8547H27.5366V31.5697Z" fill="#B54324"/>
</svg>
