<svg width="44" height="44" viewBox="0 0 44 44" fill="none" xmlns="http://www.w3.org/2000/svg">
<path fill-rule="evenodd" clip-rule="evenodd" d="M22 44C34.1503 44 44 34.1503 44 22C44 9.84974 34.1503 0 22 0C9.84974 0 0 9.84974 0 22C0 34.1503 9.84974 44 22 44Z" fill="black" fill-opacity="0.05"/>
<rect x="7" y="7" width="30" height="30" fill="#FF0000" fill-opacity="0.01"/>
<path fill-rule="evenodd" clip-rule="evenodd" d="M31.4062 13.875H26.375V13.1203C26.375 11.9493 25.4257 11 24.2547 11H19.8703C18.6993 11 17.75 11.9493 17.75 13.1203V13.875H12.7188C12.3218 13.875 12 14.1968 12 14.5938C12 14.9907 12.3218 15.3125 12.7188 15.3125H14.0484L15.0547 31.5562C15.0923 32.89 16.1647 33.9624 17.4984 34H26.6266C27.9743 33.9813 29.0679 32.9036 29.1063 31.5562L30.0766 15.3125H31.4062C31.8032 15.3125 32.125 14.9907 32.125 14.5938C32.125 14.1968 31.8032 13.875 31.4062 13.875ZM19.1875 13.1203C19.1875 12.7432 19.4932 12.4375 19.8703 12.4375H24.2547C24.4358 12.4375 24.6095 12.5094 24.7375 12.6375C24.8656 12.7655 24.9375 12.9392 24.9375 13.1203V13.875H19.1875V13.1203ZM19.1875 31.125H19.2234C19.4141 31.1157 19.5933 31.0309 19.7214 30.8893C19.8495 30.7477 19.916 30.561 19.9062 30.3703L19.1875 17.4328C19.1677 17.0359 18.8298 16.7302 18.4328 16.75C18.0359 16.7698 17.7302 17.1077 17.75 17.5047L18.4688 30.4422C18.4879 30.825 18.8042 31.1255 19.1875 31.125ZM22.7812 30.4062C22.7812 30.8032 22.4595 31.125 22.0625 31.125C21.6655 31.125 21.3438 30.8032 21.3438 30.4062V17.4688C21.3438 17.0718 21.6655 16.75 22.0625 16.75C22.4595 16.75 22.7812 17.0718 22.7812 17.4688V30.4062ZM24.9375 31.125C25.3208 31.1255 25.6371 30.825 25.6562 30.4422L26.375 17.5047C26.3948 17.1077 26.0891 16.7698 25.6922 16.75C25.2952 16.7302 24.9573 17.0359 24.9375 17.4328L24.2188 30.3703C24.209 30.561 24.2755 30.7477 24.4036 30.8893C24.5317 31.0309 24.7109 31.1157 24.9016 31.125H24.9375Z" fill="#202020"/>
<mask id="mask0_251_1991" style="mask-type:alpha" maskUnits="userSpaceOnUse" x="12" y="11" width="21" height="23">
<path fill-rule="evenodd" clip-rule="evenodd" d="M31.4062 13.875H26.375V13.1203C26.375 11.9493 25.4257 11 24.2547 11H19.8703C18.6993 11 17.75 11.9493 17.75 13.1203V13.875H12.7188C12.3218 13.875 12 14.1968 12 14.5938C12 14.9907 12.3218 15.3125 12.7188 15.3125H14.0484L15.0547 31.5562C15.0923 32.89 16.1647 33.9624 17.4984 34H26.6266C27.9743 33.9813 29.0679 32.9036 29.1063 31.5562L30.0766 15.3125H31.4062C31.8032 15.3125 32.125 14.9907 32.125 14.5938C32.125 14.1968 31.8032 13.875 31.4062 13.875ZM19.1875 13.1203C19.1875 12.7432 19.4932 12.4375 19.8703 12.4375H24.2547C24.4358 12.4375 24.6095 12.5094 24.7375 12.6375C24.8656 12.7655 24.9375 12.9392 24.9375 13.1203V13.875H19.1875V13.1203ZM19.1875 31.125H19.2234C19.4141 31.1157 19.5933 31.0309 19.7214 30.8893C19.8495 30.7477 19.916 30.561 19.9062 30.3703L19.1875 17.4328C19.1677 17.0359 18.8298 16.7302 18.4328 16.75C18.0359 16.7698 17.7302 17.1077 17.75 17.5047L18.4688 30.4422C18.4879 30.825 18.8042 31.1255 19.1875 31.125ZM22.7812 30.4062C22.7812 30.8032 22.4595 31.125 22.0625 31.125C21.6655 31.125 21.3438 30.8032 21.3438 30.4062V17.4688C21.3438 17.0718 21.6655 16.75 22.0625 16.75C22.4595 16.75 22.7812 17.0718 22.7812 17.4688V30.4062ZM24.9375 31.125C25.3208 31.1255 25.6371 30.825 25.6562 30.4422L26.375 17.5047C26.3948 17.1077 26.0891 16.7698 25.6922 16.75C25.2952 16.7302 24.9573 17.0359 24.9375 17.4328L24.2188 30.3703C24.209 30.561 24.2755 30.7477 24.4036 30.8893C24.5317 31.0309 24.7109 31.1157 24.9016 31.125H24.9375Z" fill="white"/>
</mask>
<g mask="url(#mask0_251_1991)">
<rect x="7" y="7" width="30" height="30" fill="white"/>
</g>
</svg>
