<svg width="40" height="40" viewBox="0 0 40 40" fill="none" xmlns="http://www.w3.org/2000/svg">
<path fill-rule="evenodd" clip-rule="evenodd" d="M20 40C31.0457 40 40 31.0457 40 20C40 8.95431 31.0457 0 20 0C8.95431 0 0 8.95431 0 20C0 31.0457 8.95431 40 20 40Z" fill="#4252FF"/>
<path d="M27.5913 10C27.1843 10 26.7771 10.1555 26.4665 10.4661L24.5462 12.3864L28.5235 16.3636L30.4438 14.4434C31.0651 13.8221 31.0651 12.815 30.4438 12.1937L28.7162 10.4661C28.4055 10.1555 27.9984 10 27.5913 10ZM22.9553 13.9773L13.6164 23.3161C13.6164 23.3161 14.3464 23.2507 14.6185 23.5227C14.8905 23.7948 14.6666 25.575 15.0007 25.9091C15.3348 26.2432 17.1038 26.008 17.3576 26.2618C17.6113 26.5155 17.5937 27.2934 17.5937 27.2934L26.9326 17.9545L22.9553 13.9773ZM12.6143 25.9091L11.8639 28.0344C11.8344 28.1183 11.8192 28.2065 11.8188 28.2955C11.8188 28.5064 11.9027 28.7087 12.0518 28.8579C12.201 29.0071 12.4033 29.0909 12.6143 29.0909C12.7032 29.0906 12.7914 29.0754 12.8753 29.0459C12.8779 29.0448 12.8805 29.0438 12.8831 29.0427L12.9033 29.0365C12.9048 29.0355 12.9064 29.0345 12.9079 29.0334L15.0007 28.2955L13.8075 27.1023L12.6143 25.9091Z" fill="white"/>
</svg>
