<svg width="44" height="44" viewBox="0 0 44 44" fill="none" xmlns="http://www.w3.org/2000/svg">
<path fill-rule="evenodd" clip-rule="evenodd" d="M22 44C34.1503 44 44 34.1503 44 22C44 9.84974 34.1503 0 22 0C9.84974 0 0 9.84974 0 22C0 34.1503 9.84974 44 22 44Z" fill="black" fill-opacity="0.05"/>
<path d="M19 15.0025C18.7348 15.0025 18.4804 15.1078 18.2929 15.2953C18.1054 15.4829 18 15.7372 18 16.0025C18 16.2677 18.1054 16.522 18.2929 16.7096C18.4804 16.8971 18.7348 17.0025 19 17.0025C19.2652 17.0025 19.5196 16.8971 19.7071 16.7096C19.8946 16.522 20 16.2677 20 16.0025C20 15.7372 19.8946 15.4829 19.7071 15.2953C19.5196 15.1078 19.2652 15.0025 19 15.0025ZM16.17 15.0025C16.3766 14.4169 16.7597 13.9099 17.2666 13.5512C17.7735 13.1926 18.3791 13 19 13C19.6209 13 20.2265 13.1926 20.7334 13.5512C21.2403 13.9099 21.6234 14.4169 21.83 15.0025H29C29.2652 15.0025 29.5196 15.1078 29.7071 15.2953C29.8946 15.4829 30 15.7372 30 16.0025C30 16.2677 29.8946 16.522 29.7071 16.7096C29.5196 16.8971 29.2652 17.0025 29 17.0025H21.83C21.6234 17.588 21.2403 18.095 20.7334 18.4537C20.2265 18.8123 19.6209 19.0049 19 19.0049C18.3791 19.0049 17.7735 18.8123 17.2666 18.4537C16.7597 18.095 16.3766 17.588 16.17 17.0025H15C14.7348 17.0025 14.4804 16.8971 14.2929 16.7096C14.1054 16.522 14 16.2677 14 16.0025C14 15.7372 14.1054 15.4829 14.2929 15.2953C14.4804 15.1078 14.7348 15.0025 15 15.0025H16.17ZM25 21.0025C24.7348 21.0025 24.4804 21.1078 24.2929 21.2953C24.1054 21.4829 24 21.7372 24 22.0025C24 22.2677 24.1054 22.522 24.2929 22.7096C24.4804 22.8971 24.7348 23.0025 25 23.0025C25.2652 23.0025 25.5196 22.8971 25.7071 22.7096C25.8946 22.522 26 22.2677 26 22.0025C26 21.7372 25.8946 21.4829 25.7071 21.2953C25.5196 21.1078 25.2652 21.0025 25 21.0025ZM22.17 21.0025C22.3766 20.4169 22.7597 19.9099 23.2666 19.5512C23.7735 19.1926 24.3791 19 25 19C25.6209 19 26.2265 19.1926 26.7334 19.5512C27.2403 19.9099 27.6234 20.4169 27.83 21.0025H29C29.2652 21.0025 29.5196 21.1078 29.7071 21.2953C29.8946 21.4829 30 21.7372 30 22.0025C30 22.2677 29.8946 22.522 29.7071 22.7096C29.5196 22.8971 29.2652 23.0025 29 23.0025H27.83C27.6234 23.588 27.2403 24.095 26.7334 24.4537C26.2265 24.8123 25.6209 25.0049 25 25.0049C24.3791 25.0049 23.7735 24.8123 23.2666 24.4537C22.7597 24.095 22.3766 23.588 22.17 23.0025H15C14.7348 23.0025 14.4804 22.8971 14.2929 22.7096C14.1054 22.522 14 22.2677 14 22.0025C14 21.7372 14.1054 21.4829 14.2929 21.2953C14.4804 21.1078 14.7348 21.0025 15 21.0025H22.17ZM19 27.0025C18.7348 27.0025 18.4804 27.1078 18.2929 27.2953C18.1054 27.4829 18 27.7372 18 28.0025C18 28.2677 18.1054 28.522 18.2929 28.7096C18.4804 28.8971 18.7348 29.0025 19 29.0025C19.2652 29.0025 19.5196 28.8971 19.7071 28.7096C19.8946 28.522 20 28.2677 20 28.0025C20 27.7372 19.8946 27.4829 19.7071 27.2953C19.5196 27.1078 19.2652 27.0025 19 27.0025ZM16.17 27.0025C16.3766 26.4169 16.7597 25.9099 17.2666 25.5512C17.7735 25.1926 18.3791 25 19 25C19.6209 25 20.2265 25.1926 20.7334 25.5512C21.2403 25.9099 21.6234 26.4169 21.83 27.0025H29C29.2652 27.0025 29.5196 27.1078 29.7071 27.2953C29.8946 27.4829 30 27.7372 30 28.0025C30 28.2677 29.8946 28.522 29.7071 28.7096C29.5196 28.8971 29.2652 29.0025 29 29.0025H21.83C21.6234 29.588 21.2403 30.095 20.7334 30.4537C20.2265 30.8123 19.6209 31.0049 19 31.0049C18.3791 31.0049 17.7735 30.8123 17.2666 30.4537C16.7597 30.095 16.3766 29.588 16.17 29.0025H15C14.7348 29.0025 14.4804 28.8971 14.2929 28.7096C14.1054 28.522 14 28.2677 14 28.0025C14 27.7372 14.1054 27.4829 14.2929 27.2953C14.4804 27.1078 14.7348 27.0025 15 27.0025H16.17Z" fill="white"/>
</svg>
