<?xml version="1.0" encoding="utf-8"?>
<!-- Generator: Adobe Illustrator 23.0.2, SVG Export Plug-In . SVG Version: 6.00 Build 0)  -->
<svg version="1.1" id="Layer_1" xmlns="http://www.w3.org/2000/svg" xmlns:xlink="http://www.w3.org/1999/xlink" x="0px" y="0px"
	 viewBox="0 0 800 800" style="enable-background:new 0 0 800 800;" xml:space="preserve">
<style type="text/css">
	.st0{fill:#4CE1AF;}
</style>
<path class="st0" d="M400,0C179.1,0,0,179.1,0,400s179.1,400,400,400s400-179.1,400-400S620.9,0,400,0z M430.3,703.9l0-0.2
	c-99.1-0.2-191.8-48.8-248.3-130.2c-10.5-15.1-6.8-35.9,8.3-46.4c15.1-10.5,35.9-6.8,46.4,8.3c74.3,107.2,221.4,133.9,328.6,59.6
	C630,550.2,668.1,476.2,667,397.6c1.8-130.5-102.6-237.7-233.1-239.5c-106.1-1.4-200.2,68.1-230,169.9l27.8-18.7
	c15.3-10.3,36-6.3,46.3,9c10.3,15.3,6.3,36-9,46.3l-90,60.6c-15.5,9.8-36,5.8-46.4-9.3l-60-90.9c-10.8-15-7.3-35.8,7.6-46.5
	c14.9-10.7,35.8-7.3,46.5,7.6c0.5,0.7,1,1.5,1.5,2.3l12.4,18.8c51.3-159.8,222.4-247.7,382.1-196.5
	C682.4,162,770.4,333.1,719.1,492.9C678.9,618.4,562.2,703.7,430.3,703.9z M533.1,456.8c13,13.1,12.9,34.2-0.2,47.1
	c-13.3,12.5-34,12.4-47.1-0.2l-81.8-82.8c-6-6.3-9.5-14.6-9.7-23.3V259.9c0-18.4,14.9-33.3,33.3-33.3c18.4,0,33.3,14.9,33.3,33.3
	v124L533.1,456.8z"/>
</svg>
