<svg width="32" height="32" viewBox="0 0 32 32" fill="none" xmlns="http://www.w3.org/2000/svg">
<circle cx="15.8228" cy="15.8228" r="15.8228" fill="#4CE5B1"/>
<path d="M8.83925 23.9732C8.83925 23.9732 8.82163 24.4063 9.24524 24.4063C9.77238 24.4063 14.129 24.4005 14.129 24.4005L14.1363 20.3985C14.1363 20.3985 14.0673 19.7392 14.7068 19.7392H16.7338C17.4907 19.7392 17.4445 20.3985 17.4445 20.3985L17.4357 24.388C17.4357 24.388 21.5676 24.388 22.2166 24.388C22.754 24.388 22.7298 23.8491 22.7298 23.8491V16.4692L15.9916 10.4761L8.83925 16.4699C8.83925 16.4699 8.83925 23.9732 8.83925 23.9732Z" fill="white"/>
<path d="M6.20502 15.912C6.20502 15.912 6.81144 17.0309 8.13663 15.912L16.0517 9.21559L23.472 15.8701C25.005 16.9758 25.5798 15.8701 25.5798 15.8701L16.0517 7.2392L6.20502 15.912Z" fill="white"/>
<path d="M23.2915 9.20013H21.3834L21.3915 11.515L23.2915 13.128V9.20013Z" fill="white"/>
</svg>
