<svg width="57" height="57" viewBox="0 0 57 57" fill="none" xmlns="http://www.w3.org/2000/svg">
<path fill-rule="evenodd" clip-rule="evenodd" d="M28.5 57C44.2401 57 57 44.2401 57 28.5C57 12.7599 44.2401 0 28.5 0C12.7599 0 0 12.7599 0 28.5C0 44.2401 12.7599 57 28.5 57Z" fill="#4CE5B1"/>
<path d="M42.8385 19.9404L29.7435 43.2697C29.4964 43.7566 29.0821 44 28.5007 44C28.428 44 28.319 43.9861 28.1736 43.9583C27.8538 43.8887 27.5958 43.7322 27.3995 43.4888C27.2033 43.2454 27.1052 42.9707 27.1052 42.6646L27.3995 30.309L14.3908 26.8528C14.071 26.8528 13.7839 26.7589 13.5295 26.5711C13.2752 26.3834 13.1116 26.1365 13.0389 25.8304C12.9663 25.5244 12.9953 25.2323 13.1262 24.9541C13.257 24.6759 13.4678 24.4673 13.7585 24.3282L40.9633 18.1461C41.1522 18.0487 41.363 18 41.5956 18C41.9881 18 42.3152 18.1321 42.5768 18.3964C42.7949 18.5912 42.9293 18.8311 42.9802 19.1163C43.0311 19.4014 42.9838 19.6761 42.8385 19.9404Z" fill="white"/>
</svg>
