<svg width="317" height="298" viewBox="0 0 317 298" fill="none" xmlns="http://www.w3.org/2000/svg">
<mask id="mask0_667_2371" style="mask-type:alpha" maskUnits="userSpaceOnUse" x="0" y="0" width="317" height="298">
<rect width="317" height="298" fill="#D9D9D9"/>
</mask>
<g mask="url(#mask0_667_2371)">
<path fill-rule="evenodd" clip-rule="evenodd" d="M259.924 46.3928C261.104 46.3928 261.106 44.5648 259.924 44.5648C258.743 44.5648 258.741 46.3928 259.924 46.3928" fill="#F2F8FD"/>
<path fill-rule="evenodd" clip-rule="evenodd" d="M267.871 69.5473C269.051 69.5473 269.053 67.7194 267.871 67.7194C266.69 67.7194 266.689 69.5473 267.871 69.5473" fill="#F2F8FD"/>
<path fill-rule="evenodd" clip-rule="evenodd" d="M279.487 95.7485C280.667 95.7485 280.669 93.9205 279.487 93.9205C278.306 93.9205 278.304 95.7485 279.487 95.7485" fill="#F2F8FD"/>
<path fill-rule="evenodd" clip-rule="evenodd" d="M250.753 81.7339C251.934 81.7339 251.936 79.9059 250.753 79.9059C249.573 79.9059 249.571 81.7339 250.753 81.7339" fill="#F2F8FD"/>
<path fill-rule="evenodd" clip-rule="evenodd" d="M289.268 47.6114C290.448 47.6114 290.45 45.7834 289.268 45.7834C288.087 45.7834 288.086 47.6114 289.268 47.6114" fill="#F2F8FD"/>
<path fill-rule="evenodd" clip-rule="evenodd" d="M287.434 32.9875C288.614 32.9875 288.616 31.1595 287.434 31.1595C286.253 31.1595 286.252 32.9875 287.434 32.9875" fill="#F2F8FD"/>
<path fill-rule="evenodd" clip-rule="evenodd" d="M189.886 44.828C191.067 44.828 191.068 43 189.886 43C188.706 43 188.704 44.828 189.886 44.828" fill="#F2F8FD"/>
<path fill-rule="evenodd" clip-rule="evenodd" d="M214.886 41.828C216.067 41.828 216.068 40 214.886 40C213.706 40 213.704 41.828 214.886 41.828" fill="#F2F8FD"/>
<path fill-rule="evenodd" clip-rule="evenodd" d="M230.886 54.828C232.067 54.828 232.068 53 230.886 53C229.706 53 229.704 54.828 230.886 54.828" fill="#F2F8FD"/>
<path fill-rule="evenodd" clip-rule="evenodd" d="M244.886 18.828C246.067 18.828 246.068 17 244.886 17C243.706 17 243.704 18.828 244.886 18.828" fill="#F2F8FD"/>
<path fill-rule="evenodd" clip-rule="evenodd" d="M272.762 154.244C273.943 154.244 273.944 152.416 272.762 152.416C271.582 152.416 271.58 154.244 272.762 154.244" fill="#F2F8FD"/>
<path fill-rule="evenodd" clip-rule="evenodd" d="M270.316 125.606C271.497 125.606 271.499 123.778 270.316 123.778C269.136 123.778 269.134 125.606 270.316 125.606" fill="#F2F8FD"/>
<path fill-rule="evenodd" clip-rule="evenodd" d="M237.304 146.323C238.485 146.323 238.486 144.495 237.304 144.495C236.124 144.495 236.122 146.323 237.304 146.323" fill="#F2F8FD"/>
<path fill-rule="evenodd" clip-rule="evenodd" d="M249.531 108.544C250.711 108.544 250.713 106.716 249.531 106.716C248.35 106.716 248.348 108.544 249.531 108.544" fill="#F2F8FD"/>
<path fill-rule="evenodd" clip-rule="evenodd" d="M287.434 131.09C288.614 131.09 288.616 129.262 287.434 129.262C286.253 129.262 286.252 131.09 287.434 131.09" fill="#F2F8FD"/>
<path fill-rule="evenodd" clip-rule="evenodd" d="M276.43 213.958C277.611 213.958 277.612 212.13 276.43 212.13C275.25 212.13 275.248 213.958 276.43 213.958" fill="#F2F8FD"/>
<path fill-rule="evenodd" clip-rule="evenodd" d="M229.356 225.536C230.537 225.536 230.539 223.708 229.356 223.708C228.176 223.708 228.174 225.536 229.356 225.536" fill="#F2F8FD"/>
<path fill-rule="evenodd" clip-rule="evenodd" d="M277.653 181.055C278.833 181.055 278.835 179.227 277.653 179.227C276.472 179.227 276.47 181.055 277.653 181.055" fill="#F2F8FD"/>
<path fill-rule="evenodd" clip-rule="evenodd" d="M262.98 198.116C264.161 198.116 264.163 196.288 262.98 196.288C261.8 196.288 261.798 198.116 262.98 198.116" fill="#F2F8FD"/>
<path fill-rule="evenodd" clip-rule="evenodd" d="M264.203 232.848C265.383 232.848 265.385 231.02 264.203 231.02C263.022 231.02 263.021 232.848 264.203 232.848" fill="#F2F8FD"/>
<path fill-rule="evenodd" clip-rule="evenodd" d="M250.753 218.224C251.934 218.224 251.936 216.396 250.753 216.396C249.573 216.396 249.571 218.224 250.753 218.224" fill="#F2F8FD"/>
<path fill-rule="evenodd" clip-rule="evenodd" d="M218.352 218.224C219.532 218.224 219.534 216.396 218.352 216.396C217.171 216.396 217.17 218.224 218.352 218.224" fill="#F2F8FD"/>
<path fill-rule="evenodd" clip-rule="evenodd" d="M245.251 131.699C246.432 131.699 246.434 129.871 245.251 129.871C244.071 129.871 244.069 131.699 245.251 131.699" fill="#F2F8FD"/>
<path fill-rule="evenodd" clip-rule="evenodd" d="M185.886 19.828C187.067 19.828 187.068 18 185.886 18C184.706 18 184.704 19.828 185.886 19.828" fill="#F2F8FD"/>
<path fill-rule="evenodd" clip-rule="evenodd" d="M85.0792 39.6902C86.2591 39.6902 86.2615 37.8622 85.0792 37.8622C83.8993 37.8622 83.8969 39.6902 85.0792 39.6902" fill="#F2F8FD"/>
<path fill-rule="evenodd" clip-rule="evenodd" d="M99.1397 51.8768C100.32 51.8768 100.322 50.0488 99.1397 50.0488C97.9598 50.0488 97.9574 51.8768 99.1397 51.8768" fill="#F2F8FD"/>
<path fill-rule="evenodd" clip-rule="evenodd" d="M118.703 31.1595C119.883 31.1595 119.885 29.3315 118.703 29.3315C117.523 29.3315 117.52 31.1595 118.703 31.1595" fill="#F2F8FD"/>
<path fill-rule="evenodd" clip-rule="evenodd" d="M127.873 43.6509C129.053 43.6509 129.055 41.8229 127.873 41.8229C126.693 41.8229 126.691 43.6509 127.873 43.6509" fill="#F2F8FD"/>
<path fill-rule="evenodd" clip-rule="evenodd" d="M32.5035 43.9554C33.6834 43.9554 33.6859 42.1274 32.5035 42.1274C31.3236 42.1274 31.3212 43.9554 32.5035 43.9554" fill="#F2F8FD"/>
<path fill-rule="evenodd" clip-rule="evenodd" d="M47.1759 64.6727C48.3558 64.6727 48.3582 62.8447 47.1759 62.8447C45.996 62.8447 45.9935 64.6727 47.1759 64.6727" fill="#F2F8FD"/>
<path fill-rule="evenodd" clip-rule="evenodd" d="M58.1798 53.7047C59.3597 53.7047 59.3621 51.8767 58.1798 51.8767C56.9999 51.8767 56.9974 53.7047 58.1798 53.7047" fill="#F2F8FD"/>
<path fill-rule="evenodd" clip-rule="evenodd" d="M65.8858 17.828C67.0657 17.828 67.0682 16 65.8858 16C64.7059 16 64.7035 17.828 65.8858 17.828" fill="#F2F8FD"/>
<path fill-rule="evenodd" clip-rule="evenodd" d="M77.7428 61.0167C78.9227 61.0167 78.9251 59.1887 77.7428 59.1887C76.5629 59.1887 76.5604 61.0167 77.7428 61.0167" fill="#F2F8FD"/>
<path fill-rule="evenodd" clip-rule="evenodd" d="M31.2809 102.451C32.4608 102.451 32.4632 100.623 31.2809 100.623C30.101 100.623 30.0985 102.451 31.2809 102.451" fill="#F2F8FD"/>
<path fill-rule="evenodd" clip-rule="evenodd" d="M56.9571 132.308C58.137 132.308 58.1395 130.48 56.9571 130.48C55.7772 130.48 55.7748 132.308 56.9571 132.308" fill="#F2F8FD"/>
<path fill-rule="evenodd" clip-rule="evenodd" d="M59.4024 95.7485C60.5823 95.7485 60.5848 93.9205 59.4024 93.9205C58.2225 93.9205 58.2201 95.7485 59.4024 95.7485" fill="#F2F8FD"/>
<path fill-rule="evenodd" clip-rule="evenodd" d="M75.2975 129.871C76.4774 129.871 76.4798 128.043 75.2975 128.043C74.1176 128.043 74.1151 129.871 75.2975 129.871" fill="#F2F8FD"/>
<path fill-rule="evenodd" clip-rule="evenodd" d="M23.9444 155.463C25.1243 155.463 25.1268 153.635 23.9444 153.635C22.7645 153.635 22.7621 155.463 23.9444 155.463" fill="#F2F8FD"/>
<path fill-rule="evenodd" clip-rule="evenodd" d="M3.15879 195.679C4.33868 195.679 4.34113 193.851 3.15879 193.851C1.97889 193.851 1.97645 195.679 3.15879 195.679" fill="#F2F8FD"/>
<path fill-rule="evenodd" clip-rule="evenodd" d="M26.3897 220.052C27.5696 220.052 27.5721 218.224 26.3897 218.224C25.2098 218.224 25.2074 220.052 26.3897 220.052" fill="#F2F8FD"/>
<path fill-rule="evenodd" clip-rule="evenodd" d="M42.2848 200.553C43.4647 200.553 43.4671 198.725 42.2848 198.725C41.1049 198.725 41.1024 200.553 42.2848 200.553" fill="#F2F8FD"/>
<path fill-rule="evenodd" clip-rule="evenodd" d="M25.7784 192.632C26.9583 192.632 26.9608 190.804 25.7784 190.804C24.5985 190.804 24.5961 192.632 25.7784 192.632" fill="#F2F8FD"/>
<path fill-rule="evenodd" clip-rule="evenodd" d="M8.04941 221.88C9.22931 221.88 9.23175 220.052 8.04941 220.052C6.86952 220.052 6.86707 221.88 8.04941 221.88" fill="#F2F8FD"/>
<path fill-rule="evenodd" clip-rule="evenodd" d="M48.3985 231.02C49.5784 231.02 49.5809 229.192 48.3985 229.192C47.2186 229.192 47.2162 231.02 48.3985 231.02" fill="#F2F8FD"/>
<path fill-rule="evenodd" clip-rule="evenodd" d="M56.3458 210.912C57.5257 210.912 57.5281 209.084 56.3458 209.084C55.1659 209.084 55.1635 210.912 56.3458 210.912" fill="#F2F8FD"/>
<path fill-rule="evenodd" clip-rule="evenodd" d="M88.7472 228.582C89.9271 228.582 89.9295 226.754 88.7472 226.754C87.5673 226.754 87.5648 228.582 88.7472 228.582" fill="#F2F8FD"/>
<path fill-rule="evenodd" clip-rule="evenodd" d="M3.15879 170.087C4.33868 170.087 4.34113 168.259 3.15879 168.259C1.97889 168.259 1.97645 170.087 3.15879 170.087" fill="#F2F8FD"/>
<path fill-rule="evenodd" clip-rule="evenodd" d="M41.6734 146.932C42.8533 146.932 42.8558 145.104 41.6734 145.104C40.4935 145.104 40.4911 146.932 41.6734 146.932" fill="#F2F8FD"/>
<path fill-rule="evenodd" clip-rule="evenodd" d="M33.7262 126.215C34.9061 126.215 34.9085 124.387 33.7262 124.387C32.5463 124.387 32.5438 126.215 33.7262 126.215" fill="#F2F8FD"/>
<path fill-rule="evenodd" clip-rule="evenodd" d="M13.5519 131.699C14.7317 131.699 14.7342 129.871 13.5519 129.871C12.372 129.871 12.3695 131.699 13.5519 131.699" fill="#F2F8FD"/>
<path fill-rule="evenodd" clip-rule="evenodd" d="M10.4952 100.014C11.6751 100.014 11.6776 98.1858 10.4952 98.1858C9.31532 98.1858 9.31287 100.014 10.4952 100.014" fill="#F2F8FD"/>
<path fill-rule="evenodd" clip-rule="evenodd" d="M28.2237 82.9525C29.4036 82.9525 29.4061 81.1245 28.2237 81.1245C27.0438 81.1245 27.0414 82.9525 28.2237 82.9525" fill="#F2F8FD"/>
<path fill-rule="evenodd" clip-rule="evenodd" d="M19.0538 62.8447C20.2337 62.8447 20.2361 61.0167 19.0538 61.0167C17.8739 61.0167 17.8715 62.8447 19.0538 62.8447" fill="#F2F8FD"/>
<path fill-rule="evenodd" clip-rule="evenodd" d="M2.54746 78.078C3.72735 78.078 3.7298 76.25 2.54746 76.25C1.36756 76.25 1.36512 78.078 2.54746 78.078" fill="#F2F8FD"/>
<path fill-rule="evenodd" clip-rule="evenodd" d="M1.3248 38.4715C2.5047 38.4715 2.50714 36.6436 1.3248 36.6436C0.144908 36.6436 0.142463 38.4715 1.3248 38.4715" fill="#F2F8FD"/>
<path fill-rule="evenodd" clip-rule="evenodd" d="M30.8858 25.828C32.0657 25.828 32.0682 24 30.8858 24C29.7059 24 29.7035 25.828 30.8858 25.828" fill="#F2F8FD"/>
<path fill-rule="evenodd" clip-rule="evenodd" d="M85.0792 29.3315C86.2591 29.3315 86.2615 27.5035 85.0792 27.5035C83.8993 27.5035 83.8969 29.3315 85.0792 29.3315" fill="#F2F8FD"/>
<path fill-rule="evenodd" clip-rule="evenodd" d="M289.879 204.818C291.06 204.818 291.062 202.99 289.879 202.99C288.699 202.99 288.697 204.818 289.879 204.818" fill="#F2F8FD"/>
<path fill-rule="evenodd" clip-rule="evenodd" d="M105.865 124.996C107.045 124.996 107.047 123.168 105.865 123.168C104.685 123.168 104.683 124.996 105.865 124.996" fill="#F2F8FD"/>
<path fill-rule="evenodd" clip-rule="evenodd" d="M80.7994 137.792C81.9793 137.792 81.9818 135.964 80.7994 135.964C79.6195 135.964 79.6171 137.792 80.7994 137.792" fill="#F2F8FD"/>
<path fill-rule="evenodd" clip-rule="evenodd" d="M195.732 100.623C196.913 100.623 196.915 98.7952 195.732 98.7952C194.552 98.7952 194.55 100.623 195.732 100.623" fill="#F2F8FD"/>
<path fill-rule="evenodd" clip-rule="evenodd" d="M197.566 116.466C198.747 116.466 198.749 114.638 197.566 114.638C196.386 114.638 196.384 116.466 197.566 116.466" fill="#F2F8FD"/>
<path fill-rule="evenodd" clip-rule="evenodd" d="M217.741 137.183C218.921 137.183 218.923 135.355 217.741 135.355C216.56 135.355 216.558 137.183 217.741 137.183" fill="#F2F8FD"/>
<path fill-rule="evenodd" clip-rule="evenodd" d="M72.1713 88.5731L65.9668 85.2681L72.4159 78.9591L81.9535 83.905L72.1713 88.5731Z" fill="#F52D56"/>
<path fill-rule="evenodd" clip-rule="evenodd" d="M121.46 120.715L117.072 121.017L116.604 118.375L119.7 116.341L121.46 120.715Z" fill="#23BBB8"/>
<path fill-rule="evenodd" clip-rule="evenodd" d="M59.906 158.747L55.5165 159.047L55.0488 156.407L58.1428 154.372L59.906 158.747Z" fill="#23BBB8"/>
<path fill-rule="evenodd" clip-rule="evenodd" d="M124.076 98.8597L119.687 99.1607L119.223 96.5181L122.314 94.4835L124.076 98.8597Z" fill="#23BBB8"/>
<path fill-rule="evenodd" clip-rule="evenodd" d="M35.7209 97.7521L31.3296 98.0525L30.8662 95.4116L33.959 93.3765L35.7209 97.7521Z" fill="#23BBB8"/>
<path fill-rule="evenodd" clip-rule="evenodd" d="M170.95 171.646L166.56 171.947L166.096 169.306L169.188 167.27L170.95 171.646Z" fill="#23BBB8"/>
<path fill-rule="evenodd" clip-rule="evenodd" d="M103.381 74.1432L98.9903 74.4424L98.5244 71.8027L101.621 69.7664L103.381 74.1432Z" fill="#23BBB8"/>
<path fill-rule="evenodd" clip-rule="evenodd" d="M183.845 131.685L179.456 131.986L178.992 129.345L182.083 127.311L183.845 131.685Z" fill="#23BBB8"/>
<path fill-rule="evenodd" clip-rule="evenodd" d="M201.959 90.7652L197.569 91.0656L197.104 88.4254L200.195 86.3903L201.959 90.7652Z" fill="#23BBB8"/>
<path fill-rule="evenodd" clip-rule="evenodd" d="M161.636 188.152L157.247 188.452L156.781 185.812L159.875 183.776L161.636 188.152Z" fill="#23BBB8"/>
<path fill-rule="evenodd" clip-rule="evenodd" d="M146.793 118.534L147.018 121.252L143.727 119.733L143.513 116.107L146.793 118.534Z" fill="#EB008B"/>
<path fill-rule="evenodd" clip-rule="evenodd" d="M26.4369 138.621L23.8809 139.966L23.9609 136.56L27.4065 134.834L26.4369 138.621Z" fill="#EB008B"/>
<path fill-rule="evenodd" clip-rule="evenodd" d="M148.951 214.287L146.391 215.636L146.475 212.229L149.92 210.504L148.951 214.287Z" fill="#EB008B"/>
<path fill-rule="evenodd" clip-rule="evenodd" d="M78.4363 113.196L75.7207 114.247L76.2495 110.874L79.8937 109.548L78.4363 113.196Z" fill="#EB008B"/>
<path fill-rule="evenodd" clip-rule="evenodd" d="M123.138 181.324L126.08 181.288L124.232 184.236L120.316 184.205L123.138 181.324Z" fill="#EB008B"/>
<path fill-rule="evenodd" clip-rule="evenodd" d="M103.281 187.403L98.9 188.836L97.6479 184.402L102.941 182.725L103.281 187.403Z" fill="#FFD200"/>
<path fill-rule="evenodd" clip-rule="evenodd" d="M75.0511 131.091L75.3054 135.392L70.3621 135.261L70.1084 130.081L75.0511 131.091Z" fill="#FFD200"/>
<path fill-rule="evenodd" clip-rule="evenodd" d="M50.022 72.3803L45.638 73.8135L44.3872 69.3782L49.6808 67.7001L50.022 72.3803Z" fill="#FFD200"/>
<path fill-rule="evenodd" clip-rule="evenodd" d="M134.505 69.3128L130.124 70.7441L128.871 66.3094L134.165 64.6338L134.505 69.3128Z" fill="#FFD200"/>
<path fill-rule="evenodd" clip-rule="evenodd" d="M104.059 99.2694L99.6779 100.703L98.4277 96.2684L103.718 94.5922L104.059 99.2694Z" fill="#FFD200"/>
<path fill-rule="evenodd" clip-rule="evenodd" d="M193.839 159.624L189.458 161.057L188.207 156.624L193.498 154.943L193.839 159.624Z" fill="#FFD200"/>
<path fill-rule="evenodd" clip-rule="evenodd" d="M86.9789 163.876L83.6611 160.884L89.299 158.055L94.4202 162.574L86.9789 163.876Z" fill="#1B75BB"/>
<path fill-rule="evenodd" clip-rule="evenodd" d="M51.8258 125.526L48.5044 122.151L54.1654 119.271L59.2965 124.371L51.8258 125.526Z" fill="#F52D56"/>
<path fill-rule="evenodd" clip-rule="evenodd" d="M28.3965 173.18L28.9155 169.608L33.6602 171.325L32.9314 176.784L28.3965 173.18Z" fill="#F52D56"/>
<path fill-rule="evenodd" clip-rule="evenodd" d="M182.414 69.8642L185.338 67.4927L187.695 71.6794L183.27 75.3457L182.414 69.8642Z" fill="#F52D56"/>
<path fill-rule="evenodd" clip-rule="evenodd" d="M211.302 69.8642L214.224 67.4927L216.582 71.6794L212.158 75.3457L211.302 69.8642Z" fill="#1B75BB"/>
<path fill-rule="evenodd" clip-rule="evenodd" d="M124.965 164.944L119.485 167.241L119.652 160.38L126.911 157.327L124.965 164.944Z" fill="#EB008B"/>
<path fill-rule="evenodd" clip-rule="evenodd" d="M232.01 121.931L226.529 124.228L226.697 117.367L233.955 114.315L232.01 121.931Z" fill="#F52D56"/>
<path fill-rule="evenodd" clip-rule="evenodd" d="M200.663 111.644L200.454 116.734L194.47 113.814L194.734 107.062L200.663 111.644Z" fill="#F52D56"/>
<path fill-rule="evenodd" clip-rule="evenodd" d="M80.3334 183.231L71.5153 186.113L68.9966 177.188L79.648 173.812L80.3334 183.231Z" fill="#FFD200"/>
<path fill-rule="evenodd" clip-rule="evenodd" d="M288.612 183.631L283.315 183.993L282.752 180.806L286.487 178.348L288.612 183.631Z" fill="#23BBB8"/>
<path fill-rule="evenodd" clip-rule="evenodd" d="M240.837 194.529L235.542 194.893L238.714 189.25L240.837 194.529Z" fill="#23BBB8"/>
<path fill-rule="evenodd" clip-rule="evenodd" d="M234.966 169.205L229.667 169.568L229.107 166.378L232.838 163.922L234.966 169.205Z" fill="#23BBB8"/>
<path fill-rule="evenodd" clip-rule="evenodd" d="M209.985 139.372L204.686 139.732L204.125 136.546L207.86 134.089L209.985 139.372Z" fill="#23BBB8"/>
<path fill-rule="evenodd" clip-rule="evenodd" d="M117.677 101.609L112.381 101.972L111.819 98.7849L115.553 96.3287L117.677 101.609Z" fill="#23BBB8"/>
<path fill-rule="evenodd" clip-rule="evenodd" d="M139.542 52.2186L134.242 52.5811L133.681 49.3943L137.413 46.9375L139.542 52.2186Z" fill="#23BBB8"/>
<path fill-rule="evenodd" clip-rule="evenodd" d="M256.303 177.082L256.573 180.363L252.6 178.53L252.342 174.152L256.303 177.082Z" fill="#F52D56"/>
<path fill-rule="evenodd" clip-rule="evenodd" d="M255.242 160.616L252.154 162.243L252.253 158.13L256.414 156.048L255.242 160.616Z" fill="#F52D56"/>
<path fill-rule="evenodd" clip-rule="evenodd" d="M151.697 68.2636L148.607 69.8893L148.707 65.7769L152.867 63.6948L151.697 68.2636Z" fill="#F52D56"/>
<path fill-rule="evenodd" clip-rule="evenodd" d="M247.553 133.541L242.266 135.269L240.752 129.917L247.143 127.894L247.553 133.541Z" fill="#FFD200"/>
<path fill-rule="evenodd" clip-rule="evenodd" d="M219.981 190.794L214.692 192.524L213.183 187.171L219.569 185.148L219.981 190.794Z" fill="#FFD200"/>
<path fill-rule="evenodd" clip-rule="evenodd" d="M150.818 26.9909L154.347 24.1289L157.192 29.1815L151.851 33.607L150.818 26.9909Z" fill="#F52D56"/>
<path fill-rule="evenodd" clip-rule="evenodd" d="M221.792 208.495L211.13 209.223L209.999 202.811L217.51 197.868L221.792 208.495Z" fill="#007AFF"/>
<path fill-rule="evenodd" clip-rule="evenodd" d="M272.958 140.898L272.706 147.042L265.481 143.518L265.799 135.368L272.958 140.898Z" fill="#F52D56"/>
<path fill-rule="evenodd" clip-rule="evenodd" d="M103.381 203.876L98.9903 204.174L98.5244 201.534L101.621 199.498L103.381 203.876Z" fill="#23BBB8"/>
<path fill-rule="evenodd" clip-rule="evenodd" d="M78.3491 210.205L73.9596 210.503L73.4932 207.864L76.5878 205.827L78.3491 210.205Z" fill="#23BBB8"/>
<path fill-rule="evenodd" clip-rule="evenodd" d="M50.022 202.113L45.638 203.546L44.3872 199.111L49.6808 197.432L50.022 202.113Z" fill="#FFD200"/>
<path fill-rule="evenodd" clip-rule="evenodd" d="M134.505 199.045L130.124 200.477L128.871 196.042L134.165 194.366L134.505 199.045Z" fill="#FFD200"/>
<path fill-rule="evenodd" clip-rule="evenodd" d="M94.6359 181.547C94.6359 181.547 95.4844 182.477 94.5827 184.77C93.6754 187.076 89.5696 200.499 93.4957 202.333C93.4957 202.333 89.4798 204.15 85.9725 199.711C82.365 195.142 87.2679 182.129 91.1879 179.587L94.6359 181.547Z" fill="#4252FF"/>
<path fill-rule="evenodd" clip-rule="evenodd" d="M74.1029 172.322C73.0777 174.776 68.459 189.139 73.0178 191.291C73.0178 191.291 68.3899 193.092 64.281 188.128C60.0444 183.011 64.0395 172.177 68.16 165.986L74.1029 172.322Z" fill="#4252FF"/>
<path fill-rule="evenodd" clip-rule="evenodd" d="M94.6361 181.547L87.8233 177.441C87.8233 177.441 76.0873 195.391 65.917 189.715C65.917 189.715 76.7262 198.459 85.4935 190.816C93.8133 183.56 94.6361 181.547 94.6361 181.547" fill="#A1A9FF"/>
<path fill-rule="evenodd" clip-rule="evenodd" d="M84.791 197.252C84.791 197.252 86.7864 203.008 96.1969 200.223C106.57 197.287 111.49 211.427 111.49 211.427L106.995 218.757C106.995 218.757 107.765 204.444 98.726 204.511C89.005 204.58 87.0884 203.398 84.791 197.252" fill="#A1A9FF"/>
<path fill-rule="evenodd" clip-rule="evenodd" d="M190.013 172.187C190.013 172.187 189.421 173.074 190.471 174.881C191.527 176.699 196.688 187.429 193.632 189.466C193.632 189.466 197.232 190.478 199.602 186.311C202.04 182.022 196.264 171.737 192.653 170.105L190.013 172.187Z" fill="#FFCC00"/>
<path fill-rule="evenodd" clip-rule="evenodd" d="M206.043 161.839C207.218 163.767 212.93 175.219 209.384 177.603C209.384 177.603 213.494 178.524 216.303 173.84C219.198 169.011 214.462 160.437 210.214 155.772L206.043 161.839Z" fill="#FFCC00"/>
<path fill-rule="evenodd" clip-rule="evenodd" d="M190.013 172.187L195.198 167.877C195.198 167.877 207.336 181.43 215.134 175.379C215.134 175.379 207.193 184.084 198.864 178.793C190.96 173.769 190.013 172.187 190.013 172.187" fill="#E89A24"/>
<path fill-rule="evenodd" clip-rule="evenodd" d="M200.278 184.099C200.278 184.099 199.343 189.178 191.098 188.041C182.027 186.9 179.711 199.378 179.711 199.378L184.419 204.953C184.419 204.953 181.941 193.051 189.525 191.957C197.686 190.778 199.14 189.543 200.278 184.099" fill="#E89A24"/>
<path fill-rule="evenodd" clip-rule="evenodd" d="M224.926 98.2514L220.302 97.288L222.347 101.533L220 105.618L224.682 104.99L228.342 95L224.926 98.2514Z" fill="#FF9500"/>
<path fill-rule="evenodd" clip-rule="evenodd" d="M64.9256 18.1918L60.302 17.2285L62.347 21.4731L60 25.5586L64.6823 24.9304L68.3418 14.9404L64.9256 18.1918Z" fill="#FF9500"/>
<path fill-rule="evenodd" clip-rule="evenodd" d="M229.021 103.846L233.33 101.915L229.171 99.6809L228.66 95L225 104.99L228.173 108.477L229.021 103.846Z" fill="#FFCC00"/>
<path fill-rule="evenodd" clip-rule="evenodd" d="M69.0208 23.7861L73.3296 21.8557L69.1706 19.6213L68.6595 14.9404L65 24.9304L68.1735 28.4176L69.0208 23.7861Z" fill="#FFCC00"/>
<path fill-rule="evenodd" clip-rule="evenodd" d="M213.563 42.123L210.218 41.4358L211.698 44.4637L210 47.3781L213.387 46.93L216.035 39.8036L213.563 42.123Z" fill="#FF9500"/>
<path fill-rule="evenodd" clip-rule="evenodd" d="M216.526 46.1137L219.643 44.7366L216.634 43.1427L216.265 39.8036L213.617 46.93L215.913 49.4176L216.526 46.1137Z" fill="#FFCC00"/>
<path fill-rule="evenodd" clip-rule="evenodd" d="M40.5634 143.123L37.2185 142.436L38.6979 145.464L37 148.378L40.3874 147.93L43.0348 140.804L40.5634 143.123Z" fill="#FF9500"/>
<path fill-rule="evenodd" clip-rule="evenodd" d="M43.526 147.114L46.6432 145.737L43.6344 144.143L43.2646 140.804L40.6172 147.93L42.913 150.418L43.526 147.114Z" fill="#FFCC00"/>
<path fill-rule="evenodd" clip-rule="evenodd" d="M161.907 298L78 278.107L139.45 258L224 273.903L161.907 298Z" fill="#40BE94"/>
<path fill-rule="evenodd" clip-rule="evenodd" d="M96 209L149 198.5L203 207.638L159 218.5L96 209Z" fill="#86172E"/>
<path fill-rule="evenodd" clip-rule="evenodd" d="M149 198.5L149.433 264.659L198.14 273L204 207L149 198.5Z" fill="#B6203F"/>
<path fill-rule="evenodd" clip-rule="evenodd" d="M159 287L103.387 274.189L96 209L159 218.149V287Z" fill="#F52D56"/>
<path fill-rule="evenodd" clip-rule="evenodd" d="M159 218.145L204 207L198.5 273L159 287V218.145Z" fill="#FF7491"/>
<path fill-rule="evenodd" clip-rule="evenodd" d="M173.5 282L183.48 278.416L191 210L181.227 212.502L173.5 282Z" fill="#EBB02A"/>
<path fill-rule="evenodd" clip-rule="evenodd" d="M121.128 278.715L114 212L126.042 213.768L131 281L121.128 278.715Z" fill="#EBB02A"/>
<path fill-rule="evenodd" clip-rule="evenodd" d="M203 127L161 143L162 157L203 142V127Z" fill="#FF7491"/>
<path fill-rule="evenodd" clip-rule="evenodd" d="M203 127L159.523 123.98L144.977 123L90 140L161 143L203 127Z" fill="#FF8DA5"/>
<path fill-rule="evenodd" clip-rule="evenodd" d="M93 153L162 157L161 143L90 140L93 153Z" fill="#F52D56"/>
<path fill-rule="evenodd" clip-rule="evenodd" d="M108.5 141L123 141.5L125.5 155L111.5 154L108.5 141Z" fill="#EBB02A"/>
<path fill-rule="evenodd" clip-rule="evenodd" d="M108.5 141L158.965 124L171 124.826L123 141.5L108.5 141Z" fill="#F2BB4E"/>
<path fill-rule="evenodd" clip-rule="evenodd" d="M181 135.5V150L191 146.5V131.5L181 135.5Z" fill="#EBB02A"/>
<path fill-rule="evenodd" clip-rule="evenodd" d="M191 131.5L127 128.5L116 132L181 135.5L191 131.5Z" fill="#F2BB4E"/>
<path fill-rule="evenodd" clip-rule="evenodd" d="M106.009 111.456C106.009 111.456 122.307 130.1 141.998 130.762C146.568 130.284 148.643 128.957 148.643 128.957L120.232 110.778C121.623 104.746 124.722 99.2276 129.17 94.8666C131.03 93.043 129.019 90.0148 126.581 90.9669L118.441 94.147L110.089 102.178L106.009 111.456Z" fill="#E89A24"/>
<path fill-rule="evenodd" clip-rule="evenodd" d="M146.568 130.284L130.571 101.925C130.241 101.339 129.655 100.943 128.983 100.846C126.956 100.554 122.312 100.27 116.753 102.447C109.26 105.382 106.009 111.456 106.009 111.456L110.089 102.178C111.249 99.5417 112.937 97.1648 115.052 95.1898C118.978 91.525 123.908 89.0761 129.232 88.1464L134.022 87.3099C136.012 86.9625 137.957 88.1173 138.578 90.0148L150.854 127.542L146.568 130.284Z" fill="#F2BB4E"/>
<path fill-rule="evenodd" clip-rule="evenodd" d="M186.551 103.018C186.551 103.018 174.587 124.623 155.477 129.35C150.906 129.829 148.595 128.962 148.595 128.962L172.501 105.301C169.857 99.6923 165.65 94.9392 160.373 91.5975C158.166 90.1999 159.487 86.8226 162.073 87.2487L170.71 88.6704L180.585 94.7915L186.551 103.018Z" fill="#E89A24"/>
<path fill-rule="evenodd" clip-rule="evenodd" d="M150.907 129.829L160.507 98.7876C160.704 98.1478 161.194 97.6388 161.829 97.4051C163.749 96.6994 168.229 95.4586 174.128 96.4355C182.079 97.7526 186.551 103.018 186.551 103.018L180.585 94.791C178.891 92.4541 176.734 90.4803 174.244 88.9877C169.626 86.2181 164.284 84.8459 158.881 85.0396L154.02 85.2151C152 85.2878 150.344 86.8191 150.142 88.8031L146.132 128.038L150.907 129.829Z" fill="#F2BB4E"/>
</g>
</svg>
