<svg width="33" height="33" viewBox="0 0 33 33" fill="none" xmlns="http://www.w3.org/2000/svg">
<path d="M16.5 33C25.6127 33 33 25.6127 33 16.5C33 7.3873 25.6127 0 16.5 0C7.3873 0 0 7.3873 0 16.5C0 25.6127 7.3873 33 16.5 33Z" fill="#4CE5B1"/>
<path d="M23.0698 24.0181C23.0698 24.6798 22.5787 25.2217 21.9784 25.2217H10.6266C10.0262 25.2217 9.53537 24.6798 9.53537 24.0181V12.4027C9.53537 11.741 10.0262 11.1996 10.6266 11.1996H21.9784C22.5787 11.1996 23.0698 11.741 23.0698 12.4027V24.0181Z" fill="white"/>
<path d="M23.7235 10.3494H8.8815V12.2964H23.7235V10.3494Z" fill="white"/>
<path d="M17.1649 10.3494H15.4401V25.2217H17.1649V10.3494Z" fill="#F2F1EE"/>
<path opacity="0.35" d="M9.54099 12.278C9.53684 12.3191 9.53537 12.3606 9.53537 12.4027V12.5589H23.0698V12.4027C23.0698 12.3606 23.0679 12.3191 23.0639 12.278H9.54099Z" fill="#BAC717"/>
<path d="M23.0698 17.1153H9.53537V18.7281H23.0698V17.1153Z" fill="#FAFAFA"/>
<path d="M14.0676 8.73463C14.2147 9.38973 13.8972 9.30417 13.411 9.69381C13.0218 10.006 13.192 10.5232 13.6161 10.7327C14.2096 11.0263 15.4403 10.7613 15.971 10.4768C16.5711 10.1556 16.8527 9.66668 16.6181 9.07709C16.2179 8.07244 13.6757 6.98883 14.0676 8.73463Z" fill="#F2F1EE"/>
<path d="M18.765 8.73463C18.6178 9.38973 18.9351 9.30417 19.4213 9.69381C19.8107 10.006 19.6406 10.5232 19.2162 10.7327C18.623 11.0263 17.3922 10.7613 16.8613 10.4768C16.2614 10.1556 15.9801 9.66668 16.2145 9.07709C16.6144 8.07244 19.1561 6.98883 18.765 8.73463Z" fill="#F2F1EE"/>
<path d="M16.3269 11.1996H10.6266C10.0262 11.1996 9.53537 11.741 9.53537 12.4027V24.0178C9.53537 24.6795 10.0262 25.2214 10.6266 25.2214H16.3269V11.1996Z" fill="white"/>
<path d="M16.3269 10.3494H8.8815V12.2964H16.3269V10.3494Z" fill="white"/>
<path d="M16.3269 10.3494H15.4401V25.2217H16.3269V10.3494Z" fill="#F2F1EE"/>
<g opacity="0.35">
<path d="M16.3269 12.278H9.54099C9.53684 12.3191 9.53537 12.3606 9.53537 12.4027V12.5589H16.3269V12.278V12.278Z" fill="#A1B208"/>
</g>
<path d="M16.3269 17.1153H9.53537V18.7281H16.3269V17.1153Z" fill="#F1F1F1"/>
<path d="M16.3269 8.64831C15.5469 7.8199 13.7319 7.23935 14.0676 8.7346C14.2147 9.3897 13.8972 9.30414 13.411 9.69378C13.0218 10.0059 13.192 10.5232 13.6161 10.7327C14.2096 11.0262 15.4403 10.7613 15.971 10.4767C16.1082 10.4034 16.2257 10.3203 16.3272 10.2303V8.64831H16.3269Z" fill="#F2F1EE"/>
<path d="M16.3269 8.86853C16.2807 8.93771 16.2419 9.00737 16.2143 9.07704C16.0688 9.44272 16.1226 9.76954 16.3269 10.0416V8.86853Z" fill="#F2F1EE"/>
</svg>
