<svg width="33" height="33" viewBox="0 0 33 33" fill="none" xmlns="http://www.w3.org/2000/svg">
<path d="M16.4447 0C7.36311 0 0 7.36337 0 16.4453C0 25.5265 7.36311 32.89 16.4447 32.89C25.5265 32.89 32.8895 25.5266 32.8895 16.4453C32.8894 7.36337 25.5265 0 16.4447 0ZM16.4447 31.4289C8.18182 31.4289 1.46122 24.7066 1.46122 16.4453C1.46122 8.18342 8.18182 1.46167 16.4447 1.46167C24.7067 1.46167 31.4277 8.18334 31.4277 16.4453C31.4277 24.7065 24.7066 31.4289 16.4447 31.4289Z" fill="#4CE5B1"/>
<path d="M16.9604 15.3589H29.1798C28.6256 8.81385 23.1296 3.65475 16.4447 3.65475C9.39234 3.65475 3.65448 9.39261 3.65448 16.4453C3.65448 23.4979 9.39234 29.2368 16.4447 29.2368C23.0634 29.2368 28.5236 24.1813 29.1707 17.7292H16.9604L17.8999 18.6698C18.3627 19.1327 18.3627 19.8828 17.8999 20.3451C17.4365 20.8085 16.6867 20.8085 16.2239 20.3451L13.2621 17.3828C13.2608 17.3822 13.2608 17.3812 13.2597 17.3812L12.4229 16.5441L13.2597 15.7073C13.2608 15.7073 13.2608 15.7062 13.2621 15.7057L16.0264 12.9406C16.2584 12.709 16.5616 12.5933 16.8645 12.5933C17.1675 12.5933 17.4707 12.7089 17.7024 12.9406C18.1658 13.4035 18.1658 14.1536 17.7024 14.6162L16.9604 15.3589Z" fill="#4CE5B1"/>
</svg>
