<svg xmlns="http://www.w3.org/2000/svg" xmlns:xlink="http://www.w3.org/1999/xlink" width="8705.864" height="2380.006" viewBox="0 0 8705.864 2380.006">
  <defs>
    <radialGradient id="radial-gradient" cx="0.5" cy="0.5" r="0.704" gradientTransform="translate(0.016) scale(0.969 1)" gradientUnits="objectBoundingBox">
      <stop offset="0" stop-color="#6d6f72"/>
      <stop offset="0.051" stop-color="#67686b"/>
      <stop offset="0.123" stop-color="#565759"/>
      <stop offset="0.206" stop-color="#3a3a3b"/>
      <stop offset="0.286" stop-color="#1a1818"/>
      <stop offset="0.532" stop-color="#2c2b2c"/>
      <stop offset="1" stop-color="#5a5b5e"/>
    </radialGradient>
  </defs>
  <g id="Group_8136" data-name="Group 8136" transform="translate(-8365.208 -4279.786)">
    <g id="Group_8117" data-name="Group 8117" transform="translate(8365.208 4279.786)">
      <path id="Path_14873" data-name="Path 14873" d="M680.128,712.056S2367.044-492.894,3687.455,335.6q123.431,77.428,253.532,143.209c256.471,130.1,726.249,362.141,814.576,362.141,0,0-724.7-138.3-1252.1-454.182,0,0-1110.926-583.093-2270.948,331.437Z" transform="translate(1529.465 -44.777)" fill="#65ba93"/>
      <path id="Path_14874" data-name="Path 14874" d="M557.574,636.161s718.118-877.7,3406.448-417.366c0,0-3320.517-392.81-3111.827,1037.276Z" transform="translate(-557.574 644.898)" fill="#65ba93"/>
      <path id="Path_14875" data-name="Path 14875" d="M2095.249,444.586S762.523,358.766,715.844,947.124c-11.9,149.988,61.067,296.315,187.38,378.079,200.417,129.7,632.224,214.011,1514.823-246.139q30.887-16.118,62.112-31.66c105.726-52.448,575.648-302.842,1327.515-952.681h288.473V920.061H3887.456V761.2h-343.7l227.083-200h135.042V315.693S1958.874,1952.433,914.422,1492.824c-84.577-37.214-157.489-96.35-210.117-172.309-74.588-107.654-160.12-287.355-103.885-496.984C647.567,647.8,783.762,510.142,955.511,450.085,1156.667,379.752,1516.427,322.8,2095.249,444.586Z" transform="translate(-137.312 805.787)" fill="#060e26"/>
      <path id="Path_14876" data-name="Path 14876" d="M2551.758,122.9S847.029-28.24,869.223,785.4a194.489,194.489,0,0,0,6.726,45.056C907.1,946.13,1083.125,1384.735,1895.031,933.077c0,0-797.9,368.253-865.418-128.893C1029.614,804.183,913,178.126,2551.758,122.9Z" transform="translate(6154.106 1096.786)" fill="#65ba93"/>
      <g id="Group_8115" data-name="Group 8115" transform="translate(710.112 1404.937)">
        <path id="Path_14877" data-name="Path 14877" d="M1434.793,301.9C1366.46,134.4,1127.569,73.465,901.3,165.776S547.018,468.853,615.349,636.347C683.863,803.842,922.573,864.6,1148.844,772.29S1503.124,469.394,1434.793,301.9ZM1140.369,715.5C945.831,794.827,741.917,746.688,685.3,607.68,628.511,468.853,740.475,291.8,935.193,212.293c194.539-79.33,398.453-31.191,455.066,107.636C1447.052,458.937,1335.089,635.987,1140.369,715.5Z" transform="translate(-596.96 -122.701)" fill="#252424"/>
      </g>
      <g id="Group_8116" data-name="Group 8116" transform="translate(7286.183 1512.663)">
        <path id="Path_14878" data-name="Path 14878" d="M1520.223,264.838C1468.3,137.568,1286.777,91.268,1114.847,161.4c-171.93,70.153-269.2,230.292-217.275,357.562,52.052,127.271,233.447,173.444,405.377,103.309C1474.879,552.121,1572.147,392.109,1520.223,264.838ZM1296.495,579.111c-147.807,60.273-302.754,23.709-345.771-81.926-43.162-105.491,41.918-240.01,189.869-300.426,147.825-60.291,302.77-23.709,345.789,81.782C1529.526,384.157,1444.463,518.694,1296.495,579.111Z" transform="translate(-883.597 -128.676)" fill="#212020"/>
        <g id="Group_8119" data-name="Group 8119" transform="matrix(0.883, -0.469, 0.469, 0.883, 135.614, 213.564)">
          <g id="Group_6462" data-name="Group 6462">
            <path id="Path_13502" data-name="Path 13502" d="M144.155,265.718C64.677,265.718,0,206.11,0,132.86S64.677,0,144.155,0C223.7,0,288.384,59.609,288.384,132.86S223.7,265.718,144.155,265.718Zm0-248.526c-69.139,0-125.438,51.885-125.438,115.668,0,63.72,56.3,115.605,125.438,115.605,69.206,0,125.506-51.885,125.506-115.605C269.661,69.076,213.361,17.192,144.155,17.192Z" fill="#65ba93"/>
          </g>
          <g id="Group_6463" data-name="Group 6463" transform="translate(114.95 106.511)">
            <path id="Path_13503" data-name="Path 13503" d="M28.032,56A28,28,0,1,1,56,28.03,28.018,28.018,0,0,1,28.032,56Zm0-47.4A19.4,19.4,0,1,0,47.4,28.03,19.461,19.461,0,0,0,28.032,8.6Z" fill="#65ba93"/>
          </g>
          <g id="Group_6464" data-name="Group 6464" transform="translate(24.728 21.24)">
            <path id="Path_13504" data-name="Path 13504" d="M53.175,206.793l9.23-74.182L0,83.715,80.868,68.7,113.036,0l40.779,64.905,82.247,6.415L180.4,126.383l18.667,72.687L123.918,168.3ZM37.194,92.559l43.122,33.759-6.406,51.2,48.837-26.6,51.938,21.3-12.88-50.206,38.435-38.058L143.482,79.48,115.239,34.693,93.059,82.158Z" transform="translate(0)" fill="url(#radial-gradient)"/>
          </g>
        </g>
      </g>
      <g id="Group_8118" data-name="Group 8118" transform="matrix(0.883, -0.469, 0.469, 0.883, 932.182, 1694.353)">
        <g id="Group_6462-2" data-name="Group 6462">
          <path id="Path_13502-2" data-name="Path 13502" d="M165.437,304.946C74.226,304.946,0,236.538,0,152.474S74.226,0,165.437,0C256.73,0,330.958,68.409,330.958,152.474S256.73,304.946,165.437,304.946Zm0-285.216c-79.346,0-143.956,59.545-143.956,132.744,0,73.127,64.611,132.672,143.956,132.672,79.422,0,144.034-59.545,144.034-132.672C309.471,79.274,244.86,19.73,165.437,19.73Z" fill="#65ba93"/>
        </g>
        <g id="Group_6463-2" data-name="Group 6463" transform="translate(131.921 122.236)">
          <path id="Path_13503-2" data-name="Path 13503" d="M32.17,64.262a32.131,32.131,0,1,1,32.1-32.094A32.155,32.155,0,0,1,32.17,64.262Zm0-54.4A22.268,22.268,0,1,0,54.4,32.169,22.335,22.335,0,0,0,32.17,9.864Z" fill="#65ba93"/>
        </g>
        <g id="Group_6464-2" data-name="Group 6464" transform="translate(28.379 24.376)">
          <path id="Path_13504-2" data-name="Path 13504" d="M61.026,237.323l10.593-85.134L0,96.074,92.806,78.846,129.723,0l46.8,74.487,94.39,7.362-63.876,63.193,21.422,83.418-86.246-35.312Zm-18.34-131.1,49.489,38.743-7.351,58.758L140.869,173.2l59.606,24.45-14.781-57.618L229.8,96.359l-65.139-5.145-32.413-51.4L106.8,94.287Z" transform="translate(0)" fill="url(#radial-gradient)"/>
        </g>
      </g>
    </g>
    <path id="Path_14880" data-name="Path 14880" d="M156.193,124.032H27.43V411.191H-134.2V-373.242H157.271q139,0,214.426,61.957t75.426,175.1q0,80.275-34.75,133.882T307.046,83.087L476.755,403.648v7.543H303.274ZM27.43-6.886h130.38q60.88,0,94.283-30.979t33.4-85.393q0-55.492-31.517-87.279t-96.707-31.787H27.43Z" transform="translate(10537.177 5529.367)" fill="#060e26"/>
    <path id="Path_14879" data-name="Path 14879" d="M1.879,431.555H-167.753V78.72H-498.536V431.555H-668.168V-391.727h169.632v333.61h330.783v-333.61H1.879ZM319.656,141.484V431.555H150.024V-391.727h321.17q92.732,0,163.13,33.927t108.282,96.408q37.885,62.481,37.885,142.208,0,121-82.837,190.836T468.367,141.484Zm0-137.4H471.194q67.287,0,102.628-31.665t35.34-90.47q0-60.5-35.623-97.821t-98.387-38.45h-155.5ZM1392.3,74.762H1066.6V295.284h382.238V431.555H896.971V-391.727H1447.71v137.4H1066.6V-58.117H1392.3Zm460.834,55.413h-135.14v301.38H1548.359V-391.727h305.9q145.884,0,225.045,65.026t79.162,183.768q0,84.251-36.471,140.512T2011.454,87.2l178.114,336.437v7.916H2007.5Zm-135.14-137.4h136.837q63.895,0,98.952-32.513t35.057-89.622q0-58.24-33.078-91.6t-101.5-33.361H1717.991Z" transform="translate(13143.46 5572.053)" fill="#060e26"/>
    <path id="Path_14881" data-name="Path 14881" d="M-213.355,177.053q-29.612,0-63.173,9.649-37.226,10.7-64.019,29.365l-86.862,72.784q-47.662,39.224-80.376,39.224-18.9,0-30.177-16.57-8.46-13.844-8.46-35.448,0-18.878,13.819-47.614A161.186,161.186,0,0,1-518.926,203.8a227.84,227.84,0,0,1,16.5-21.5A11.192,11.192,0,0,1-495.1,178.1q3.949,0,3.948,3.776l-.846,2.307a139.5,139.5,0,0,0-10.154,16.361l-9.025,20.136q-7.05,20.346-7.05,32.092v7.761l1.409,5.663q.282,2.937,4.231,8.18,6.768,11.117,20.306,11.117,19.177,0,47.661-22.024l58.378-50.131q42.586-34.19,87.427-54.116l14.666-5.244q5.922-1.678,8.743-2.307l15.229-3.776q6.486-1.258,12.409-2.307,1.41-.21,13.255-1.888l11.563-1.049,9.588-.42Zm16.076,0h-16.358V142.234h16.358l20.87-.21,8.179-1.258q18.9-3.146,18.9-12.795,0-5.034-10.152-15.731l-23.126-21.814,1.128-7.761a80.981,80.981,0,0,1,3.667-14.683q4.794-18.039,7.051-20.975L-156.1,57.7a87.1,87.1,0,0,1,20.588,23.073,80.018,80.018,0,0,1,10.435,39.643q0,26.219-21.433,40.9-11,7.132-15.512,9.439a46.018,46.018,0,0,1-16.357,5.034l-5.358.839Zm36.944,46.565-.564,2.307-6.2,13.424q-3.1,6.712-7.05,9.439a6.19,6.19,0,0,1-3.384.629q-6.768,0-19.46-3.566-19.177-4.824-19.177-10.907,0-1.049,1.692-3.566l9.307-14.683q5.077-9.229,10.717-9.229l3.948.629,20.87,7.341Q-160.334,219.213-160.335,223.618Zm68.25-12.585-.564,2.307-6.2,13.424q-3.1,6.712-7.051,9.439a6.188,6.188,0,0,1-3.384.629q-6.769,0-19.46-3.566-19.177-4.824-19.177-10.907,0-1.049,1.692-3.566l9.307-14.683q5.076-9.229,10.716-9.229l3.948.629,20.87,7.341Q-92.085,206.628-92.085,211.033Zm-21.434,47.614-.564,2.307-6.2,13.424q-3.1,6.712-7.05,9.439a6.192,6.192,0,0,1-3.384.629q-6.769,0-19.46-3.566-19.178-4.824-19.177-10.907,0-1.049,1.692-3.566l9.306-14.683q5.077-9.229,10.717-9.229l3.948.629,20.87,7.341Q-113.519,254.242-113.519,258.646ZM139.455,119.581q0,15.731-8.884,31.253t-27.5,25.38l-9.588,1.468-10.154,2.727q-10.717,3.146-17.767,3.146-12.691,0-24.254-10.068a33.947,33.947,0,0,1-9.871-24.331q0-12.795,16.922-43.838t29.33-42.16q33,12.585,46.252,23.7Q139.455,100.284,139.455,119.581Zm-34.125,16.57q0-8.6-9.73-16.361t-24.395-9.649a41.436,41.436,0,0,0-9.589,10.278l-3.1,6.5-.564,5.034q0,3.566,11,8.39l5.358,1.468H79.1q10.718,0,15.793-1.049Q101.664,140.137,105.331,136.151ZM209.115,75.114l-2.82-24.96L200.09-.4l-.846-19.926L196.988-39.2v-2.937L198.68-49.9l1.974-4.824,3.666-7.761,2.82-5.873a64.625,64.625,0,0,1,4.513-7.551l6.769-8.39Q229.7-81.152,229.7-74.23l-1.692,5.244L239.573,122.1a49.693,49.693,0,0,1-1.975,14.473,62.3,62.3,0,0,1-7.05,16.361q-5.922,15.1-15.793,22.653l-.564-12.375-.846-16.78-.282-8.39-.282-8.18-1.692-24.751Zm379.039,68.8a33.035,33.035,0,0,1-3.244,14.368q-3.243,6.817-8.038,6.817a4.893,4.893,0,0,1-2.538-.419l-9.87-5.454-7.9-3.776q-14.1-6.083-32.432-6.083-47.1,0-93.068,36.707L360,254.451q-38.636,36.916-67.685,36.916-16.921,0-26.511-14.683-7.614-12.375-7.614-30.833,0-15.941,11.845-41.111,4.795-9.649,7.333-14.473.565-1.258,5.077-7.971,2.82-4.195,6.628-9.124t7.474-9.124q3.666-4.2,6.769-4.2a3.274,3.274,0,0,1,3.666,3.356l-.846,2.1q-7.9,11.327-16.639,30.624L284.7,211.452A63.7,63.7,0,0,0,283,225.3q0,12.166,4.794,19.087,5.923,9.649,17.768,9.649,17.486,0,42.022-19.087L396.1,189.009a549.269,549.269,0,0,1,68.814-55.165,181.435,181.435,0,0,1,29.33-14.473q27.356-11.117,43.713-11.117,16.076,0,33.138,10.068T588.154,143.912Zm977.208-69.428q0,5.663-3.384,19.926-4.23,17.829-9.871,22.653a26.579,26.579,0,0,1-13.255,8.18,56.683,56.683,0,0,1-17.767,2.517,82.132,82.132,0,0,1-21.152-2.622q-9.871-2.622-13.537-6.607a61.92,61.92,0,0,1-25.382,17.2q-5.923,1.888-18.19,3.356a238.513,238.513,0,0,1-28.062,1.468q0,3.776-.282,7.551a76.052,76.052,0,0,1-1.269,8.81q-.987,5.034-7.474,17.2-11.845,22.653-29.33,33.77-28.2,18.039-96.734,36.916A825.634,825.634,0,0,1,1155.3,268.5l-28.766,2.517-19.742,1.049-20.87.629-20.869.629h-17.485l-5.077-.42q-5.641,0-17.485-1.258a738.121,738.121,0,0,1-74.736-10.068q-15.793-2.727-31.164-6.083t-32.574-7.971q-22.279-5.663-48.508-18.458l-19.177-8.81-10.153-5.454q-4.794-2.517-5.641-2.937-2.256-1.259-6.2-3.776l-40.612-25.17-17.486-10.278q-9.589-6.083-9.588-9.858,0-1.888,2.256-2.727l5.923-.839a35.277,35.277,0,0,1,9.025,1.363,71.955,71.955,0,0,1,12.973,5.349,709.484,709.484,0,0,0,139.6,50.97A546.933,546.933,0,0,0,968.6,230.12l36.945,3.356q19.177,1.259,37.791,1.259h25.382l31.022-.21q16.076,0,37.791-1.888,52.174-5.034,97.862-12.585,47.662-8.18,84.889-20.346,10.434-3.356,11.845-3.776,9.307-3.146,16.358-6.083a197.451,197.451,0,0,0,22.844-10.068q23.408-11.536,25.946-20.765l.282-2.937a26.89,26.89,0,0,0-1.974-9.858,39.635,39.635,0,0,0-6.2-10.278l-19.46-26.429q0-4.615,2.538-13.949a94.094,94.094,0,0,1,6.768-17.724,4.374,4.374,0,0,1,3.666-1.888,12.574,12.574,0,0,1,5.922,1.888q5.64,4.4,13.255,17.409l4.794,9.649H1428.3q36.1,0,50.482-17.619l18.614-33.141q7.615-.629,10.153,4.2.564,3.566,1.41,4.4l-3.384,7.971-4.512,12.166a80.554,80.554,0,0,0,15.229,6.292l6.769,1.049,6.487.419h5.076a7.806,7.806,0,0,0,4.794-1.468l1.692-2.727q0-1.259-5.076-7.341l-2.538-4.4-1.128-4.2,4.512-9.019,8.743-17.2a31.068,31.068,0,0,1,14.524,11.536Q1565.362,63.577,1565.362,74.484Zm73.89.629-2.82-24.96-6.2-50.55-.846-19.926L1627.125-39.2v-2.937l1.692-7.761,1.974-4.824,3.667-7.761,2.82-5.873a64.568,64.568,0,0,1,4.512-7.551l6.769-8.39q11.281,3.146,11.281,10.068l-1.692,5.244L1669.71,122.1a49.693,49.693,0,0,1-1.974,14.473,62.3,62.3,0,0,1-7.05,16.361q-5.922,15.1-15.793,22.653l-.564-12.375-.846-16.78-.282-8.39-.282-8.18-1.692-24.751Zm563.481,176.611A203.751,203.751,0,0,1,2120.1,294.3q-34.97,9.019-88.555,9.019-63.737,0-98.708-6.293-53.584-9.649-84.043-36.707-19.46-17.619-19.46-28.526,0-16.99,26.228-38.8t65.147-36.5a570,570,0,0,1,138.755-16.99l47.662,2.727v34.819h-62.045q-71.07,0-115.348,12.375-29.895,8.18-52.174,23.492-19.742,13.634-19.741,22.024,0,12.375,45.688,15.522,16.358,1.258,81.5,1.258Zm45.688-74.672-44.56-16.151q-17.2-5.244-23.69-8.39-10.153,5.034-37.227,13.844-32.151,10.7-44,10.7V142.234q2.82,0,6.2-.1t8.178-.734l8.179-1.468a99.654,99.654,0,0,0,10.717-3.146q28.2-9.439,42.585-12.585L2162.122,69.24l-12.691-53.906-6.2-29.365-5.358-27.687q-3.1-3.566-6.487-15.312l-1.41-8.81.846-4.615,1.41-3.566,1.692-4.824q2.538-5.873,9.589-13.214a9.026,9.026,0,0,1,4.23-2.937l5.076,14.892q3.384,7.132,12.127,11.746,5.922,2.517,5.922,8.39a18.837,18.837,0,0,1-1.974,7.342l-5.358,9.858-5.64,9.229,7.615,32.092,7.051,28.107,8.743,40.482q5.076,28.316,9.871,36.5a43.819,43.819,0,0,0,8.743,13q3.384,3.566,15.229,10.7t33.279,14.892Zm272.152-70.477-.282,1.258-1.128,2.307-8.743,18.039q-1.692,3.146-6.486,4.51a50.612,50.612,0,0,1-13.255,1.363h-11l-8.743-.839-38.637-2.1q-18.9,0-58.943,12.375l-37.509,11.327-19.459,5.873-18.332,5.873-25.382,7.132q-7.615,1.678-13.819,2.517a106.122,106.122,0,0,1-14.1.839V142.234h9.871q11.563,0,16.64-1.049l17.2-3.146a527.219,527.219,0,0,0,54.994-12.585,291.209,291.209,0,0,0,29.613-10.068,295.558,295.558,0,0,1-32.715-6.293l-21.434-5.663q-8.179-1.888-11.563-1.888l-8.179.839q-2.538.419-5.076.944a68.593,68.593,0,0,0-7.9,2.412l-16.921,3.776-9.307,1.049-10.435.419q-6.2,0-6.2-2.727a6.555,6.555,0,0,1,1.41-3.985l8.461-16.361q5.64-10.488,11.281-15.1a139.478,139.478,0,0,1,19.177-8.39q12.409-3.985,19.741-3.985a83.361,83.361,0,0,1,32.151,6.293l29.895,11.956q22,8.18,71.916,17.619l18.9,3.146,24.818,3.566,16.357,1.678,15.229.629,3.666-.21Q2520.573,105.108,2520.573,106.576ZM2378.715,229.91l-.564,2.307-6.2,13.424q-3.1,6.712-7.051,9.439a6.19,6.19,0,0,1-3.384.629q-6.769,0-19.459-3.566-19.178-4.824-19.178-10.907,0-1.049,1.692-3.566l9.307-14.683q5.076-9.229,10.717-9.229l3.948.629,20.87,7.341Q2378.715,225.506,2378.715,229.91Zm68.25-12.585-.564,2.307-6.2,13.424q-3.1,6.712-7.051,9.439a6.189,6.189,0,0,1-3.384.629q-6.769,0-19.46-3.566-19.177-4.824-19.177-10.907,0-1.049,1.692-3.566l9.307-14.683q5.077-9.229,10.717-9.229l3.948.629,20.87,7.341Q2446.964,212.92,2446.964,217.325Zm-21.433,47.614-.564,2.307-6.2,13.424q-3.1,6.712-7.051,9.439a6.189,6.189,0,0,1-3.384.629q-6.769,0-19.46-3.566-19.177-4.824-19.177-10.907,0-1.049,1.692-3.566l9.307-14.683q5.076-9.229,10.717-9.229l3.948.629,20.87,7.341Q2425.531,260.534,2425.531,264.939Zm457.722-87.886h-12.691q-1.41,9.858-14.1,26.429a170.345,170.345,0,0,1-34.971,35.868q-25.1,19.507-51.328,25.8a618.373,618.373,0,0,1-71.916-9.753q-37.509-7.236-37.509-10.592,0-1.258,7.615-1.258l23.408.21,10.435.21,10.717.21q25.1,0,42.3-3.985,22.562-4.824,57.109-26.534t42.163-36.6h-8.461l-8.743.21q-25.382,0-38.073-5.034-18.613-7.551-18.613-29.156,0-10.488,13.537-30.414,15.229-21.185,31.3-23.282,8.461-1.049,24.818,15.522,17.486,17.619,23.69,37.336h9.306ZM2834.746,141.4q0-5.663-4.794-11.327Q2826,124.2,2817.542,124.2q-5.922,0-10.717,5.663l-1.974,5.873a45.651,45.651,0,0,0,11.845,5.034l12.409,1.468,3.384-.21Zm324.326-34.819-.282,1.258-1.128,2.307-8.743,18.039q-1.692,3.146-6.487,4.51a50.612,50.612,0,0,1-13.255,1.363h-11l-8.743-.839-38.637-2.1q-18.9,0-58.943,12.375l-37.509,11.327-19.46,5.873-18.332,5.873-25.382,7.132q-7.614,1.678-13.819,2.517a106.115,106.115,0,0,1-14.1.839V142.234h9.871q11.563,0,16.639-1.049l17.2-3.146a527.205,527.205,0,0,0,54.994-12.585,291.172,291.172,0,0,0,29.612-10.068,295.554,295.554,0,0,1-32.714-6.293l-21.434-5.663q-8.179-1.888-11.563-1.888l-8.179.839q-2.538.419-5.076.944a68.565,68.565,0,0,0-7.9,2.412l-16.921,3.776-9.307,1.049-10.435.419q-6.2,0-6.2-2.727a6.554,6.554,0,0,1,1.409-3.985l8.461-16.361q5.64-10.488,11.281-15.1a139.5,139.5,0,0,1,19.177-8.39q12.409-3.985,19.741-3.985a83.36,83.36,0,0,1,32.151,6.293l29.895,11.956q22,8.18,71.916,17.619l18.9,3.146,24.818,3.566,16.357,1.678,15.229.629,3.666-.21Q3159.072,105.108,3159.071,106.576ZM3068.26,229.91l-.564,2.307-6.2,13.424q-3.1,6.712-7.05,9.439a6.192,6.192,0,0,1-3.385.629q-6.768,0-19.459-3.566-19.177-4.824-19.177-10.907,0-1.049,1.692-3.566l9.306-14.683q5.077-9.229,10.717-9.229l3.949.629,20.869,7.341Q3068.26,225.506,3068.26,229.91Zm417.394-52.857h-3.384l-5.641-.42a24.223,24.223,0,0,1-7.615-2.517l-10.153,20.136q-5.076,11.117-8.743,11.956-36.945-7.551-48.508-41.531-4.23-14.053-16.639-14.053h-6.486l-7.051-.21a114.289,114.289,0,0,0-17.626,1.259,31.889,31.889,0,0,0-13.678,5.244q-19.177,14.263-19.177,32.931l1.128,14.683.846,10.068,2.821,14.473,8.742,50.97,5.077,28.526q0,4.4,2.82,19.926l1.41,13.634v16.151q0,10.907-1.974,17.619,0,1.888-2.82,2.1a7.9,7.9,0,0,1-4.794-1.678,21.42,21.42,0,0,1-5.076-6.922,36.687,36.687,0,0,1-4.23-12.166q-6.769-50.131-12.127-65.862l-5.077-19.3-1.974-13-.846-12.585a112.291,112.291,0,0,0-.564-11.536q-.564-5.454-2.257-14.473l-2.82-21.185a93.5,93.5,0,0,1,.564-11.117,62.707,62.707,0,0,1,2.4-10.592q1.833-5.978,3.243-10.383t3.948-10.278a105.4,105.4,0,0,1,7.051-13.844,44.34,44.34,0,0,1,13.254-13.634q3.948-2.937,13.819-6.083l26.792-5.663a84.153,84.153,0,0,1,9.025-1.259q4.8-.419,11.281-.419h5.077a28.253,28.253,0,0,1,5.922.419,9.04,9.04,0,0,0,3.667-3.356l4.512-5.663,2.538-2.1,1.692,1.049,1.975,1.888a99.411,99.411,0,0,0,38.356,27.058l15.228,5.244q3.948.839,7.615,1.259a75.292,75.292,0,0,0,8.46.419Zm173.162-40.272q-1.411,8.81-9.871,15.522l-10.154,10.488a19.348,19.348,0,0,1-8.742,3.146l-14.383.839-9.589-.629-12.127-2.1-26.228-5.034-14.665-4.615-15.511,8.39-14.1,5.873q-15.512,5.244-23.126,6.922l-7.615,1.049-7.05.42V142.234a119.658,119.658,0,0,0,18.05-1.888q11.563-1.888,16.639-4.824-.846-2.727-6.768-11.746l-2.82-5.663-.846-5.034a8.969,8.969,0,0,1,1.693-5.034l5.922-8.81,6.769-6.922,6.769-7.971,3.949-6.083q-3.949-2.307-3.949-11.327l2.538-9.439a27.269,27.269,0,0,1,6.2-9.019q7.333-8.81,15.793-8.81,11.281,1.049,27.356,9.858a99.367,99.367,0,0,1,17.767,11.536q6.486,5.244,16.358,14.683L3630.895,89.8l7.9,8.39,6.487,7.132a75.913,75.913,0,0,1,10.294,16.675A37.836,37.836,0,0,1,3658.816,136.781ZM3634,142.024q.846-7.341-18.049-24.751l-9.306-8.39-5.641-4.2a68.24,68.24,0,0,0-12.972-8.81l-.282,4.615-.282,4.2-.281,3.356a11.936,11.936,0,0,1-.565,4.4,27.639,27.639,0,0,1-1.833,7.656,88.707,88.707,0,0,1-6.063,13.109l32.151,7.761q5.64,1.258,9.73,1.993a69.3,69.3,0,0,0,6.91.944Q3633.433,143.912,3634,142.024Zm-63.454-31.463a21.068,21.068,0,0,0-6.769-16.151,18.221,18.221,0,0,0-8.743-4.2,16.3,16.3,0,0,0-7.615,2.937l-9.024,5.873q-11.28,7.971-13.255,16.151l.846,4.824,7.615,2.727,5.358,1.678,5.922.839,8.742.629q8.179-3.566,11.7-6.5T3570.543,110.562Z" transform="translate(11674.21 6189.437)" fill="#65ba93"/>
  </g>
</svg>
