<svg width="33" height="33" viewBox="0 0 33 33" fill="none" xmlns="http://www.w3.org/2000/svg">
<path d="M16.4446 0C7.36258 0 0 7.36313 0 16.4448C0 25.5264 7.36258 32.8902 16.4446 32.8902C25.5265 32.8902 32.89 25.5269 32.89 16.4448C32.89 7.36269 25.5265 0 16.4446 0ZM16.4449 25.5394C15.2646 25.5394 14.3071 24.5828 14.3071 23.4016H18.5823C18.5825 24.5828 17.6252 25.5394 16.4449 25.5394ZM23.6687 21.258H23.6681V21.2579C23.6681 22.0484 23.0275 22.1005 22.2376 22.1005H10.6519C9.86169 22.1005 9.22165 22.0484 9.22165 21.2579V21.1218C9.22165 20.5533 9.55548 20.0665 10.0351 19.8356L10.4892 15.9159C10.4892 13.0463 12.5186 10.6513 15.2202 10.0862V8.5645C15.2202 7.88806 15.7687 7.33956 16.4454 7.33956C17.1219 7.33956 17.6704 7.88806 17.6704 8.5645V10.0863C20.372 10.6513 22.4013 13.0461 22.4013 15.916L22.8554 19.8363C23.3351 20.0675 23.6687 20.5534 23.6687 21.1219V21.258Z" fill="#4CE5B1"/>
</svg>
