<svg width="32" height="32" viewBox="0 0 32 32" fill="none" xmlns="http://www.w3.org/2000/svg">
<mask id="mask0_466_3747" style="mask-type:alpha" maskUnits="userSpaceOnUse" x="0" y="0" width="32" height="32">
<circle cx="15.8228" cy="15.8228" r="15.8228" fill="#4CE5B1"/>
</mask>
<g mask="url(#mask0_466_3747)">
<path d="M20.7714 16.3562C20.7714 18.7619 18.8211 20.712 16.4155 20.712C14.0099 20.712 12.0594 18.7619 12.0594 16.3562C12.0594 13.9504 14.0097 12.0003 16.4153 12.0003C18.8209 12.0003 20.7714 13.9504 20.7714 16.3562ZM32.89 28.564C32.89 30.9533 30.9532 32.89 28.564 32.89H4.14822C1.75898 32.89 -0.177795 30.9533 -0.177795 28.564V4.14828C-0.177795 1.75904 1.75898 -0.177734 4.14822 -0.177734H28.5638C30.9532 -0.177734 32.89 1.75904 32.89 4.14828V28.564ZM27.0231 15.6996C27.0231 15.2493 26.7212 14.8663 26.2761 14.7979L23.988 14.4439C23.7999 13.6956 23.5106 12.9902 23.1245 12.345L24.5053 10.4667C24.7717 10.1037 24.7349 9.60055 24.4165 9.28214L23.4888 8.35357C23.1704 8.03516 22.6678 7.99676 22.3046 8.2629L20.4265 9.64037C19.7811 9.25405 19.076 8.95822 18.3275 8.77012L17.9736 6.46587C17.9051 6.0207 17.5222 5.68913 17.0719 5.68913H15.7587C15.3084 5.68913 14.9255 6.0207 14.857 6.46569L14.5031 8.76852C13.7548 8.95662 13.0493 9.25334 12.4041 9.63948L10.5259 8.26237C10.1628 7.99605 9.65969 8.03481 9.34128 8.35304L8.41271 9.28161C8.0943 9.60002 8.0559 10.1031 8.32205 10.4664L9.69951 12.3446C9.31319 12.99 9.01736 13.6953 8.82926 14.4436L6.49532 14.7975C6.05032 14.8663 5.68907 15.2493 5.68907 15.6996V17.0127C5.68907 17.463 6.05032 17.846 6.49532 17.9144L8.81291 18.2684C9.001 19.0167 9.30501 19.7221 9.69134 20.3673L8.31796 22.2456C8.05164 22.6086 8.09217 23.1118 8.41058 23.4302L9.34003 24.3587C9.65845 24.6771 10.1621 24.7155 10.5251 24.4492L12.4038 23.0718C13.0491 23.4581 13.7546 23.7539 14.5029 23.942L14.857 26.2463C14.9255 26.6913 15.3086 27.0228 15.7587 27.0228H17.0719C17.5222 27.0228 17.9051 26.6913 17.9736 26.2463L18.3275 23.9434C19.0758 23.7553 19.7813 23.4588 20.4265 23.0725L22.3047 24.4496C22.6678 24.7159 23.1709 24.6771 23.4893 24.3589L24.4179 23.4303C24.7363 23.1119 24.7747 22.6088 24.5085 22.2456L23.1311 20.3671C23.5174 19.722 23.8132 19.0165 24.0013 18.2682L26.2761 17.9143C26.7211 17.8458 27.0231 17.4629 27.0231 17.0125V15.6996Z" fill="#4CE5B1"/>
</g>
</svg>
