<svg width="40" height="40" viewBox="0 0 40 40" fill="none" xmlns="http://www.w3.org/2000/svg">
<path fill-rule="evenodd" clip-rule="evenodd" d="M20 40C31.0457 40 40 31.0457 40 20C40 8.9543 31.0457 0 20 0C8.9543 0 0 8.9543 0 20C0 31.0457 8.9543 40 20 40Z" fill="#C90D0D"/>
<path d="M21.0703 20.0001L25.9216 15.1491C26.026 15.0446 26.026 14.8752 25.9216 14.7706L25.2297 14.0784C25.1795 14.0283 25.1112 14 25.0403 14C24.9693 14 24.9011 14.0283 24.8509 14.0784L19.9999 18.9295L15.1488 14.0784C15.0483 13.9779 14.8704 13.978 14.7702 14.0784L14.0784 14.7706C13.9739 14.8752 13.9739 15.0446 14.0784 15.1491L18.9295 20.0001L14.0784 24.851C13.9739 24.9556 13.9739 25.125 14.0784 25.2295L14.7703 25.9218C14.8205 25.9718 14.8886 26.0002 14.9597 26.0002C15.0307 26.0002 15.0987 25.9718 15.1489 25.9218L20 21.0707L24.8511 25.9218C24.9013 25.9718 24.9695 26.0002 25.0404 26.0002C25.1114 26.0002 25.1796 25.9718 25.2298 25.9218L25.9217 25.2295C26.0261 25.125 26.0261 24.9556 25.9217 24.851L21.0703 20.0001Z" fill="white"/>
</svg>
