<svg width="50" height="24" viewBox="0 0 50 24" fill="none" xmlns="http://www.w3.org/2000/svg">
<path d="M49.1083 10.5209C49.0383 9.67693 48.9598 8.72183 48.8065 7.89765C48.7 7.32123 48.4659 6.55366 47.6745 6.55366C47.5952 6.55366 47.5158 6.56147 47.4374 6.56958C47.3884 6.57423 47.3395 6.58084 47.2593 6.58234C47.2577 6.58234 47.232 6.55741 47.1994 6.46267C46.967 5.79705 45.992 4.96913 44.7419 3.95651C44.4339 3.70801 44.0653 3.40877 43.9083 3.25441C43.9659 2.85561 43.9574 2.36582 43.6797 2.02828C43.5508 1.87078 43.3081 1.68264 42.8898 1.68264C42.8284 1.68264 42.7631 1.68639 42.6177 1.69931C42.3159 1.69931 41.7111 1.57528 40.8737 1.40216C38.7146 0.959065 34.6956 0.13339 28.6694 0.00350976C19.8949 -0.170214 12.9998 6.16177 12.7156 6.42843L12.5123 6.61732C12.152 6.7915 11.014 7.20786 7.53559 7.89165C2.60195 8.86312 1.66081 10.4349 1.48303 11.0427C1.08919 11.3367 0.451351 12.0379 0.3503 12.8628C0.269069 13.5206 0.0851351 13.7897 0.0851351 13.7889L0 13.8987V18.5419L0.00960961 18.6266C0.277027 19.8597 1.55496 20.5121 3.70511 20.5121C4.39084 20.5121 4.90526 20.4421 4.88529 20.4421C4.91517 20.4404 5.18033 20.4359 5.63979 20.4265C5.59279 20.2966 5.55 20.1652 5.51306 20.0307C5.47733 19.901 5.44459 19.7703 5.41937 19.6365C5.35871 19.3215 5.32462 18.9974 5.32462 18.6646C5.32462 15.8112 7.6461 13.4895 10.4995 13.4895C13.353 13.4895 15.6746 15.8112 15.6746 18.6646C15.6746 18.9227 15.6494 19.173 15.6132 19.4211C15.5934 19.5556 15.5704 19.6892 15.5401 19.8199C15.509 19.9552 15.4764 20.0889 15.4351 20.2203C21.8973 20.0819 30.1201 19.8992 36.4886 19.7391C36.4605 19.6085 36.4426 19.4762 36.4248 19.3424C36.4069 19.2103 36.3967 19.0781 36.3898 18.9445C36.3851 18.8511 36.3758 18.7595 36.3758 18.6646C36.3758 15.8112 38.6974 13.4895 41.5508 13.4895C44.3638 13.4895 46.6559 15.7474 46.7197 18.5465C46.7197 18.5853 46.7258 18.6248 46.7258 18.6646C46.7258 18.7649 46.7165 18.8628 46.7102 18.9624C46.7024 19.1038 46.6884 19.2445 46.6698 19.3829C47.8857 19.1823 48.8001 18.5416 49.3296 17.5053C50.2353 15.7334 49.7736 13.3341 49.4485 12.8247C49.273 12.549 49.1859 11.4714 49.1083 10.5209Z" fill="white"/>
<path d="M6.48316 20.4079C7.15764 21.9582 8.70058 23.0427 10.4989 23.0427C12.3618 23.0427 13.9486 21.8772 14.5815 20.2383C14.6317 20.1077 14.6764 19.9739 14.7145 19.8371C14.751 19.7065 14.7814 19.5727 14.8063 19.4374C14.8506 19.1864 14.8785 18.9281 14.8785 18.664C14.8785 16.2452 12.9184 14.285 10.4997 14.285C8.08091 14.285 6.12085 16.2452 6.12085 18.664C6.12085 18.9921 6.15974 19.3115 6.22851 19.6194C6.25764 19.7532 6.29262 19.8846 6.33496 20.0128C6.37821 20.1482 6.42761 20.2787 6.48316 20.4079Z" fill="white"/>
<path d="M37.3027 19.7175C37.7753 21.6255 39.4953 23.0427 41.5494 23.0427C43.6968 23.0427 45.4797 21.4948 45.8528 19.4553C45.8768 19.3232 45.8955 19.1902 45.9087 19.0541C45.9204 18.9252 45.9282 18.796 45.9282 18.6639C45.9282 18.6607 45.9282 18.6576 45.9282 18.6537C45.9235 16.2405 43.9642 14.2849 41.5494 14.2849C39.1313 14.2849 37.1705 16.2451 37.1705 18.6639C37.1705 18.7517 37.1791 18.8372 37.1837 18.9243C37.1916 19.0588 37.2048 19.1908 37.2249 19.3215C37.2452 19.4555 37.2716 19.5876 37.3027 19.7175Z" fill="white"/>
</svg>
