<svg width="50" height="23" viewBox="0 0 50 23" fill="none" xmlns="http://www.w3.org/2000/svg">
<path d="M39.4121 17.7332C39.4121 17.9127 39.4266 18.0882 39.4491 18.2627C39.7096 20.3372 41.4771 21.9432 43.6226 21.9432C45.8261 21.9432 47.6321 20.2487 47.8146 18.0932C47.8246 17.9742 47.8331 17.8542 47.8331 17.7332C47.8331 15.4082 45.9476 13.5227 43.6226 13.5227C41.2971 13.5232 39.4121 15.4082 39.4121 17.7332Z" fill="white"/>
<path d="M5 18.2105C5 18.39 5.015 18.5655 5.037 18.74C5.2975 20.8145 7.065 22.4205 9.2105 22.4205C11.4145 22.4205 13.2205 20.726 13.403 18.5705C13.4135 18.4515 13.4215 18.3315 13.4215 18.2105C13.4215 15.8855 11.5365 14 9.211 14C6.8855 14 5 15.8855 5 18.2105Z" fill="white"/>
<path fill-rule="evenodd" clip-rule="evenodd" d="M0.304595 18.7023L3.67959 18.6498C3.67439 18.6189 3.66867 18.5882 3.66294 18.5574L3.66293 18.5573C3.6527 18.5024 3.64246 18.4473 3.6351 18.3913C3.6046 18.1528 3.5901 17.9388 3.5901 17.7343C3.5901 14.8558 5.93159 12.5148 8.8096 12.5148C11.6886 12.5148 14.0301 14.8568 14.0301 17.7343C14.0301 17.8843 14.0206 18.0313 14.0086 18.1798C14.0017 18.2602 13.9897 18.3392 13.9777 18.4183L13.9777 18.4183L13.9671 18.4893L38.4186 18.1053C38.4081 17.9773 38.4021 17.8533 38.4021 17.7348C38.4021 14.8563 40.7436 12.5153 43.6221 12.5153C46.2441 12.5153 48.4156 14.4608 48.7816 16.9833C49.0731 16.3438 49.3546 15.4678 49.2451 14.6113C49.1234 13.6625 48.5909 12.7299 48.1509 11.9593C47.8354 11.4067 47.5675 10.9375 47.5326 10.6053C47.4974 10.2704 47.5392 9.96082 47.5837 9.63045C47.645 9.17597 47.7116 8.68218 47.5906 8.02927C47.3816 6.90177 45.4236 3.18027 43.4401 1.91727C41.9991 0.999774 40.9611 0.375274 36.5846 0.124274C30.4191 -0.229226 26.1876 0.173774 22.4721 1.30327C20.2631 1.97527 12.7016 5.90927 10.4091 7.17877C8.23929 8.3804 7.10335 8.76995 5.7769 9.22484L5.77683 9.22486C5.44417 9.33894 5.09953 9.45713 4.7236 9.59327C2.5571 10.3778 1.18059 12.0993 0.637595 13.4003C0.094595 14.7013 -0.300905 16.3218 0.304595 18.7023ZM34.9871 7.14727L34.3391 1.64827C37.9286 1.71127 41.6536 1.99377 41.9806 3.25177C42.1746 3.99727 41.1931 5.77677 40.0176 6.30027C39.1096 6.70477 37.7011 6.85777 34.9871 7.14727ZM17.8796 5.13527L17.4696 6.33477C17.4696 6.33477 18.2271 7.28177 17.6276 8.51327C17.6276 8.51327 25.0786 8.05427 31.3911 7.49377L32.0826 1.62977H31.2316C25.2116 1.62977 22.7351 2.52777 17.8796 5.13527Z" fill="white"/>
</svg>
