<svg width="36" height="36" viewBox="0 0 36 36" fill="none" xmlns="http://www.w3.org/2000/svg">
<rect width="36" height="36" rx="6" fill="#4CE5B1"/>
<path d="M18 8C12.486 8 8 12.486 8 18C8 23.514 12.486 28 18 28C23.514 28 28 23.514 28 18C28 12.486 23.514 8 18 8ZM18 25.8722C13.6593 25.8722 10.1276 22.3409 10.1276 18C10.1276 13.6591 13.6593 10.1278 18 10.1278C22.3407 10.1278 25.8724 13.6591 25.8724 18C25.8724 22.3409 22.3407 25.8722 18 25.8722Z" fill="white"/>
<path d="M23.2116 17.6913H18.7176V12.2878C18.7176 11.8331 18.3489 11.4644 17.8942 11.4644C17.4395 11.4644 17.0708 11.8331 17.0708 12.2878V18.5146C17.0708 18.9694 17.4395 19.338 17.8942 19.338H23.2116C23.6663 19.338 24.035 18.9694 24.035 18.5146C24.035 18.0599 23.6663 17.6913 23.2116 17.6913Z" fill="white"/>
</svg>
