<svg width="96" height="96" viewBox="0 0 96 96" fill="none" xmlns="http://www.w3.org/2000/svg">
<path fill-rule="evenodd" clip-rule="evenodd" d="M48 96C74.5097 96 96 74.5097 96 48C96 21.4903 74.5097 0 48 0C21.4903 0 0 21.4903 0 48C0 74.5097 21.4903 96 48 96ZM78.0921 34.6271L42.4421 70.0967C41.2313 71.3011 39.2687 71.3011 38.0579 70.0965L17.9079 50.0485C16.6974 48.844 16.6974 46.8911 17.9079 45.6867L22.2919 41.3249C23.5026 40.1204 25.4655 40.1204 26.6761 41.3249L40.25 54.8301L69.3239 25.9035C70.5347 24.6988 72.4976 24.6988 73.7081 25.9035L78.0921 30.2653C79.3026 31.4697 79.3026 33.4226 78.0921 34.6271Z" fill="#4CE5B1"/>
</svg>
