<svg width="41" height="41" viewBox="0 0 41 41" fill="none" xmlns="http://www.w3.org/2000/svg">
<g clip-path="url(#clip0_477_5557)">
<path d="M30.729 1H3V39.8421H30.729V1Z" fill="#F4A026"/>
<path d="M37.6014 1.07898H31.1277V7.98428H37.6014V1.07898Z" fill="#EFEFEF"/>
<path d="M37.6014 7.98419H31.1277V14.8895H37.6014V7.98419Z" fill="#CA463D"/>
<path d="M37.6014 14.8895H31.1277V21.6868H37.6014V14.8895Z" fill="#EFEFEF"/>
<path d="M37.6014 21.6868H31.1277V28.5921H37.6014V21.6868Z" fill="#CA463D"/>
<path d="M23.521 18.45H19.4749V14.296C19.4749 13.1042 18.5089 12.1382 17.3171 12.1382C16.1253 12.1382 15.1592 13.1042 15.1592 14.296V18.45H11.1132C9.92138 18.45 8.95532 19.4161 8.95532 20.6079C8.95532 21.7997 9.92138 22.7658 11.1132 22.7658H15.1592V26.7039C15.1592 27.8957 16.1253 28.8618 17.3171 28.8618C18.5089 28.8618 19.4749 27.8957 19.4749 26.7039V22.7658H23.521C24.7128 22.7658 25.6788 21.7997 25.6788 20.6079C25.6789 19.4161 24.7128 18.45 23.521 18.45Z" fill="#EFEFEF"/>
<path d="M37.6553 0H31.1817H3.45269C2.85675 0 2.31982 0.483191 2.31982 1.07897V39.9211C2.31982 40.5169 2.85683 41.0001 3.45269 41.0001H31.1817C31.7776 41.0001 32.2067 40.517 32.2067 39.9211V29.6711H37.6553C38.2513 29.6711 38.6803 29.1879 38.6803 28.5921V1.07897C38.6803 0.483191 38.2512 0 37.6553 0ZM36.5224 13.8105H32.2066V9.06316H36.5224V13.8105ZM32.2066 15.9685H36.5224V20.6079H32.2066V15.9685ZM36.5224 6.9053H32.2066V2.15787H36.5224V6.9053ZM30.0487 38.8421H4.47769V2.15787H30.0487V38.8421ZM36.5224 27.5132H32.2066V22.7658H36.5224V27.5132Z" fill="#F4502A"/>
<path d="M23.521 17.371H20.5539V14.296C20.5539 12.5113 19.1018 11.0592 17.317 11.0592C15.5322 11.0592 14.0802 12.5113 14.0802 14.296V17.371H11.1131C9.32828 17.371 7.87622 18.8231 7.87622 20.6079C7.87622 22.3927 9.32828 23.8447 11.1131 23.8447H14.0802V26.7039C14.0802 28.4887 15.5322 29.9407 17.317 29.9407C19.1018 29.9407 20.5539 28.4887 20.5539 26.7039V23.8447H23.521C25.3058 23.8447 26.7578 22.3927 26.7578 20.6079C26.7578 18.8231 25.3058 17.371 23.521 17.371ZM23.521 21.6869H19.5289C18.933 21.6869 18.396 22.17 18.396 22.7658V26.704C18.396 27.2989 17.912 27.783 17.317 27.783C16.7221 27.783 16.2381 27.299 16.2381 26.704V22.7658C16.2381 22.17 15.809 21.6869 15.2131 21.6869H11.1131C10.5182 21.6869 10.0341 21.2029 10.0341 20.6079C10.0341 20.013 10.5181 19.5289 11.1131 19.5289H15.2131C15.809 19.5289 16.2381 19.0457 16.2381 18.4499V14.296C16.2381 13.7011 16.7221 13.217 17.317 13.217C17.912 13.217 18.396 13.701 18.396 14.296V18.45C18.396 19.0458 18.933 19.529 19.5289 19.529H23.521C24.1159 19.529 24.6 20.013 24.6 20.608C24.6 21.2029 24.116 21.6869 23.521 21.6869Z" fill="#898989"/>
</g>
<defs>
<clipPath id="clip0_477_5557">
<rect width="41" height="41" fill="white"/>
</clipPath>
</defs>
</svg>
