<svg width="45" height="45" viewBox="0 0 45 45" fill="none" xmlns="http://www.w3.org/2000/svg">
<path d="M41.4186 2.97909H3.5502C1.59256 2.97909 0 4.55945 0 6.50209V44.2682C0 44.6573 0.317786 44.9728 0.710058 44.9728H44.2587C44.6509 44.9728 44.9687 44.6574 44.9687 44.2682V6.502C44.9687 4.55945 43.3762 2.97909 41.4186 2.97909Z" fill="#E1E1E1"/>
<path d="M45 6.52921C45 4.58656 43.4074 3.00621 41.4499 3.00621H3.58147C1.62383 3.00621 0.0312674 4.58656 0.0312674 6.52921V9.06573H44.9999L45 6.52921Z" fill="#EB6836"/>
<path d="M3.58147 3.00621C1.62383 3.00621 0.0312674 4.58656 0.0312674 6.52921V44.2954C0.0312674 44.6845 0.349053 45 0.741326 45H25.3996L5.12851 3.00629L3.58147 3.00621Z" fill="#CBCBCB"/>
<path d="M3.58147 3.00621C1.62383 3.00621 0.0312674 4.58656 0.0312674 6.52921V9.06573L8.0535 9.06581L5.12851 3.00629L3.58147 3.00621Z" fill="#C74B38"/>
<path d="M22.5157 7.04591C22.1235 7.04591 21.8056 6.73048 21.8056 6.3413V0.704618C21.8056 0.315439 22.1235 0 22.5157 0C22.9079 0 23.2257 0.315439 23.2257 0.704618V6.3413C23.2257 6.73048 22.9079 7.04591 22.5157 7.04591Z" fill="#F7D04A"/>
<path d="M17.2141 7.04591C16.8219 7.04591 16.5041 6.73048 16.5041 6.3413V0.704618C16.5041 0.315527 16.8218 0 17.2141 0C17.6064 0 17.9242 0.315439 17.9242 0.704618V6.3413C17.9242 6.73048 17.6063 7.04591 17.2141 7.04591Z" fill="#F7D04A"/>
<path d="M11.9125 7.04591C11.5204 7.04591 11.2025 6.73048 11.2025 6.3413V0.704618C11.2025 0.315527 11.5203 0 11.9125 0C12.3047 0 12.6226 0.315439 12.6226 0.704618V6.3413C12.6226 6.73048 12.3047 7.04591 11.9125 7.04591Z" fill="#F7D04A"/>
<path d="M6.61098 7.04591C6.21879 7.04591 5.90092 6.73048 5.90092 6.3413V0.704618C5.90092 0.315439 6.2187 0 6.61098 0C7.00325 0 7.32103 0.315439 7.32103 0.704618V6.3413C7.32103 6.73048 7.00316 7.04591 6.61098 7.04591Z" fill="#F7D04A"/>
<path d="M27.8172 7.04591C27.4251 7.04591 27.1072 6.73048 27.1072 6.3413V0.704618C27.1072 0.315527 27.425 0 27.8172 0C28.2094 0 28.5273 0.315439 28.5273 0.704618V6.3413C28.5273 6.73048 28.2094 7.04591 27.8172 7.04591Z" fill="#F7D04A"/>
<path d="M33.1188 7.04591C32.7266 7.04591 32.4088 6.73048 32.4088 6.3413V0.704618C32.4088 0.315527 32.7265 0 33.1188 0C33.511 0 33.8289 0.315439 33.8289 0.704618V6.3413C33.8289 6.73048 33.5111 7.04591 33.1188 7.04591Z" fill="#F7D04A"/>
<path d="M38.4204 7.04591C38.0282 7.04591 37.7103 6.73048 37.7103 6.3413V0.704618C37.7103 0.315527 38.0281 0 38.4204 0C38.8127 0 39.1304 0.315439 39.1304 0.704618V6.3413C39.1304 6.73048 38.8127 7.04591 38.4204 7.04591Z" fill="#F7D04A"/>
<path d="M38.7991 21.3257H6.23225C5.84007 21.3257 5.5222 21.0102 5.5222 20.621C5.5222 20.2319 5.83998 19.9164 6.23225 19.9164H38.7991C39.1913 19.9164 39.5092 20.2319 39.5092 20.621C39.5092 21.0102 39.1913 21.3257 38.7991 21.3257Z" fill="#808080"/>
<path d="M20.8116 12.7766H14.1846C13.7924 12.7766 13.4745 13.0921 13.4745 13.4813V17.2391C13.4745 17.6282 13.7923 17.9437 14.1846 17.9437H16.0547L16.9838 19.4806C17.2547 19.9284 17.9307 19.9285 18.2016 19.4806L19.1307 17.9437H20.8115C21.2037 17.9437 21.5216 17.6283 21.5216 17.2391V13.4813C21.5217 13.0921 21.2038 12.7766 20.8116 12.7766Z" fill="#62C9CC"/>
<path d="M38.7991 31.2526H6.23225C5.84007 31.2526 5.5222 30.9372 5.5222 30.548C5.5222 30.1589 5.83998 29.8434 6.23225 29.8434H38.7991C39.1913 29.8434 39.5092 30.1588 39.5092 30.548C39.5091 30.9371 39.1913 31.2526 38.7991 31.2526Z" fill="#808080"/>
<path d="M31.4147 22.7348H24.7877C24.3956 22.7348 24.0777 23.0502 24.0777 23.4394V27.1973C24.0777 27.5864 24.3955 27.9019 24.7877 27.9019H26.6579L27.587 29.4387C27.8578 29.8865 28.5339 29.8866 28.8047 29.4387L29.7339 27.9019H31.4147C31.8068 27.9019 32.1247 27.5864 32.1247 27.1973V23.4394C32.1248 23.0503 31.8069 22.7348 31.4147 22.7348Z" fill="#F7D04A"/>
<path d="M38.7991 41.2421H6.23225C5.84007 41.2421 5.5222 40.9266 5.5222 40.5375C5.5222 40.1483 5.83998 39.8328 6.23225 39.8328H38.7991C39.1913 39.8328 39.5092 40.1483 39.5092 40.5375C39.5092 40.9266 39.1913 41.2421 38.7991 41.2421Z" fill="#808080"/>
<path d="M15.1313 32.6931H8.50441C8.11222 32.6931 7.79435 33.0085 7.79435 33.3977V37.1555C7.79435 37.5446 8.11213 37.8601 8.50441 37.8601H10.3745L11.3036 39.397C11.5745 39.8448 12.2505 39.8449 12.5214 39.397L13.4505 37.8601H15.1313C15.5235 37.8601 15.8414 37.5447 15.8414 37.1555V33.3977C15.8414 33.0085 15.5236 32.6931 15.1313 32.6931Z" fill="#EB6836"/>
</svg>
