<svg width="24" height="23" viewBox="0 0 24 23" fill="none" xmlns="http://www.w3.org/2000/svg">
<path d="M1.18093 18.5968C3.56514 17.3419 5.38826 16.6457 7.00752 16.3707L6.8315 16.1284C6.76235 16.0334 6.73851 15.9122 6.76752 15.7982L7.13628 14.3231C6.14762 12.9291 5.56307 11.1879 5.56307 9.53682V7.08625L5.55832 7.08266C5.23208 6.80927 4.99846 6.45206 4.87328 6.05624L5.27981 5.94537L7.36362 5.5794C10.4313 5.02708 13.4962 5.02708 16.4757 5.57861L18.5976 5.95333L18.9715 6.0467C18.8472 6.44647 18.6127 6.80685 18.2841 7.08262C18.2825 7.0842 18.2805 7.08499 18.2789 7.08658V9.53682C18.2789 11.1879 17.6944 12.9291 16.7061 14.3231L17.0749 15.7982C17.1035 15.9122 17.0801 16.0334 17.0109 16.1284L16.8345 16.3707C18.4537 16.6457 20.2769 17.3419 22.6615 18.5968C23.3898 18.9803 23.842 19.7301 23.842 20.5535V22.2527C23.842 22.472 23.6644 22.65 23.4447 22.65H0.39735C0.178022 22.65 3.76804e-09 22.472 3.76804e-09 22.2527V20.5535C-4.76799e-05 19.7301 0.452532 18.9803 1.18093 18.5968ZM13.5939 19.4754L16.259 15.8109L16.0806 15.098C16.0791 15.1 16.0775 15.1012 16.0759 15.1028C15.1158 16.1463 13.8951 16.8814 12.5187 17.0487L12.5159 17.0491L13.5939 19.4754ZM15.148 14.9029C15.2478 14.8095 15.3483 14.7189 15.444 14.6168L15.4472 14.614C15.5926 14.459 15.7341 14.2941 15.8708 14.1197C15.8827 14.1042 15.9006 14.0954 15.9149 14.0824C16.8511 12.901 17.4841 11.3262 17.4841 9.53686V7.5115C17.4746 7.51429 17.4647 7.51587 17.4547 7.51825C17.4186 7.52859 17.3812 7.53571 17.3446 7.54409C17.3013 7.55364 17.2584 7.56435 17.2147 7.5711C17.1754 7.57743 17.1357 7.58023 17.0959 7.58461C17.0546 7.58898 17.0137 7.59494 16.972 7.59694C16.9203 7.59932 16.8683 7.59736 16.8166 7.59615C16.7864 7.59573 16.7562 7.59736 16.726 7.59536C16.6426 7.59019 16.5591 7.58065 16.4757 7.56556C13.4962 7.01402 10.4313 7.01402 7.36362 7.56635C7.2472 7.58703 7.13116 7.59457 7.01553 7.59694C7.00282 7.59694 6.99011 7.60011 6.97739 7.60011C6.96505 7.60011 6.95355 7.59694 6.94163 7.59694C6.74335 7.59378 6.54703 7.56714 6.35792 7.5115V9.53682C6.35792 11.3262 6.99132 12.9009 7.92754 14.0823C7.94146 14.0954 7.95971 14.1042 7.97164 14.1197C8.10794 14.2941 8.24941 14.459 8.39483 14.6136L8.39842 14.6172C8.49421 14.7189 8.5947 14.8095 8.69407 14.9025C9.66564 15.7787 10.8196 16.2921 11.9211 16.2921C13.0229 16.2921 14.1769 15.7787 15.148 14.9029ZM10.2481 19.4754L11.3262 17.0491L11.3238 17.0487C9.94732 16.8813 8.7262 16.1462 7.76656 15.1027C7.76497 15.1011 7.76297 15.0999 7.76181 15.098L7.58299 15.8109L10.2481 19.4754Z" fill="#4CE5B1"/>
<path d="M16.6167 4.79659C13.5467 4.22834 10.3852 4.22796 7.22418 4.79701L5.10661 5.17052L4.77482 5.26072C4.84393 2.34882 7.22935 0 10.1579 0H13.6842C16.61 0 18.993 2.34407 19.0669 5.25243L18.763 5.17653L16.6167 4.79659ZM13.1132 1.58946C13.1132 1.37013 12.9356 1.1921 12.7158 1.1921H11.1264C10.9066 1.1921 10.729 1.37013 10.729 1.58946V3.57631C10.729 3.79564 10.9066 3.97366 11.1264 3.97366H12.7158C12.9356 3.97366 13.1132 3.79564 13.1132 3.57631V1.58946Z" fill="#4CE5B1"/>
<path d="M11.5236 1.98683H12.3184V3.17893H11.5236V1.98683Z" fill="#4CE5B1"/>
</svg>
