<?xml version="1.0" encoding="utf-8"?>
<!-- Generator: Adobe Illustrator 23.0.2, SVG Export Plug-In . SVG Version: 6.00 Build 0)  -->
<svg version="1.1" id="Layer_1" xmlns="http://www.w3.org/2000/svg" xmlns:xlink="http://www.w3.org/1999/xlink" x="0px" y="0px"
	 viewBox="0 0 500 500" style="enable-background:new 0 0 500 500;" xml:space="preserve">
<style type="text/css">
	.st0{fill:#49E5B1;}
	.st1{fill:#FFFFFF;}
</style>
<circle class="st0" cx="250" cy="250" r="250"/>
<path id="Icon_awesome-car" class="st1" d="M417.7,195h-41.2l-11.4-28.6c-11.6-29.3-40-48.5-71.5-48.4h-87.3
	c-31.5-0.1-59.9,19.1-71.5,48.4L123.4,195H82.3c-4.6,0-8.2,3.7-8.2,8.2c0,0.7,0.1,1.4,0.2,2l4.1,16.5c0.9,3.7,4.2,6.2,8,6.2h13.8
	c-9.6,8.3-15.2,20.3-15.2,33v33c0,10.6,3.9,20.9,11,28.8V360c0,12.1,9.8,22,22,22c0,0,0,0,0,0h22c12.1,0,22-9.8,22-22v-22h176v22
	c0,12.1,9.8,22,22,22h22c12.1,0,22-9.8,22-22v-37.2c7.1-8,11-18.2,11-28.8v-33c0-12.7-5.6-24.7-15.2-33h13.8c3.8,0,7.1-2.6,8-6.2
	l4.1-16.5c1.1-4.4-1.6-8.9-6-10C419.1,195.1,418.4,195,417.7,195L417.7,195z M175.7,182.7c5-12.5,17.2-20.7,30.7-20.7h87.3
	c13.5,0,25.6,8.2,30.7,20.7L338,217H162L175.7,182.7z M140,293.9c-11.4,0.7-21.3-8-22-19.4c-0.1-0.8-0.1-1.7,0-2.5
	c-0.7-11.4,8-21.3,19.5-21.9c0.8,0,1.7,0,2.5,0c13.2,0,33,19.7,33,32.9S153.2,293.9,140,293.9z M360,293.9c-13.2,0-33,2.2-33-11
	s19.8-32.9,33-32.9c11.4-0.7,21.3,8,22,19.4c0.1,0.8,0.1,1.7,0,2.5c0.7,11.4-8,21.3-19.5,21.9C361.7,293.9,360.8,293.9,360,293.9z"
	/>
</svg>
