<svg width="278" height="278" viewBox="0 0 278 278" fill="none" xmlns="http://www.w3.org/2000/svg">
<mask id="mask0_131_3261" style="mask-type:alpha" maskUnits="userSpaceOnUse" x="0" y="0" width="278" height="278">
<path fill-rule="evenodd" clip-rule="evenodd" d="M0 0.000183105H278V278H0V0.000183105Z" fill="white"/>
</mask>
<g mask="url(#mask0_131_3261)">
<path fill-rule="evenodd" clip-rule="evenodd" d="M139 0.000183105C62.2326 0.000183105 0 62.2328 0 139C0 215.768 62.2326 278 139 278C215.767 278 278 215.768 278 139C278 62.2328 215.767 0.000183105 139 0.000183105Z" fill="#EFF3F9"/>
</g>
<path fill-rule="evenodd" clip-rule="evenodd" d="M105.924 231.359C95.9398 231.359 87.8457 223.265 87.8457 213.281C87.8457 203.297 95.9398 195.203 105.924 195.203C115.908 195.203 124.002 203.297 124.002 213.281C124.002 223.265 115.908 231.359 105.924 231.359Z" fill="white"/>
<path fill-rule="evenodd" clip-rule="evenodd" d="M69.3657 193.943C66.4516 193.943 64.0894 191.581 64.0894 188.666C64.0894 185.752 66.4516 183.389 69.3657 183.389C72.2807 183.389 74.6429 185.752 74.6429 188.666C74.6429 191.581 72.2807 193.943 69.3657 193.943Z" fill="white"/>
<path fill-rule="evenodd" clip-rule="evenodd" d="M155.908 220.314C153.966 220.314 152.392 218.739 152.392 216.797C152.392 214.855 153.966 213.281 155.908 213.281C157.85 213.281 159.424 214.855 159.424 216.797C159.424 218.739 157.85 220.314 155.908 220.314Z" fill="white"/>
<path fill-rule="evenodd" clip-rule="evenodd" d="M204.568 54.2927C202.626 54.2927 201.052 52.7187 201.052 50.7767C201.052 48.8347 202.626 47.2607 204.568 47.2607C206.51 47.2607 208.084 48.8347 208.084 50.7767C208.084 52.7187 206.51 54.2927 204.568 54.2927Z" fill="white"/>
<path fill-rule="evenodd" clip-rule="evenodd" d="M183.568 94.301H191.441V93.6156C191.441 91.3024 189.566 89.4271 187.252 89.4271H164.655C162.341 89.4271 160.466 91.3024 160.466 93.6156V160.412H178.028V99.8409C178.028 96.7805 180.509 94.301 183.568 94.301Z" fill="#E0E8F6"/>
<mask id="mask1_131_3261" style="mask-type:alpha" maskUnits="userSpaceOnUse" x="0" y="0" width="278" height="278">
<path fill-rule="evenodd" clip-rule="evenodd" d="M0 278H278V0H0V278Z" fill="white"/>
</mask>
<g mask="url(#mask1_131_3261)">
<path fill-rule="evenodd" clip-rule="evenodd" d="M136.691 160.412H155.897V102.622H136.691V160.412Z" fill="#D0DBF0"/>
<path fill-rule="evenodd" clip-rule="evenodd" d="M184.389 86.2503H167.519C166.873 86.2503 166.351 85.7272 166.351 85.0828V78.2373C166.351 77.5929 166.873 77.0698 167.519 77.0698H184.389C185.034 77.0698 185.556 77.5929 185.556 78.2373V85.0828C185.556 85.7272 185.034 86.2503 184.389 86.2503Z" fill="#E0E8F6"/>
<path fill-rule="evenodd" clip-rule="evenodd" d="M132.53 160.412H93.4299V62.0278C93.4299 59.8689 95.4587 58.2837 97.5541 58.8067L130.013 66.9041C131.493 67.2729 132.53 68.601 132.53 70.1252V160.412Z" fill="#D0DBF0"/>
<path fill-rule="evenodd" clip-rule="evenodd" d="M76.0972 160.413V126.406C76.0972 123.356 78.5686 120.884 81.6186 120.884H87.8824V160.413H76.0972Z" fill="#E0E8F6"/>
<path fill-rule="evenodd" clip-rule="evenodd" d="M174.567 153.94C173.757 153.94 173.101 153.284 173.101 152.474V100.852C173.101 100.043 173.757 99.3861 174.567 99.3861C175.377 99.3861 176.033 100.043 176.033 100.852V152.474C176.033 153.284 175.377 153.94 174.567 153.94Z" fill="#C0CBE2"/>
<path fill-rule="evenodd" clip-rule="evenodd" d="M166.43 153.94C165.62 153.94 164.964 153.284 164.964 152.474V100.852C164.964 100.043 165.62 99.3861 166.43 99.3861C167.24 99.3861 167.897 100.043 167.897 100.852V152.474C167.897 153.284 167.24 153.94 166.43 153.94Z" fill="#C0CBE2"/>
<path fill-rule="evenodd" clip-rule="evenodd" d="M125.115 81.6597H101.966C100.698 81.6597 99.6716 80.632 99.6716 79.365C99.6716 78.0971 100.698 77.0695 101.966 77.0695H125.115C126.383 77.0695 127.41 78.0971 127.41 79.365C127.41 80.632 126.383 81.6597 125.115 81.6597Z" fill="#C1CAE7"/>
<path fill-rule="evenodd" clip-rule="evenodd" d="M125.115 91.7218H101.966C100.698 91.7218 99.6716 90.6942 99.6716 89.4271C99.6716 88.1592 100.698 87.1316 101.966 87.1316H125.115C126.383 87.1316 127.41 88.1592 127.41 89.4271C127.41 90.6942 126.383 91.7218 125.115 91.7218Z" fill="#C1CAE7"/>
<path fill-rule="evenodd" clip-rule="evenodd" d="M125.115 101.784H101.966C100.698 101.784 99.6716 100.756 99.6716 99.489C99.6716 98.2211 100.698 97.1935 101.966 97.1935H125.115C126.383 97.1935 127.41 98.2211 127.41 99.489C127.41 100.756 126.383 101.784 125.115 101.784Z" fill="#C1CAE7"/>
<path fill-rule="evenodd" clip-rule="evenodd" d="M125.115 111.846H101.966C100.698 111.846 99.6716 110.818 99.6716 109.55C99.6716 108.282 100.698 107.256 101.966 107.256H125.115C126.383 107.256 127.41 108.282 127.41 109.55C127.41 110.818 126.383 111.846 125.115 111.846Z" fill="#C1CAE7"/>
<path fill-rule="evenodd" clip-rule="evenodd" d="M125.115 121.908H101.966C100.698 121.908 99.6716 120.88 99.6716 119.613C99.6716 118.345 100.698 117.317 101.966 117.317H125.115C126.383 117.317 127.41 118.345 127.41 119.613C127.41 120.88 126.383 121.908 125.115 121.908Z" fill="#C1CAE7"/>
<path fill-rule="evenodd" clip-rule="evenodd" d="M125.115 131.969H101.966C100.698 131.969 99.6716 130.942 99.6716 129.675C99.6716 128.407 100.698 127.379 101.966 127.379H125.115C126.383 127.379 127.41 128.407 127.41 129.675C127.41 130.942 126.383 131.969 125.115 131.969Z" fill="#C1CAE7"/>
<path fill-rule="evenodd" clip-rule="evenodd" d="M125.115 142.032H101.966C100.698 142.032 99.6716 141.004 99.6716 139.737C99.6716 138.469 100.698 137.441 101.966 137.441H125.115C126.383 137.441 127.41 138.469 127.41 139.737C127.41 141.004 126.383 142.032 125.115 142.032Z" fill="#C1CAE7"/>
<path fill-rule="evenodd" clip-rule="evenodd" d="M125.115 152.093H101.966C100.698 152.093 99.6716 151.066 99.6716 149.798C99.6716 148.53 100.698 147.503 101.966 147.503H125.115C126.383 147.503 127.41 148.53 127.41 149.798C127.41 151.066 126.383 152.093 125.115 152.093Z" fill="#C1CAE7"/>
<path fill-rule="evenodd" clip-rule="evenodd" d="M67.0778 160.413H36.1025V99.308C36.1025 96.5425 38.3442 94.3008 41.1098 94.3008H62.0714C64.8362 94.3008 67.0778 96.5425 67.0778 99.308V160.413Z" fill="#E0E8F6"/>
<path fill-rule="evenodd" clip-rule="evenodd" d="M61.2135 107.475H41.968C40.8897 107.475 40.0164 106.602 40.0164 105.524V105.45C40.0164 104.372 40.8897 103.497 41.968 103.497H61.2135C62.2909 103.497 63.1651 104.372 63.1651 105.45V105.524C63.1651 106.602 62.2909 107.475 61.2135 107.475Z" fill="#C1CAE7"/>
<path fill-rule="evenodd" clip-rule="evenodd" d="M61.2135 116.195H41.968C40.8897 116.195 40.0164 115.32 40.0164 114.243V114.169C40.0164 113.091 40.8897 112.217 41.968 112.217H61.2135C62.2909 112.217 63.1651 113.091 63.1651 114.169V114.243C63.1651 115.32 62.2909 116.195 61.2135 116.195Z" fill="#C1CAE7"/>
<path fill-rule="evenodd" clip-rule="evenodd" d="M61.2135 124.914H41.968C40.8897 124.914 40.0164 124.04 40.0164 122.962V122.888C40.0164 121.81 40.8897 120.936 41.968 120.936H61.2135C62.2909 120.936 63.1651 121.81 63.1651 122.888V122.962C63.1651 124.04 62.2909 124.914 61.2135 124.914Z" fill="#C1CAE7"/>
<path fill-rule="evenodd" clip-rule="evenodd" d="M61.2135 133.633H41.968C40.8897 133.633 40.0164 132.759 40.0164 131.682V131.607C40.0164 130.529 40.8897 129.655 41.968 129.655H61.2135C62.2909 129.655 63.1651 130.529 63.1651 131.607V131.682C63.1651 132.759 62.2909 133.633 61.2135 133.633Z" fill="#C1CAE7"/>
<path fill-rule="evenodd" clip-rule="evenodd" d="M61.2135 142.352H41.968C40.8897 142.352 40.0164 141.478 40.0164 140.4V140.327C40.0164 139.249 40.8897 138.375 41.968 138.375H61.2135C62.2909 138.375 63.1651 139.249 63.1651 140.327V140.4C63.1651 141.478 62.2909 142.352 61.2135 142.352Z" fill="#C1CAE7"/>
<path fill-rule="evenodd" clip-rule="evenodd" d="M61.2135 151.071H41.968C40.8897 151.071 40.0164 150.197 40.0164 149.12V149.046C40.0164 147.968 40.8897 147.094 41.968 147.094H61.2135C62.2909 147.094 63.1651 147.968 63.1651 149.046V149.12C63.1651 150.197 62.2909 151.071 61.2135 151.071Z" fill="#C1CAE7"/>
<path fill-rule="evenodd" clip-rule="evenodd" d="M217.816 163.186H179.901V102.614C179.901 99.5546 182.381 97.0743 185.44 97.0743H212.276C215.336 97.0743 217.816 99.5546 217.816 102.614V163.186Z" fill="#E0E8F6"/>
<path fill-rule="evenodd" clip-rule="evenodd" d="M211.037 110.249H186.68C185.581 110.249 184.691 109.359 184.691 108.261C184.691 107.162 185.581 106.272 186.68 106.272H211.037C212.136 106.272 213.027 107.162 213.027 108.261C213.027 109.359 212.136 110.249 211.037 110.249Z" fill="#C1CAE7"/>
<path fill-rule="evenodd" clip-rule="evenodd" d="M211.037 118.968H186.68C185.581 118.968 184.691 118.078 184.691 116.98C184.691 115.881 185.581 114.99 186.68 114.99H211.037C212.136 114.99 213.027 115.881 213.027 116.98C213.027 118.078 212.136 118.968 211.037 118.968Z" fill="#C1CAE7"/>
<path fill-rule="evenodd" clip-rule="evenodd" d="M211.037 127.688H186.68C185.581 127.688 184.691 126.797 184.691 125.699C184.691 124.601 185.581 123.71 186.68 123.71H211.037C212.136 123.71 213.027 124.601 213.027 125.699C213.027 126.797 212.136 127.688 211.037 127.688Z" fill="#C1CAE7"/>
<path fill-rule="evenodd" clip-rule="evenodd" d="M85.5183 97.1935C82.4836 97.1935 80.0226 94.7333 80.0226 91.6986V81.6239H59.6812V90.814H65.0033C68.1762 90.814 70.7481 93.3859 70.7481 96.5588V160.412H73.782V124.323C73.782 120.955 76.5114 118.225 79.8787 118.225H87.8821V97.1935H85.5183Z" fill="#D0DBF0"/>
<path fill-rule="evenodd" clip-rule="evenodd" d="M181.456 71.1192H170.451C169.806 71.1192 169.284 70.5962 169.284 69.9518V64.5308C169.284 63.8864 169.806 63.3633 170.451 63.3633H181.456C182.101 63.3633 182.623 63.8864 182.623 64.5308V69.9518C182.623 70.5962 182.101 71.1192 181.456 71.1192Z" fill="#E0E8F6"/>
<path fill-rule="evenodd" clip-rule="evenodd" d="M178.029 61.1795H173.879V50.3945C173.879 49.955 174.235 49.5983 174.674 49.5983H177.233C177.673 49.5983 178.029 49.955 178.029 50.3945V61.1795Z" fill="#E0E8F6"/>
<path fill-rule="evenodd" clip-rule="evenodd" d="M188.321 170.583H66.285C64.5623 170.583 63.1643 169.187 63.1643 167.462C63.1643 165.739 64.5623 164.342 66.285 164.342H188.321C190.044 164.342 191.441 165.739 191.441 167.462C191.441 169.187 190.044 170.583 188.321 170.583Z" fill="#7E89A0"/>
<path fill-rule="evenodd" clip-rule="evenodd" d="M262.6 176.131C262.6 167.843 255.881 161.123 247.593 161.123H236.162H228.427H31.6045C29.2375 161.123 27.3188 159.205 27.3188 156.838C27.3188 154.471 29.2375 152.553 31.6045 152.553H32.8668V146.117H24.7582C16.4696 146.117 9.75098 152.835 9.75098 161.123C9.75098 169.412 16.4696 176.131 24.7582 176.131H232.586H243.307C245.675 176.131 247.593 178.05 247.593 180.416C247.593 182.783 245.675 184.702 243.307 184.702H235.284H214.188C212.41 184.702 210.969 186.142 210.969 187.92C210.969 189.698 212.41 191.138 214.188 191.138H247.77V191.13C255.976 191.033 262.6 184.359 262.6 176.131Z" fill="#919DB6"/>
<path fill-rule="evenodd" clip-rule="evenodd" d="M198.547 184.702H177.785C176.007 184.702 174.567 186.142 174.567 187.92C174.567 189.698 176.007 191.138 177.785 191.138H198.547C200.324 191.138 201.766 189.698 201.766 187.92C201.766 186.142 200.324 184.702 198.547 184.702Z" fill="#919DB6"/>
<path fill-rule="evenodd" clip-rule="evenodd" d="M164.306 231.151H106.92C98.526 231.151 91.7214 224.346 91.7214 215.952V73.6147C91.7214 65.2208 98.526 58.4171 106.92 58.4171H164.306C172.7 58.4171 179.504 65.2208 179.504 73.6147V215.952C179.504 224.346 172.7 231.151 164.306 231.151Z" fill="#535565"/>
<path fill-rule="evenodd" clip-rule="evenodd" d="M161.022 226.699H110.204C102.454 226.699 96.1729 220.418 96.1729 212.669V76.8993C96.1729 69.1498 102.454 62.8683 110.204 62.8683H161.022C168.772 62.8683 175.053 69.1498 175.053 76.8993V212.669C175.053 220.418 168.772 226.699 161.022 226.699Z" fill="#FFE3E0"/>
<path fill-rule="evenodd" clip-rule="evenodd" d="M161.022 226.699H110.204C102.454 226.699 96.1729 220.418 96.1729 212.669V76.8993C96.1729 69.1498 102.454 62.8683 110.204 62.8683H161.022C168.772 62.8683 175.053 69.1498 175.053 76.8993V212.669C175.053 220.418 168.772 226.699 161.022 226.699Z" fill="#4CE5B1"/>
<path fill-rule="evenodd" clip-rule="evenodd" d="M148.277 69.0357H122.949C119.778 69.0357 117.207 66.4646 117.207 63.2941V60.7447H154.019V63.2941C154.019 66.4646 151.448 69.0357 148.277 69.0357Z" fill="#535565"/>
<path fill-rule="evenodd" clip-rule="evenodd" d="M159.115 203.644H112.111C110.182 203.644 108.617 202.007 108.617 199.987V151.658C108.617 149.638 110.182 148 112.111 148H159.115C161.044 148 162.609 149.638 162.609 151.658V199.987C162.609 202.007 161.044 203.644 159.115 203.644Z" fill="#E5E5E5"/>
<path fill-rule="evenodd" clip-rule="evenodd" d="M157.864 99.323H113.362C112.284 99.323 111.41 98.4496 111.41 97.3714C111.41 96.2931 112.284 95.4189 113.362 95.4189H157.864C158.943 95.4189 159.817 96.2931 159.817 97.3714C159.817 98.4496 158.943 99.323 157.864 99.323Z" fill="white"/>
<path fill-rule="evenodd" clip-rule="evenodd" d="M148.233 108.377H122.993C121.915 108.377 121.041 107.504 121.041 106.425C121.041 105.347 121.915 104.473 122.993 104.473H148.233C149.311 104.473 150.185 105.347 150.185 106.425C150.185 107.504 149.311 108.377 148.233 108.377Z" fill="white"/>
<path fill-rule="evenodd" clip-rule="evenodd" d="M162.479 207.43H108.747C106.744 207.43 105.122 205.748 105.122 203.673V154.86C105.122 152.786 106.744 151.104 108.747 151.104H162.479C164.481 151.104 166.104 152.786 166.104 154.86V203.673C166.104 205.748 164.481 207.43 162.479 207.43Z" fill="#EEEEEE"/>
<path fill-rule="evenodd" clip-rule="evenodd" d="M165.638 210.215H105.589C103.532 210.215 101.865 208.548 101.865 206.491V157.613C101.865 155.557 103.532 153.889 105.589 153.889H165.638C167.695 153.889 169.362 155.557 169.362 157.613V206.491C169.362 208.548 167.695 210.215 165.638 210.215Z" fill="white"/>
<path fill-rule="evenodd" clip-rule="evenodd" d="M114.707 173.82C110.571 173.82 107.218 170.467 107.218 166.331C107.218 162.195 110.571 158.841 114.707 158.841C118.842 158.841 122.196 162.195 122.196 166.331C122.196 170.467 118.842 173.82 114.707 173.82Z" fill="#EFEFEF"/>
<path fill-rule="evenodd" clip-rule="evenodd" d="M156.579 164.567H127.798C127.113 164.567 126.56 164.014 126.56 163.329C126.56 162.645 127.113 162.092 127.798 162.092H156.579C157.263 162.092 157.816 162.645 157.816 163.329C157.816 164.014 157.263 164.567 156.579 164.567Z" fill="#EFEFEF"/>
<path fill-rule="evenodd" clip-rule="evenodd" d="M101.865 179.107H169.361V178.925H101.865V179.107Z" fill="#E2E2E2"/>
<path fill-rule="evenodd" clip-rule="evenodd" d="M161.715 203.484H110.726C109.344 203.484 108.224 202.363 108.224 200.981V195.275C108.224 193.892 109.344 192.772 110.726 192.772H161.715C163.097 192.772 164.217 193.892 164.217 195.275V200.981C164.217 202.363 163.097 203.484 161.715 203.484Z" fill="#4CE5B1"/>
</g>
<path d="M129.489 197.725H130.443C130.417 198.063 130.324 198.363 130.162 198.624C130 198.883 129.774 199.087 129.485 199.235C129.196 199.383 128.846 199.457 128.434 199.457C128.117 199.457 127.831 199.401 127.577 199.29C127.325 199.177 127.109 199.016 126.928 198.808C126.75 198.597 126.614 198.345 126.519 198.051C126.424 197.755 126.376 197.423 126.376 197.056V196.671C126.376 196.303 126.425 195.971 126.522 195.675C126.619 195.379 126.758 195.127 126.939 194.918C127.121 194.708 127.34 194.546 127.594 194.433C127.851 194.319 128.138 194.263 128.455 194.263C128.866 194.263 129.215 194.339 129.499 194.492C129.784 194.642 130.004 194.849 130.162 195.113C130.319 195.376 130.414 195.679 130.446 196.022H129.492C129.474 195.809 129.427 195.628 129.353 195.48C129.282 195.332 129.173 195.22 129.027 195.144C128.884 195.065 128.693 195.026 128.455 195.026C128.27 195.026 128.107 195.061 127.966 195.13C127.827 195.199 127.711 195.304 127.619 195.442C127.526 195.579 127.457 195.75 127.41 195.956C127.364 196.159 127.341 196.395 127.341 196.664V197.056C127.341 197.312 127.362 197.543 127.403 197.746C127.445 197.95 127.51 198.122 127.598 198.263C127.686 198.404 127.799 198.512 127.938 198.586C128.077 198.66 128.242 198.697 128.434 198.697C128.668 198.697 128.857 198.66 129.003 198.586C129.151 198.512 129.263 198.403 129.339 198.26C129.418 198.116 129.468 197.938 129.489 197.725ZM130.949 197.548V197.475C130.949 197.2 130.989 196.947 131.067 196.716C131.146 196.482 131.26 196.28 131.411 196.108C131.561 195.937 131.745 195.804 131.962 195.709C132.18 195.612 132.427 195.564 132.705 195.564C132.987 195.564 133.237 195.612 133.454 195.709C133.674 195.804 133.859 195.937 134.01 196.108C134.16 196.28 134.274 196.482 134.353 196.716C134.432 196.947 134.471 197.2 134.471 197.475V197.548C134.471 197.821 134.432 198.075 134.353 198.308C134.274 198.539 134.16 198.742 134.01 198.915C133.859 199.087 133.675 199.22 133.458 199.314C133.24 199.409 132.992 199.457 132.712 199.457C132.434 199.457 132.186 199.409 131.966 199.314C131.746 199.22 131.561 199.087 131.411 198.915C131.26 198.742 131.146 198.539 131.067 198.308C130.989 198.075 130.949 197.821 130.949 197.548ZM131.865 197.475V197.548C131.865 197.713 131.882 197.866 131.914 198.01C131.946 198.153 131.996 198.279 132.063 198.388C132.13 198.497 132.217 198.582 132.323 198.645C132.432 198.705 132.562 198.735 132.712 198.735C132.86 198.735 132.987 198.705 133.094 198.645C133.2 198.582 133.287 198.497 133.354 198.388C133.423 198.279 133.474 198.153 133.506 198.01C133.539 197.866 133.555 197.713 133.555 197.548V197.475C133.555 197.314 133.539 197.162 133.506 197.021C133.474 196.878 133.423 196.751 133.354 196.643C133.287 196.532 133.199 196.445 133.09 196.383C132.984 196.318 132.855 196.285 132.705 196.285C132.557 196.285 132.43 196.318 132.323 196.383C132.217 196.445 132.13 196.532 132.063 196.643C131.996 196.751 131.946 196.878 131.914 197.021C131.882 197.162 131.865 197.314 131.865 197.475ZM136.036 196.435V199.387H135.12V195.633H135.98L136.036 196.435ZM135.89 197.375H135.619C135.622 197.102 135.659 196.854 135.73 196.632C135.802 196.41 135.903 196.219 136.032 196.06C136.164 195.9 136.32 195.778 136.501 195.692C136.681 195.607 136.882 195.564 137.104 195.564C137.285 195.564 137.448 195.589 137.594 195.64C137.739 195.691 137.864 195.772 137.968 195.883C138.075 195.994 138.156 196.14 138.211 196.32C138.269 196.498 138.298 196.718 138.298 196.979V199.387H137.375V196.972C137.375 196.801 137.35 196.666 137.299 196.566C137.25 196.467 137.178 196.396 137.084 196.355C136.991 196.313 136.877 196.292 136.74 196.292C136.599 196.292 136.475 196.321 136.369 196.379C136.265 196.435 136.177 196.512 136.105 196.612C136.036 196.711 135.983 196.826 135.946 196.955C135.909 197.085 135.89 197.225 135.89 197.375ZM140.307 199.387H139.384V195.286C139.384 195.004 139.438 194.767 139.547 194.575C139.656 194.381 139.811 194.234 140.012 194.134C140.213 194.035 140.45 193.985 140.723 193.985C140.813 193.985 140.899 193.991 140.98 194.002C141.063 194.014 141.145 194.03 141.226 194.051L141.209 194.748C141.165 194.737 141.116 194.729 141.063 194.724C141.012 194.719 140.956 194.717 140.893 194.717C140.768 194.717 140.662 194.739 140.574 194.783C140.486 194.827 140.419 194.892 140.373 194.977C140.329 195.061 140.307 195.164 140.307 195.286V199.387ZM141.067 195.633V196.292H138.818V195.633H141.067ZM142.599 195.633V199.387H141.68V195.633H142.599ZM141.618 194.651C141.618 194.515 141.664 194.401 141.756 194.311C141.851 194.221 141.978 194.176 142.138 194.176C142.298 194.176 142.424 194.221 142.516 194.311C142.611 194.401 142.658 194.515 142.658 194.651C142.658 194.785 142.611 194.898 142.516 194.988C142.424 195.078 142.298 195.123 142.138 195.123C141.978 195.123 141.851 195.078 141.756 194.988C141.664 194.898 141.618 194.785 141.618 194.651ZM144.39 196.4V199.387H143.474V195.633H144.341L144.39 196.4ZM145.531 195.609L145.517 196.462C145.466 196.453 145.409 196.446 145.344 196.442C145.281 196.437 145.222 196.435 145.167 196.435C145.026 196.435 144.902 196.454 144.796 196.494C144.689 196.531 144.6 196.585 144.528 196.657C144.459 196.728 144.406 196.816 144.369 196.92C144.332 197.022 144.311 197.138 144.306 197.267L144.109 197.243C144.109 197.005 144.133 196.784 144.182 196.58C144.23 196.377 144.301 196.199 144.393 196.046C144.486 195.893 144.601 195.775 144.74 195.692C144.881 195.607 145.043 195.564 145.226 195.564C145.277 195.564 145.331 195.568 145.389 195.578C145.449 195.585 145.496 195.595 145.531 195.609ZM127.376 204.403V207.387H126.46V203.633H127.324L127.376 204.403ZM127.24 205.375H126.959C126.959 205.113 126.991 204.873 127.053 204.653C127.118 204.433 127.213 204.243 127.338 204.081C127.462 203.916 127.616 203.789 127.799 203.699C127.984 203.609 128.198 203.564 128.441 203.564C128.61 203.564 128.765 203.589 128.906 203.64C129.047 203.689 129.168 203.766 129.27 203.873C129.374 203.977 129.454 204.113 129.509 204.282C129.565 204.448 129.593 204.649 129.593 204.882V207.387H128.677V204.976C128.677 204.8 128.651 204.662 128.6 204.563C128.552 204.464 128.481 204.394 128.389 204.355C128.296 204.313 128.185 204.292 128.056 204.292C127.912 204.292 127.789 204.321 127.684 204.379C127.583 204.435 127.498 204.512 127.431 204.612C127.366 204.711 127.318 204.826 127.285 204.955C127.255 205.085 127.24 205.225 127.24 205.375ZM129.523 205.205L129.145 205.274C129.147 205.038 129.18 204.817 129.242 204.612C129.305 204.403 129.396 204.222 129.516 204.067C129.639 203.91 129.791 203.787 129.971 203.699C130.154 203.609 130.364 203.564 130.602 203.564C130.787 203.564 130.954 203.59 131.102 203.644C131.252 203.694 131.381 203.777 131.487 203.89C131.594 204.001 131.674 204.145 131.73 204.324C131.788 204.502 131.817 204.719 131.817 204.976V207.387H130.894V204.972C130.894 204.79 130.868 204.65 130.817 204.553C130.769 204.455 130.698 204.388 130.606 204.351C130.513 204.312 130.405 204.292 130.28 204.292C130.152 204.292 130.041 204.317 129.947 204.365C129.854 204.411 129.775 204.476 129.711 204.559C129.648 204.643 129.601 204.74 129.568 204.851C129.538 204.96 129.523 205.078 129.523 205.205Z" fill="white"/>
<path fill-rule="evenodd" clip-rule="evenodd" d="M130.272 169.386C130.351 169.307 130.378 169.191 130.344 169.083C130.31 168.975 130.222 168.899 130.116 168.883L129.176 168.74C129.157 168.737 129.141 168.725 129.133 168.707L128.713 167.82C128.665 167.718 128.568 167.655 128.458 167.655C128.35 167.655 128.253 167.718 128.205 167.82L127.784 168.707C127.777 168.725 127.76 168.737 127.742 168.74L126.802 168.883C126.695 168.899 126.607 168.976 126.573 169.083C126.54 169.192 126.568 169.308 126.645 169.386L127.325 170.078C127.339 170.092 127.345 170.111 127.342 170.13L127.181 171.107C127.162 171.218 127.207 171.329 127.293 171.396C127.381 171.463 127.496 171.471 127.591 171.418L128.433 170.958C128.449 170.948 128.469 170.948 128.485 170.958L129.325 171.418C129.367 171.442 129.413 171.452 129.457 171.452C129.517 171.452 129.574 171.434 129.623 171.396C129.712 171.329 129.754 171.218 129.737 171.107L129.576 170.13C129.573 170.111 129.579 170.092 129.592 170.077L130.272 169.386Z" fill="#FFD400"/>
<path fill-rule="evenodd" clip-rule="evenodd" d="M134.775 169.386C134.853 169.307 134.881 169.191 134.847 169.083C134.813 168.975 134.725 168.899 134.619 168.883L133.679 168.74C133.66 168.737 133.644 168.725 133.636 168.707L133.216 167.82C133.168 167.718 133.071 167.655 132.961 167.655C132.853 167.655 132.756 167.718 132.708 167.82L132.287 168.707C132.279 168.725 132.263 168.737 132.245 168.74L131.305 168.883C131.198 168.899 131.11 168.976 131.076 169.083C131.043 169.192 131.071 169.308 131.148 169.386L131.828 170.078C131.842 170.092 131.848 170.111 131.845 170.13L131.684 171.107C131.665 171.218 131.709 171.329 131.796 171.396C131.884 171.463 131.999 171.471 132.094 171.418L132.936 170.958C132.952 170.948 132.972 170.948 132.988 170.958L133.828 171.418C133.87 171.442 133.916 171.452 133.96 171.452C134.019 171.452 134.077 171.434 134.126 171.396C134.215 171.329 134.257 171.218 134.24 171.107L134.079 170.13C134.076 170.111 134.082 170.092 134.095 170.077L134.775 169.386Z" fill="#FFD400"/>
<path fill-rule="evenodd" clip-rule="evenodd" d="M139.615 169.386C139.694 169.307 139.721 169.191 139.688 169.083C139.654 168.975 139.565 168.899 139.459 168.883L138.519 168.74C138.501 168.737 138.485 168.725 138.477 168.707L138.057 167.82C138.008 167.718 137.911 167.655 137.802 167.655C137.693 167.655 137.596 167.718 137.549 167.82L137.128 168.707C137.121 168.725 137.104 168.737 137.086 168.74L136.146 168.883C136.038 168.899 135.951 168.976 135.917 169.083C135.883 169.192 135.911 169.308 135.988 169.386L136.669 170.078C136.683 170.092 136.688 170.111 136.686 170.13L136.524 171.107C136.506 171.218 136.55 171.329 136.637 171.396C136.724 171.463 136.839 171.471 136.935 171.418L137.776 170.958C137.792 170.948 137.812 170.948 137.828 170.958L138.669 171.418C138.711 171.442 138.756 171.452 138.801 171.452C138.86 171.452 138.918 171.434 138.967 171.396C139.055 171.329 139.098 171.218 139.08 171.107L138.919 170.13C138.916 170.111 138.923 170.092 138.936 170.077L139.615 169.386Z" fill="#FFD400"/>
<path fill-rule="evenodd" clip-rule="evenodd" d="M144.118 169.386C144.196 169.307 144.224 169.191 144.19 169.083C144.157 168.975 144.068 168.899 143.962 168.883L143.022 168.74C143.003 168.737 142.988 168.725 142.979 168.707L142.56 167.82C142.511 167.718 142.413 167.655 142.305 167.655C142.196 167.655 142.098 167.718 142.051 167.82L141.631 168.707C141.623 168.725 141.607 168.737 141.588 168.74L140.649 168.883C140.541 168.899 140.453 168.976 140.419 169.083C140.386 169.192 140.414 169.308 140.491 169.386L141.171 170.078C141.185 170.092 141.19 170.111 141.188 170.13L141.027 171.107C141.009 171.218 141.052 171.329 141.14 171.396C141.227 171.463 141.342 171.471 141.438 171.418L142.278 170.958C142.294 170.948 142.314 170.948 142.331 170.958L143.171 171.418C143.214 171.442 143.259 171.452 143.304 171.452C143.362 171.452 143.42 171.434 143.47 171.396C143.558 171.329 143.601 171.218 143.582 171.107L143.422 170.13C143.419 170.111 143.425 170.092 143.438 170.077L144.118 169.386Z" fill="#FFD400"/>
<path fill-rule="evenodd" clip-rule="evenodd" d="M148.756 169.386C148.834 169.307 148.861 169.191 148.828 169.083C148.794 168.975 148.706 168.899 148.599 168.883L147.659 168.74C147.641 168.737 147.626 168.725 147.617 168.707L147.197 167.82C147.148 167.718 147.051 167.655 146.943 167.655C146.833 167.655 146.736 167.718 146.689 167.82L146.268 168.707C146.261 168.725 146.244 168.737 146.226 168.74L145.287 168.883C145.179 168.899 145.091 168.976 145.057 169.083C145.024 169.192 145.051 169.308 145.129 169.386L145.809 170.078C145.823 170.092 145.828 170.111 145.826 170.13L145.664 171.107C145.647 171.218 145.69 171.329 145.778 171.396C145.865 171.463 145.979 171.471 146.076 171.418L146.916 170.958C146.932 170.948 146.952 170.948 146.968 170.958L147.809 171.418C147.851 171.442 147.896 171.452 147.941 171.452C148 171.452 148.058 171.434 148.108 171.396C148.195 171.329 148.239 171.218 148.22 171.107L148.06 170.13C148.057 170.111 148.063 170.092 148.076 170.077L148.756 169.386Z" fill="#FFD400"/>
</svg>
