<svg width="278" height="278" viewBox="0 0 278 278" fill="none" xmlns="http://www.w3.org/2000/svg">
<mask id="mask0_131_3076" style="mask-type:alpha" maskUnits="userSpaceOnUse" x="0" y="0" width="278" height="278">
<path fill-rule="evenodd" clip-rule="evenodd" d="M0 0.000183105H278V278H0V0.000183105Z" fill="white"/>
</mask>
<g mask="url(#mask0_131_3076)">
<path fill-rule="evenodd" clip-rule="evenodd" d="M139 0.000183105C62.2326 0.000183105 0 62.2328 0 139C0 215.768 62.2326 278 139 278C215.767 278 278 215.768 278 139C278 62.2328 215.767 0.000183105 139 0.000183105" fill="#EFF3F9"/>
</g>
<path fill-rule="evenodd" clip-rule="evenodd" d="M105.924 231.359V231.359C95.9393 231.359 87.8459 223.265 87.8459 213.281C87.8459 203.297 95.9393 195.203 105.924 195.203C115.908 195.203 124.002 203.297 124.002 213.281C124.002 223.265 115.908 231.359 105.924 231.359" fill="white"/>
<path fill-rule="evenodd" clip-rule="evenodd" d="M69.3663 193.943V193.943C66.4521 193.943 64.0891 191.581 64.0891 188.666C64.0891 185.752 66.4521 183.389 69.3663 183.389C72.2805 183.389 74.6435 185.752 74.6435 188.666C74.6435 191.581 72.2805 193.943 69.3663 193.943" fill="white"/>
<path fill-rule="evenodd" clip-rule="evenodd" d="M155.908 220.314V220.314C153.966 220.314 152.392 218.739 152.392 216.797C152.392 214.855 153.966 213.281 155.908 213.281C157.85 213.281 159.424 214.855 159.424 216.797C159.424 218.739 157.85 220.314 155.908 220.314" fill="white"/>
<path fill-rule="evenodd" clip-rule="evenodd" d="M204.568 54.2927V54.2927C202.626 54.2927 201.052 52.7187 201.052 50.7767C201.052 48.8347 202.626 47.2607 204.568 47.2607C206.51 47.2607 208.084 48.8347 208.084 50.7767C208.084 52.7187 206.51 54.2927 204.568 54.2927" fill="white"/>
<path fill-rule="evenodd" clip-rule="evenodd" d="M188.822 86.2388H196.695V85.5535C196.695 83.2403 194.82 81.365 192.506 81.365H169.908C167.595 81.365 165.72 83.2403 165.72 85.5535V152.351H183.282V91.7787C183.282 88.7191 185.762 86.2388 188.822 86.2388" fill="#E0E8F6"/>
<mask id="mask1_131_3076" style="mask-type:alpha" maskUnits="userSpaceOnUse" x="0" y="0" width="278" height="278">
<path fill-rule="evenodd" clip-rule="evenodd" d="M0 278H278V0H0V278Z" fill="white"/>
</mask>
<g mask="url(#mask1_131_3076)">
<path fill-rule="evenodd" clip-rule="evenodd" d="M141.945 152.35H161.151V94.561H141.945V152.35Z" fill="#D0DBF0"/>
<path fill-rule="evenodd" clip-rule="evenodd" d="M189.643 78.1881H172.772C172.127 78.1881 171.605 77.6658 171.605 77.0206V70.1751C171.605 69.5307 172.127 69.0076 172.772 69.0076H189.643C190.288 69.0076 190.81 69.5307 190.81 70.1751V77.0206C190.81 77.6658 190.288 78.1881 189.643 78.1881" fill="#E0E8F6"/>
<path fill-rule="evenodd" clip-rule="evenodd" d="M137.784 152.35H98.6843V53.9657C98.6843 51.8068 100.712 50.2223 102.808 50.7446L135.268 58.8419C136.746 59.2107 137.784 60.5389 137.784 62.063V152.35Z" fill="#D0DBF0"/>
<path fill-rule="evenodd" clip-rule="evenodd" d="M81.3508 152.35V118.344C81.3508 115.294 83.8231 112.822 86.8731 112.822H93.1361V152.35H81.3508Z" fill="#E0E8F6"/>
<path fill-rule="evenodd" clip-rule="evenodd" d="M179.821 145.878V145.878C179.011 145.878 178.354 145.221 178.354 144.411V92.791C178.354 91.9803 179.011 91.3247 179.821 91.3247C180.63 91.3247 181.287 91.9803 181.287 92.791V144.411C181.287 145.221 180.63 145.878 179.821 145.878" fill="#C0CBE2"/>
<path fill-rule="evenodd" clip-rule="evenodd" d="M171.684 145.878V145.878C170.874 145.878 170.218 145.221 170.218 144.411V92.791C170.218 91.9803 170.874 91.3247 171.684 91.3247C172.494 91.3247 173.15 91.9803 173.15 92.791V144.411C173.15 145.221 172.494 145.878 171.684 145.878" fill="#C0CBE2"/>
<path fill-rule="evenodd" clip-rule="evenodd" d="M130.369 73.5979H107.22C105.953 73.5979 104.925 72.5703 104.925 71.3032C104.925 70.0353 105.953 69.0077 107.22 69.0077H130.369C131.636 69.0077 132.664 70.0353 132.664 71.3032C132.664 72.5703 131.636 73.5979 130.369 73.5979" fill="#C1CAE7"/>
<path fill-rule="evenodd" clip-rule="evenodd" d="M130.369 83.6597H107.22C105.953 83.6597 104.925 82.632 104.925 81.365C104.925 80.0971 105.953 79.0695 107.22 79.0695H130.369C131.636 79.0695 132.664 80.0971 132.664 81.365C132.664 82.632 131.636 83.6597 130.369 83.6597" fill="#C1CAE7"/>
<path fill-rule="evenodd" clip-rule="evenodd" d="M130.369 93.7219H107.22C105.953 93.7219 104.925 92.6943 104.925 91.4264C104.925 90.1593 105.953 89.1317 107.22 89.1317H130.369C131.636 89.1317 132.664 90.1593 132.664 91.4264C132.664 92.6943 131.636 93.7219 130.369 93.7219" fill="#C1CAE7"/>
<path fill-rule="evenodd" clip-rule="evenodd" d="M130.369 103.784H107.22C105.953 103.784 104.925 102.756 104.925 101.489C104.925 100.221 105.953 99.1935 107.22 99.1935H130.369C131.636 99.1935 132.664 100.221 132.664 101.489C132.664 102.756 131.636 103.784 130.369 103.784" fill="#C1CAE7"/>
<path fill-rule="evenodd" clip-rule="evenodd" d="M130.369 113.845H107.22C105.953 113.845 104.925 112.818 104.925 111.551C104.925 110.283 105.953 109.255 107.22 109.255H130.369C131.636 109.255 132.664 110.283 132.664 111.551C132.664 112.818 131.636 113.845 130.369 113.845" fill="#C1CAE7"/>
<path fill-rule="evenodd" clip-rule="evenodd" d="M130.369 123.908H107.22C105.953 123.908 104.925 122.88 104.925 121.612C104.925 120.345 105.953 119.317 107.22 119.317H130.369C131.636 119.317 132.664 120.345 132.664 121.612C132.664 122.88 131.636 123.908 130.369 123.908" fill="#C1CAE7"/>
<path fill-rule="evenodd" clip-rule="evenodd" d="M130.369 133.969H107.22C105.953 133.969 104.925 132.942 104.925 131.675C104.925 130.407 105.953 129.379 107.22 129.379H130.369C131.636 129.379 132.664 130.407 132.664 131.675C132.664 132.942 131.636 133.969 130.369 133.969" fill="#C1CAE7"/>
<path fill-rule="evenodd" clip-rule="evenodd" d="M130.369 144.032H107.22C105.953 144.032 104.925 143.004 104.925 141.737C104.925 140.468 105.953 139.441 107.22 139.441H130.369C131.636 139.441 132.664 140.468 132.664 141.737C132.664 143.004 131.636 144.032 130.369 144.032" fill="#C1CAE7"/>
<path fill-rule="evenodd" clip-rule="evenodd" d="M72.3322 152.35H41.3569V91.2457C41.3569 88.4802 43.5986 86.2385 46.3641 86.2385H67.325C70.0906 86.2385 72.3322 88.4802 72.3322 91.2457V152.35Z" fill="#E0E8F6"/>
<path fill-rule="evenodd" clip-rule="evenodd" d="M66.4669 99.4133H47.2214C46.1439 99.4133 45.2698 98.5399 45.2698 97.4616V97.3877C45.2698 96.3095 46.1439 95.4353 47.2214 95.4353H66.4669C67.5451 95.4353 68.4185 96.3095 68.4185 97.3877V97.4616C68.4185 98.5399 67.5451 99.4133 66.4669 99.4133" fill="#C1CAE7"/>
<path fill-rule="evenodd" clip-rule="evenodd" d="M66.4669 108.133H47.2214C46.1439 108.133 45.2698 107.259 45.2698 106.181V106.107C45.2698 105.029 46.1439 104.155 47.2214 104.155H66.4669C67.5451 104.155 68.4185 105.029 68.4185 106.107V106.181C68.4185 107.259 67.5451 108.133 66.4669 108.133" fill="#C1CAE7"/>
<path fill-rule="evenodd" clip-rule="evenodd" d="M66.4669 116.852H47.2214C46.1439 116.852 45.2698 115.979 45.2698 114.9V114.826C45.2698 113.748 46.1439 112.874 47.2214 112.874H66.4669C67.5451 112.874 68.4185 113.748 68.4185 114.826V114.9C68.4185 115.979 67.5451 116.852 66.4669 116.852" fill="#C1CAE7"/>
<path fill-rule="evenodd" clip-rule="evenodd" d="M66.4669 125.571H47.2214C46.1439 125.571 45.2698 124.698 45.2698 123.619V123.546C45.2698 122.467 46.1439 121.593 47.2214 121.593H66.4669C67.5451 121.593 68.4185 122.467 68.4185 123.546V123.619C68.4185 124.698 67.5451 125.571 66.4669 125.571" fill="#C1CAE7"/>
<path fill-rule="evenodd" clip-rule="evenodd" d="M66.4669 134.29H47.2214C46.1439 134.29 45.2698 133.416 45.2698 132.339V132.265C45.2698 131.187 46.1439 130.312 47.2214 130.312H66.4669C67.5451 130.312 68.4185 131.187 68.4185 132.265V132.339C68.4185 133.416 67.5451 134.29 66.4669 134.29" fill="#C1CAE7"/>
<path fill-rule="evenodd" clip-rule="evenodd" d="M66.4669 143.009H47.2214C46.1439 143.009 45.2698 142.136 45.2698 141.058V140.984C45.2698 139.906 46.1439 139.032 47.2214 139.032H66.4669C67.5451 139.032 68.4185 139.906 68.4185 140.984V141.058C68.4185 142.136 67.5451 143.009 66.4669 143.009" fill="#C1CAE7"/>
<path fill-rule="evenodd" clip-rule="evenodd" d="M223.07 155.124H185.155V94.5522C185.155 91.4926 187.635 89.0131 190.694 89.0131H217.53C220.59 89.0131 223.07 91.4926 223.07 94.5522V155.124Z" fill="#E0E8F6"/>
<path fill-rule="evenodd" clip-rule="evenodd" d="M216.291 102.187H191.933C190.835 102.187 189.945 101.297 189.945 100.198C189.945 99.1004 190.835 98.2094 191.933 98.2094H216.291C217.39 98.2094 218.281 99.1004 218.281 100.198C218.281 101.297 217.39 102.187 216.291 102.187" fill="#C1CAE7"/>
<path fill-rule="evenodd" clip-rule="evenodd" d="M216.291 110.907H191.933C190.835 110.907 189.945 110.016 189.945 108.917C189.945 107.819 190.835 106.929 191.933 106.929H216.291C217.39 106.929 218.281 107.819 218.281 108.917C218.281 110.016 217.39 110.907 216.291 110.907" fill="#C1CAE7"/>
<path fill-rule="evenodd" clip-rule="evenodd" d="M216.291 119.626H191.933C190.835 119.626 189.945 118.736 189.945 117.637C189.945 116.538 190.835 115.648 191.933 115.648H216.291C217.39 115.648 218.281 116.538 218.281 117.637C218.281 118.736 217.39 119.626 216.291 119.626" fill="#C1CAE7"/>
<path fill-rule="evenodd" clip-rule="evenodd" d="M90.7719 89.1314C87.7372 89.1314 85.277 86.6712 85.277 83.6365V73.5618H64.9348V82.7518H70.2578C73.4307 82.7518 76.0026 85.3237 76.0026 88.4966V152.351H79.0357V116.261C79.0357 112.893 81.7659 110.164 85.1332 110.164H93.1365V89.1314H90.7719Z" fill="#D0DBF0"/>
<path fill-rule="evenodd" clip-rule="evenodd" d="M186.71 63.0571H175.705C175.06 63.0571 174.537 62.5348 174.537 61.8896V56.4694C174.537 55.8243 175.06 55.302 175.705 55.302H186.71C187.355 55.302 187.877 55.8243 187.877 56.4694V61.8896C187.877 62.5348 187.355 63.0571 186.71 63.0571" fill="#E0E8F6"/>
<path fill-rule="evenodd" clip-rule="evenodd" d="M183.282 53.1173H179.133V42.3323C179.133 41.8928 179.489 41.5361 179.928 41.5361H182.487C182.927 41.5361 183.282 41.8928 183.282 42.3323V53.1173Z" fill="#E0E8F6"/>
<path fill-rule="evenodd" clip-rule="evenodd" d="M193.575 162.521H71.5391C69.8157 162.521 68.4185 161.124 68.4185 159.4C68.4185 157.677 69.8157 156.279 71.5391 156.279H193.575C195.298 156.279 196.695 157.677 196.695 159.4C196.695 161.124 195.298 162.521 193.575 162.521" fill="#7E89A0"/>
<path fill-rule="evenodd" clip-rule="evenodd" d="M267.854 168.069C267.854 159.781 261.135 153.061 252.847 153.061H241.416H233.681H36.8584C34.4914 153.061 32.5727 151.143 32.5727 148.776C32.5727 146.409 34.4914 144.49 36.8584 144.49H38.1207V138.055H30.0121C21.7243 138.055 15.0049 144.773 15.0049 153.061C15.0049 161.35 21.7243 168.069 30.0121 168.069H237.84H248.561C250.929 168.069 252.847 169.988 252.847 172.354C252.847 174.721 250.929 176.64 248.561 176.64H240.538H219.442C217.664 176.64 216.223 178.081 216.223 179.858C216.223 181.636 217.664 183.076 219.442 183.076H253.024V183.067C261.23 182.971 267.854 176.297 267.854 168.069" fill="#919DB6"/>
<path fill-rule="evenodd" clip-rule="evenodd" d="M203.801 176.64H183.038C181.261 176.64 179.821 178.081 179.821 179.858C179.821 181.636 181.261 183.076 183.038 183.076H203.801C205.578 183.076 207.019 181.636 207.019 179.858C207.019 178.081 205.578 176.64 203.801 176.64" fill="#919DB6"/>
<path fill-rule="evenodd" clip-rule="evenodd" d="M189.428 113.753V118.347H193.668V115.874C193.668 114.117 192.245 112.693 190.488 112.693C189.903 112.693 189.428 113.168 189.428 113.753" fill="#E9E3D5"/>
<path fill-rule="evenodd" clip-rule="evenodd" d="M220.58 146.885C220.074 146.386 219.815 145.687 219.815 144.976V138.133C219.815 135.382 218.923 132.704 217.271 130.503L209.639 120.326C208.037 118.19 205.524 116.934 202.854 116.934H182.286C179.27 116.934 176.48 118.535 174.961 121.141L167.522 133.894L158.614 134.962C158.341 134.994 158.071 135.04 157.805 135.098L151.128 143.311V150.854C151.128 153.196 153.025 155.094 155.368 155.094H217.129C219.471 155.094 221.368 153.196 221.368 150.854V148.773C221.368 148.064 221.085 147.383 220.58 146.885" fill="#FFB545"/>
<path fill-rule="evenodd" clip-rule="evenodd" d="M220.583 146.887C220.075 146.387 219.815 145.688 219.815 144.976V142.374V138.133C219.815 135.491 218.975 132.775 217.271 130.503L209.639 120.326C208.764 119.161 207.619 118.26 206.325 117.678C205.146 119.152 205.062 121.29 206.246 122.87L211.176 129.441L206.818 133.894H211.307C213.636 133.894 215.562 135.761 215.575 138.089V138.133V144.976V145.004C215.578 145.776 214.707 146.237 214.091 145.773C212.141 144.305 209.718 143.434 207.095 143.434C202.161 143.434 197.935 146.515 196.235 150.854H193.669V121.174H189.429V150.854H172.499C170.86 147.114 167.126 144.493 162.787 144.493C158.45 144.493 154.718 147.114 153.079 150.854H151.128C151.128 153.196 153.025 155.094 155.368 155.094H217.129C219.471 155.094 221.369 153.196 221.369 150.854V148.854C221.369 148.122 221.103 147.401 220.583 146.887" fill="#FF7E40"/>
<path fill-rule="evenodd" clip-rule="evenodd" d="M180.878 139.194H185.117C185.703 139.194 186.178 138.719 186.178 138.135C186.178 137.549 185.703 137.074 185.117 137.074H180.878C180.293 137.074 179.819 137.549 179.819 138.135C179.819 138.719 180.293 139.194 180.878 139.194" fill="#35404A"/>
<path fill-rule="evenodd" clip-rule="evenodd" d="M197.838 139.194H202.078C202.663 139.194 203.138 138.719 203.138 138.135C203.138 137.549 202.663 137.074 202.078 137.074H197.838C197.252 137.074 196.778 137.549 196.778 138.135C196.778 138.719 197.252 139.194 197.838 139.194" fill="#35404A"/>
<path fill-rule="evenodd" clip-rule="evenodd" d="M178.623 123.277L172.43 133.894H189.428V121.173H182.286C180.783 121.173 179.38 121.979 178.623 123.277" fill="#87F8F4"/>
<path fill-rule="evenodd" clip-rule="evenodd" d="M210.699 128.806L206.247 122.87C205.446 121.801 204.189 121.174 202.854 121.174H193.668V133.894H208.154C209.911 133.894 211.334 132.47 211.334 130.714C211.334 130.025 211.112 129.356 210.699 128.806" fill="#87F8F4"/>
<path fill-rule="evenodd" clip-rule="evenodd" d="M216.281 138.134C215.111 138.134 214.161 139.083 214.161 140.255C214.161 141.424 215.111 142.374 216.281 142.374H219.814V138.134H216.281Z" fill="#C5324F"/>
<path fill-rule="evenodd" clip-rule="evenodd" d="M152.288 139.03C152.281 139.042 152.275 139.054 152.268 139.066C152.194 139.193 152.123 139.324 152.055 139.456C151.46 140.621 151.127 141.935 151.127 143.311H153.565C155.907 143.311 157.805 141.413 157.805 139.071V135.097C155.506 135.595 153.484 137.002 152.288 139.03" fill="#E9E3D5"/>
<path fill-rule="evenodd" clip-rule="evenodd" d="M162.787 162.514C158.696 162.514 155.368 159.185 155.368 155.094C155.368 151.002 158.696 147.674 162.787 147.674C166.879 147.674 170.207 151.002 170.207 155.094C170.207 159.185 166.879 162.514 162.787 162.514" fill="#596775"/>
<path fill-rule="evenodd" clip-rule="evenodd" d="M164.305 147.83C163.434 149.437 163.678 151.487 165.036 152.845L160.539 157.342C159.181 155.984 157.13 155.741 155.523 156.61C156.226 159.976 159.216 162.513 162.787 162.513C166.879 162.513 170.208 159.185 170.208 155.093C170.208 151.522 167.669 148.533 164.305 147.83" fill="#35404A"/>
<path fill-rule="evenodd" clip-rule="evenodd" d="M165.967 155.094C165.967 156.851 164.544 158.274 162.787 158.274C161.031 158.274 159.608 156.851 159.608 155.094C159.608 153.337 161.031 151.914 162.787 151.914C164.544 151.914 165.967 153.337 165.967 155.094" fill="#E9E3D5"/>
<path fill-rule="evenodd" clip-rule="evenodd" d="M207.095 162.514C203.004 162.514 199.676 159.185 199.676 155.094C199.676 151.002 203.004 147.674 207.095 147.674C211.187 147.674 214.515 151.002 214.515 155.094C214.515 159.185 211.187 162.514 207.095 162.514" fill="#596775"/>
<path fill-rule="evenodd" clip-rule="evenodd" d="M208.612 147.83C207.742 149.437 207.985 151.487 209.343 152.845L204.845 157.342C203.488 155.984 201.438 155.741 199.831 156.61C200.533 159.976 203.524 162.513 207.094 162.513C211.186 162.513 214.515 159.185 214.515 155.093C214.515 151.522 211.978 148.533 208.612 147.83" fill="#35404A"/>
<path fill-rule="evenodd" clip-rule="evenodd" d="M210.275 155.094C210.275 156.851 208.851 158.274 207.095 158.274C205.338 158.274 203.915 156.851 203.915 155.094C203.915 153.337 205.338 151.914 207.095 151.914C208.851 151.914 210.275 153.337 210.275 155.094" fill="#E9E3D5"/>
</g>
<mask id="mask2_131_3076" style="mask-type:alpha" maskUnits="userSpaceOnUse" x="0" y="0" width="278" height="278">
<path fill-rule="evenodd" clip-rule="evenodd" d="M139 0C62.2326 0 0 62.2318 0 139V139C0 215.768 62.2326 278 139 278V278C215.767 278 278 215.768 278 139V139" fill="white"/>
</mask>
<g mask="url(#mask2_131_3076)">
<path fill-rule="evenodd" clip-rule="evenodd" d="M142.24 134.875L130.98 144.327C129.067 145.933 126.214 145.683 124.608 143.77C123.002 141.856 123.251 139.004 125.164 137.398L137.517 127.029C138.827 125.93 140.78 126.1 141.88 127.41L142.796 128.503C144.402 130.416 144.154 133.269 142.24 134.875" fill="#DBAA79"/>
</g>
<mask id="mask3_131_3076" style="mask-type:alpha" maskUnits="userSpaceOnUse" x="0" y="0" width="278" height="278">
<path fill-rule="evenodd" clip-rule="evenodd" d="M139 0C62.2326 0 0 62.2318 0 139V139C0 215.768 62.2326 278 139 278V278C215.767 278 278 215.768 278 139V139" fill="white"/>
</mask>
<g mask="url(#mask3_131_3076)">
<path fill-rule="evenodd" clip-rule="evenodd" d="M141.843 132.88L129.084 143.589C127.584 144.848 125.348 144.653 124.09 143.153L123.694 142.681C122.435 141.182 122.63 138.946 124.129 137.687L136.888 126.977C138.388 125.718 140.623 125.914 141.882 127.414L142.279 127.886C143.537 129.385 143.342 131.621 141.843 132.88" fill="#EAC897"/>
</g>
<mask id="mask4_131_3076" style="mask-type:alpha" maskUnits="userSpaceOnUse" x="0" y="0" width="278" height="278">
<path fill-rule="evenodd" clip-rule="evenodd" d="M139 0C62.2326 0 0 62.2318 0 139V139C0 215.768 62.2326 278 139 278V278C215.767 278 278 215.768 278 139V139C278 62.2318 215.767 0 139 0Z" fill="white"/>
</mask>
<g mask="url(#mask4_131_3076)">
<path fill-rule="evenodd" clip-rule="evenodd" d="M96.6045 179.849C96.4357 180.527 94.5733 214.047 95.0811 214.215C95.5889 214.384 121.49 200.164 121.49 200.164L124.538 182.728L96.6045 179.849Z" fill="#DBAA79"/>
</g>
<mask id="mask5_131_3076" style="mask-type:alpha" maskUnits="userSpaceOnUse" x="0" y="0" width="278" height="278">
<path fill-rule="evenodd" clip-rule="evenodd" d="M139 0C62.2326 0 0 62.2318 0 139V139C0 215.768 62.2326 278 139 278V278C215.767 278 278 215.768 278 139V139C278 62.2318 215.767 0 139 0Z" fill="white"/>
</mask>
<g mask="url(#mask5_131_3076)">
<path fill-rule="evenodd" clip-rule="evenodd" d="M131.479 177.479C130.632 179.51 129.394 198.988 120.306 209.644C109.766 222.003 102.699 220.987 101.175 221.326C100.5 222.676 99.2918 224.827 98.0248 227.019C95.71 231.028 91.6075 233.711 86.9988 234.14C86.417 234.194 85.7831 234.267 85.0929 234.361C79.6093 235.118 79.1674 237.917 75.2737 240.117C71.3801 242.318 66.9787 245.365 60.8836 242.318C53.9168 238.834 48.356 245.365 48.356 245.365L73.073 202.366C73.073 202.366 72.0567 173.754 76.9667 165.459C81.8758 157.164 97.6198 141.589 97.6198 141.589C97.6198 141.589 108.286 150.562 90.6794 164.105C90.6794 169.522 90.3404 173.586 90.3404 173.586C90.3404 173.586 103.715 177.479 99.6518 206.766C108.455 206.766 115.904 204.735 118.274 196.61C120.644 190.854 122.167 188.314 122.167 188.314C120.136 188.314 123.86 143.113 123.86 143.113L131.479 177.479Z" fill="#EAC897"/>
</g>
<mask id="mask6_131_3076" style="mask-type:alpha" maskUnits="userSpaceOnUse" x="0" y="0" width="278" height="278">
<path fill-rule="evenodd" clip-rule="evenodd" d="M139 0C62.2326 0 0 62.2318 0 139V139C0 215.768 62.2326 278 139 278V278C215.767 278 278 215.768 278 139V139" fill="white"/>
</mask>
<g mask="url(#mask6_131_3076)">
<path fill-rule="evenodd" clip-rule="evenodd" d="M124.974 196.64H94.2552C89.7622 196.64 86.1201 192.998 86.1201 188.504V112.311C86.1201 107.819 89.7622 104.176 94.2552 104.176H124.974C129.467 104.176 133.109 107.819 133.109 112.311V188.504C133.109 192.998 129.467 196.64 124.974 196.64" fill="#535565"/>
</g>
<mask id="mask7_131_3076" style="mask-type:alpha" maskUnits="userSpaceOnUse" x="0" y="0" width="278" height="278">
<path fill-rule="evenodd" clip-rule="evenodd" d="M139 0C62.2326 0 0 62.2318 0 139V139C0 215.768 62.2326 278 139 278V278C215.767 278 278 215.768 278 139V139" fill="white"/>
</mask>
<g mask="url(#mask7_131_3076)">
<path fill-rule="evenodd" clip-rule="evenodd" d="M123.216 194.257H96.0133C91.865 194.257 88.5024 190.894 88.5024 186.746V114.069C88.5024 109.922 91.865 106.559 96.0133 106.559H123.216C127.365 106.559 130.727 109.922 130.727 114.069V186.746C130.727 190.894 127.365 194.257 123.216 194.257" fill="#FFE3E0"/>
</g>
<mask id="mask8_131_3076" style="mask-type:alpha" maskUnits="userSpaceOnUse" x="0" y="0" width="278" height="278">
<path fill-rule="evenodd" clip-rule="evenodd" d="M139 0C62.2326 0 0 62.2318 0 139V139C0 215.768 62.2326 278 139 278V278C215.767 278 278 215.768 278 139V139" fill="white"/>
</mask>
<g mask="url(#mask8_131_3076)">
<path fill-rule="evenodd" clip-rule="evenodd" d="M123.216 194.257H96.0133C91.865 194.257 88.5024 190.894 88.5024 186.746V114.069C88.5024 109.922 91.865 106.559 96.0133 106.559H123.216C127.365 106.559 130.727 109.922 130.727 114.069V186.746C130.727 190.894 127.365 194.257 123.216 194.257" fill="#4CE5B1"/>
</g>
<mask id="mask9_131_3076" style="mask-type:alpha" maskUnits="userSpaceOnUse" x="0" y="0" width="278" height="278">
<path fill-rule="evenodd" clip-rule="evenodd" d="M139 0C62.2326 0 0 62.2318 0 139V139C0 215.768 62.2326 278 139 278V278C215.767 278 278 215.768 278 139V139" fill="white"/>
</mask>
<g mask="url(#mask9_131_3076)">
<path fill-rule="evenodd" clip-rule="evenodd" d="M121.119 133.603C121.119 139.957 115.968 145.107 109.614 145.107C103.261 145.107 98.1104 139.957 98.1104 133.603C98.1104 127.249 103.261 122.099 109.614 122.099C115.968 122.099 121.119 127.249 121.119 133.603" fill="white"/>
</g>
<mask id="mask10_131_3076" style="mask-type:alpha" maskUnits="userSpaceOnUse" x="0" y="0" width="278" height="278">
<path fill-rule="evenodd" clip-rule="evenodd" d="M139 0C62.2326 0 0 62.2318 0 139V139C0 215.768 62.2326 278 139 278V278C215.767 278 278 215.768 278 139V139" fill="white"/>
</mask>
<g mask="url(#mask10_131_3076)">
<path d="M105.052 128.955C106.236 127.817 107.843 127.117 109.614 127.117C111.387 127.117 112.994 127.817 114.178 128.955" stroke="#4CE5B1" stroke-width="1.718"/>
</g>
<mask id="mask11_131_3076" style="mask-type:alpha" maskUnits="userSpaceOnUse" x="0" y="0" width="278" height="278">
<path fill-rule="evenodd" clip-rule="evenodd" d="M139 0C62.2326 0 0 62.2318 0 139V139C0 215.768 62.2326 278 139 278V278C215.767 278 278 215.768 278 139V139" fill="white"/>
</mask>
<g mask="url(#mask11_131_3076)">
<path d="M114.67 137.93C113.462 139.375 111.646 140.295 109.615 140.295C107.584 140.295 105.767 139.375 104.559 137.93" stroke="#4CE5B1" stroke-width="1.718"/>
</g>
<mask id="mask12_131_3076" style="mask-type:alpha" maskUnits="userSpaceOnUse" x="0" y="0" width="278" height="278">
<path fill-rule="evenodd" clip-rule="evenodd" d="M139 0C62.2326 0 0 62.2318 0 139V139C0 215.768 62.2326 278 139 278V278C215.767 278 278 215.768 278 139V139" fill="white"/>
</mask>
<g mask="url(#mask12_131_3076)">
<path d="M103.167 132.347C103.074 132.785 103.025 133.24 103.025 133.705C103.025 135.314 103.602 136.786 104.558 137.93" stroke="#4CE5B1" stroke-width="1.718"/>
</g>
<mask id="mask13_131_3076" style="mask-type:alpha" maskUnits="userSpaceOnUse" x="0" y="0" width="278" height="278">
<path fill-rule="evenodd" clip-rule="evenodd" d="M139 0C62.2326 0 0 62.2318 0 139V139C0 215.768 62.2326 278 139 278V278C215.767 278 278 215.768 278 139V139" fill="white"/>
</mask>
<g mask="url(#mask13_131_3076)">
<path d="M114.67 137.93C115.627 136.786 116.204 135.314 116.204 133.706C116.204 133.24 116.154 132.786 116.063 132.347" stroke="#4CE5B1" stroke-width="1.718"/>
</g>
<mask id="mask14_131_3076" style="mask-type:alpha" maskUnits="userSpaceOnUse" x="0" y="0" width="278" height="278">
<path fill-rule="evenodd" clip-rule="evenodd" d="M139 0C62.2326 0 0 62.2318 0 139V139C0 215.768 62.2326 278 139 278V278C215.767 278 278 215.768 278 139V139" fill="white"/>
</mask>
<g mask="url(#mask14_131_3076)">
<path d="M105.051 128.955C104.115 129.855 103.444 131.028 103.167 132.347" stroke="#4CE5B1" stroke-width="1.718"/>
</g>
<mask id="mask15_131_3076" style="mask-type:alpha" maskUnits="userSpaceOnUse" x="0" y="0" width="278" height="278">
<path fill-rule="evenodd" clip-rule="evenodd" d="M139 0C62.2326 0 0 62.2318 0 139V139C0 215.768 62.2326 278 139 278V278C215.767 278 278 215.768 278 139V139" fill="white"/>
</mask>
<g mask="url(#mask15_131_3076)">
<path d="M114.178 128.955C115.115 129.855 115.786 131.028 116.063 132.347" stroke="#4CE5B1" stroke-width="1.718"/>
</g>
<mask id="mask16_131_3076" style="mask-type:alpha" maskUnits="userSpaceOnUse" x="0" y="0" width="278" height="278">
<path fill-rule="evenodd" clip-rule="evenodd" d="M139 0C62.2326 0 0 62.2318 0 139V139C0 215.768 62.2326 278 139 278V278C215.767 278 278 215.768 278 139V139" fill="white"/>
</mask>
<g mask="url(#mask16_131_3076)">
<path d="M109.765 135.248C109.715 135.247 109.665 135.244 109.615 135.244C109.564 135.244 109.514 135.247 109.464 135.248" stroke="#4CE5B1" stroke-width="1.718"/>
</g>
<mask id="mask17_131_3076" style="mask-type:alpha" maskUnits="userSpaceOnUse" x="0" y="0" width="278" height="278">
<path fill-rule="evenodd" clip-rule="evenodd" d="M139 0C62.2326 0 0 62.2318 0 139V139C0 215.768 62.2326 278 139 278V278C215.767 278 278 215.768 278 139V139" fill="white"/>
</mask>
<g mask="url(#mask17_131_3076)">
<path d="M114.67 137.93C113.718 136.367 111.884 135.296 109.765 135.247" stroke="#4CE5B1" stroke-width="1.718"/>
</g>
<mask id="mask18_131_3076" style="mask-type:alpha" maskUnits="userSpaceOnUse" x="0" y="0" width="278" height="278">
<path fill-rule="evenodd" clip-rule="evenodd" d="M139 0C62.2326 0 0 62.2318 0 139V139C0 215.768 62.2326 278 139 278V278C215.767 278 278 215.768 278 139V139" fill="white"/>
</mask>
<g mask="url(#mask18_131_3076)">
<path d="M109.464 135.248C107.346 135.297 105.511 136.367 104.559 137.93" stroke="#4CE5B1" stroke-width="1.718"/>
</g>
<mask id="mask19_131_3076" style="mask-type:alpha" maskUnits="userSpaceOnUse" x="0" y="0" width="278" height="278">
<path fill-rule="evenodd" clip-rule="evenodd" d="M139 0C62.2326 0 0 62.2318 0 139V139C0 215.768 62.2326 278 139 278V278C215.767 278 278 215.768 278 139V139" fill="white"/>
</mask>
<g mask="url(#mask19_131_3076)">
<path d="M109.765 135.248C112.871 135.209 115.446 133.978 116.063 132.347" stroke="#4CE5B1" stroke-width="1.718"/>
</g>
<mask id="mask20_131_3076" style="mask-type:alpha" maskUnits="userSpaceOnUse" x="0" y="0" width="278" height="278">
<path fill-rule="evenodd" clip-rule="evenodd" d="M139 0C62.2326 0 0 62.2318 0 139V139C0 215.768 62.2326 278 139 278V278C215.767 278 278 215.768 278 139V139" fill="white"/>
</mask>
<g mask="url(#mask20_131_3076)">
<path d="M109.765 135.248C109.715 135.248 109.665 135.249 109.615 135.249C109.564 135.249 109.514 135.248 109.464 135.248" stroke="#4CE5B1" stroke-width="1.718"/>
</g>
<mask id="mask21_131_3076" style="mask-type:alpha" maskUnits="userSpaceOnUse" x="0" y="0" width="278" height="278">
<path fill-rule="evenodd" clip-rule="evenodd" d="M139 0C62.2326 0 0 62.2318 0 139V139C0 215.768 62.2326 278 139 278V278C215.767 278 278 215.768 278 139V139" fill="white"/>
</mask>
<g mask="url(#mask21_131_3076)">
<path d="M109.464 135.248C106.359 135.209 103.784 133.978 103.167 132.347" stroke="#4CE5B1" stroke-width="1.718"/>
</g>
<mask id="mask22_131_3076" style="mask-type:alpha" maskUnits="userSpaceOnUse" x="0" y="0" width="278" height="278">
<path fill-rule="evenodd" clip-rule="evenodd" d="M139 0C62.2326 0 0 62.2318 0 139V139C0 215.768 62.2326 278 139 278V278C215.767 278 278 215.768 278 139V139" fill="white"/>
</mask>
<g mask="url(#mask22_131_3076)">
<path fill-rule="evenodd" clip-rule="evenodd" d="M116.394 109.86H102.836C101.138 109.86 99.762 108.485 99.762 106.787V105.422H119.467V106.787C119.467 108.485 118.091 109.86 116.394 109.86" fill="#535565"/>
</g>
<mask id="mask23_131_3076" style="mask-type:alpha" maskUnits="userSpaceOnUse" x="0" y="0" width="278" height="278">
<path fill-rule="evenodd" clip-rule="evenodd" d="M139 0C62.2326 0 0 62.2318 0 139V139C0 215.768 62.2326 278 139 278V278C215.767 278 278 215.768 278 139V139" fill="white"/>
</mask>
<g mask="url(#mask23_131_3076)">
<path fill-rule="evenodd" clip-rule="evenodd" d="M108.782 184.392C102.279 182.933 98.1999 176.479 99.6566 169.986C99.7208 169.7 99.9731 169.5 100.262 169.499L103.035 169.482C103.337 169.479 103.597 169.695 103.652 169.991L104.232 173.105C104.283 173.378 104.146 173.652 103.898 173.776L102.079 174.689C102.565 176.883 103.826 178.844 105.565 180.192L107.167 178.937C107.387 178.766 107.693 178.759 107.918 178.923L110.484 180.777C110.729 180.955 110.812 181.281 110.682 181.553L109.481 184.054C109.355 184.315 109.066 184.455 108.782 184.392" fill="white"/>
</g>
<mask id="mask24_131_3076" style="mask-type:alpha" maskUnits="userSpaceOnUse" x="0" y="0" width="278" height="278">
<path fill-rule="evenodd" clip-rule="evenodd" d="M139 0C62.2326 0 0 62.2318 0 139V139C0 215.768 62.2326 278 139 278V278C215.767 278 278 215.768 278 139V139" fill="white"/>
</mask>
<g mask="url(#mask24_131_3076)">
<path fill-rule="evenodd" clip-rule="evenodd" d="M110.855 174.626C110.855 175.273 110.33 175.798 109.683 175.798C109.036 175.798 108.511 175.273 108.511 174.626C108.511 173.979 109.036 173.454 109.683 173.454C110.33 173.454 110.855 173.979 110.855 174.626" fill="white"/>
</g>
<mask id="mask25_131_3076" style="mask-type:alpha" maskUnits="userSpaceOnUse" x="0" y="0" width="278" height="278">
<path fill-rule="evenodd" clip-rule="evenodd" d="M139 0C62.2326 0 0 62.2318 0 139V139C0 215.768 62.2326 278 139 278V278C215.767 278 278 215.768 278 139V139" fill="white"/>
</mask>
<g mask="url(#mask25_131_3076)">
<path fill-rule="evenodd" clip-rule="evenodd" d="M114.621 174.626C114.621 175.273 114.097 175.798 113.45 175.798C112.802 175.798 112.278 175.273 112.278 174.626C112.278 173.979 112.802 173.454 113.45 173.454C114.097 173.454 114.621 173.979 114.621 174.626" fill="white"/>
</g>
<mask id="mask26_131_3076" style="mask-type:alpha" maskUnits="userSpaceOnUse" x="0" y="0" width="278" height="278">
<path fill-rule="evenodd" clip-rule="evenodd" d="M139 0C62.2326 0 0 62.2318 0 139V139C0 215.768 62.2326 278 139 278V278C215.767 278 278 215.768 278 139V139" fill="white"/>
</mask>
<g mask="url(#mask26_131_3076)">
<path fill-rule="evenodd" clip-rule="evenodd" d="M118.388 174.626C118.388 175.273 117.863 175.798 117.216 175.798C116.569 175.798 116.044 175.273 116.044 174.626C116.044 173.979 116.569 173.454 117.216 173.454C117.863 173.454 118.388 173.979 118.388 174.626" fill="white"/>
</g>
<mask id="mask27_131_3076" style="mask-type:alpha" maskUnits="userSpaceOnUse" x="0" y="0" width="278" height="278">
<path fill-rule="evenodd" clip-rule="evenodd" d="M139 0C62.2326 0 0 62.2318 0 139V139C0 215.768 62.2326 278 139 278V278C215.767 278 278 215.768 278 139V139" fill="white"/>
</mask>
<g mask="url(#mask27_131_3076)">
<path fill-rule="evenodd" clip-rule="evenodd" d="M121.913 154.004H98.0905C97.5128 154.004 97.0452 153.536 97.0452 152.958C97.0452 152.381 97.5128 151.914 98.0905 151.914H121.913C122.489 151.914 122.957 152.381 122.957 152.958C122.957 153.536 122.489 154.004 121.913 154.004" fill="white"/>
</g>
<mask id="mask28_131_3076" style="mask-type:alpha" maskUnits="userSpaceOnUse" x="0" y="0" width="278" height="278">
<path fill-rule="evenodd" clip-rule="evenodd" d="M139 0C62.2326 0 0 62.2318 0 139V139C0 215.768 62.2326 278 139 278V278C215.767 278 278 215.768 278 139V139" fill="white"/>
</mask>
<g mask="url(#mask28_131_3076)">
<path fill-rule="evenodd" clip-rule="evenodd" d="M116.757 158.85H103.246C102.669 158.85 102.201 158.383 102.201 157.805C102.201 157.228 102.669 156.76 103.246 156.76H116.757C117.334 156.76 117.802 157.228 117.802 157.805C117.802 158.383 117.334 158.85 116.757 158.85" fill="white"/>
</g>
<mask id="mask29_131_3076" style="mask-type:alpha" maskUnits="userSpaceOnUse" x="0" y="0" width="278" height="278">
<path fill-rule="evenodd" clip-rule="evenodd" d="M139 0C62.2326 0 0 62.2318 0 139V139C0 215.768 62.2326 278 139 278V278C215.767 278 278 215.768 278 139V139C278 62.2318 215.767 0 139 0Z" fill="white"/>
</mask>
<g mask="url(#mask29_131_3076)">
<path fill-rule="evenodd" clip-rule="evenodd" d="M84.7152 173.222C100.503 176.194 101.296 187.758 100.366 206.865C85.3741 204.949 82.5105 187.183 82.5105 187.183L84.7152 173.222Z" fill="#EAC897"/>
</g>
<mask id="mask30_131_3076" style="mask-type:alpha" maskUnits="userSpaceOnUse" x="0" y="0" width="278" height="278">
<path fill-rule="evenodd" clip-rule="evenodd" d="M139 0C62.2326 0 0 62.2318 0 139V139C0 215.768 62.2326 278 139 278V278C215.767 278 278 215.768 278 139V139" fill="white"/>
</mask>
<g mask="url(#mask30_131_3076)">
<path fill-rule="evenodd" clip-rule="evenodd" d="M75.2458 169.961C78.8285 152.509 92.3605 141.287 92.3605 141.287C92.3605 141.287 103.107 151.585 86.218 166.013C86.218 172.223 86.3409 173.871 86.3409 173.871" fill="#EAC897"/>
</g>
<mask id="mask31_131_3076" style="mask-type:alpha" maskUnits="userSpaceOnUse" x="0" y="0" width="278" height="278">
<path fill-rule="evenodd" clip-rule="evenodd" d="M139 0C62.2326 0 0 62.2318 0 139V139C0 215.768 62.2326 278 139 278V278C215.767 278 278 215.768 278 139V139" fill="white"/>
</mask>
<g mask="url(#mask31_131_3076)">
<path fill-rule="evenodd" clip-rule="evenodd" d="M134.016 159.948H128.941C126.306 159.948 124.171 157.813 124.171 155.178C124.171 152.543 126.306 150.408 128.941 150.408H134.016C136.651 150.408 138.787 152.543 138.787 155.178C138.787 157.813 136.651 159.948 134.016 159.948" fill="#EAC897"/>
</g>
<mask id="mask32_131_3076" style="mask-type:alpha" maskUnits="userSpaceOnUse" x="0" y="0" width="278" height="278">
<path fill-rule="evenodd" clip-rule="evenodd" d="M139 0C62.2326 0 0 62.2318 0 139V139C0 215.768 62.2326 278 139 278V278C215.767 278 278 215.768 278 139V139" fill="white"/>
</mask>
<g mask="url(#mask32_131_3076)">
<path fill-rule="evenodd" clip-rule="evenodd" d="M132.103 170.783H128.549C126.131 170.783 124.17 168.823 124.17 166.406V165.62C124.17 163.202 126.131 161.243 128.549 161.243H132.103C134.521 161.243 136.481 163.202 136.481 165.62V166.406C136.481 168.823 134.521 170.783 132.103 170.783" fill="#EAC897"/>
</g>
<mask id="mask33_131_3076" style="mask-type:alpha" maskUnits="userSpaceOnUse" x="0" y="0" width="278" height="278">
<path fill-rule="evenodd" clip-rule="evenodd" d="M139 0C62.2326 0 0 62.2318 0 139V139C0 215.768 62.2326 278 139 278V278C215.767 278 278 215.768 278 139V139" fill="white"/>
</mask>
<g mask="url(#mask33_131_3076)">
<path fill-rule="evenodd" clip-rule="evenodd" d="M133.262 182.294H132.56C129.926 182.294 127.79 180.16 127.79 177.524C127.79 174.89 129.926 172.755 132.56 172.755H133.262C135.897 172.755 138.032 174.89 138.032 177.524C138.032 180.16 135.897 182.294 133.262 182.294" fill="#EAC897"/>
</g>
<mask id="mask34_131_3076" style="mask-type:alpha" maskUnits="userSpaceOnUse" x="0" y="0" width="278" height="278">
<path fill-rule="evenodd" clip-rule="evenodd" d="M139 0C62.2326 0 0 62.2318 0 139V139C0 215.768 62.2326 278 139 278V278C215.767 278 278 215.768 278 139V139" fill="white"/>
</mask>
<g mask="url(#mask34_131_3076)">
<path fill-rule="evenodd" clip-rule="evenodd" d="M130.203 158.718C130.25 158.719 130.297 158.719 130.343 158.719C130.919 158.71 131.173 158.017 130.778 157.597C130.184 156.964 129.818 156.115 129.818 155.178C129.818 154.241 130.184 153.391 130.778 152.759C131.169 152.343 130.926 151.648 130.355 151.637C130.334 151.637 130.313 151.637 130.291 151.637C128.334 151.637 126.747 153.225 126.75 155.184C126.753 157.067 128.32 158.671 130.203 158.718" fill="#ECDBD0"/>
</g>
<mask id="mask35_131_3076" style="mask-type:alpha" maskUnits="userSpaceOnUse" x="0" y="0" width="278" height="278">
<path fill-rule="evenodd" clip-rule="evenodd" d="M139 0C62.2326 0 0 62.2318 0 139V139C0 215.768 62.2326 278 139 278V278C215.767 278 278 215.768 278 139V139" fill="white"/>
</mask>
<g mask="url(#mask35_131_3076)">
<path fill-rule="evenodd" clip-rule="evenodd" d="M129.783 169.561C129.997 169.569 130.206 169.556 130.409 169.525C130.81 169.466 130.951 168.979 130.645 168.714C129.891 168.061 129.417 167.095 129.424 166.019C129.432 164.943 129.92 163.985 130.682 163.343C130.989 163.083 130.862 162.593 130.466 162.528C130.289 162.498 130.107 162.482 129.922 162.48C127.964 162.468 126.367 164.045 126.356 166.002C126.345 167.886 127.901 169.501 129.783 169.561" fill="#ECDBD0"/>
</g>
<mask id="mask36_131_3076" style="mask-type:alpha" maskUnits="userSpaceOnUse" x="0" y="0" width="278" height="278">
<path fill-rule="evenodd" clip-rule="evenodd" d="M139 0C62.2326 0 0 62.2318 0 139V139C0 215.768 62.2326 278 139 278V278C215.767 278 278 215.768 278 139V139" fill="white"/>
</mask>
<g mask="url(#mask36_131_3076)">
<path fill-rule="evenodd" clip-rule="evenodd" d="M131.857 180.333C132.365 180.457 132.856 180.438 133.303 180.314C133.477 180.265 133.507 180.036 133.362 179.932C132.624 179.405 132.149 178.536 132.168 177.561C132.19 176.431 133.811 175.557 133.832 175.028C133.848 174.614 133.045 174.709 132.603 174.721C130.954 174.761 129.605 176.057 129.704 177.743C129.776 178.969 130.665 180.042 131.857 180.333" fill="#ECDBD0"/>
</g>
<mask id="mask37_131_3076" style="mask-type:alpha" maskUnits="userSpaceOnUse" x="0" y="0" width="278" height="278">
<path fill-rule="evenodd" clip-rule="evenodd" d="M139 0C62.2326 0 0 62.2318 0 139V139C0 215.768 62.2326 278 139 278V278C215.767 278 278 215.768 278 139V139C278 62.2318 215.767 0 139 0Z" fill="white"/>
</mask>
<g mask="url(#mask37_131_3076)">
<path fill-rule="evenodd" clip-rule="evenodd" d="M90.6448 240.324L60.7654 216.959L65.1451 211.357L95.0245 234.722L90.6448 240.324Z" fill="#ECECEC"/>
</g>
<mask id="mask38_131_3076" style="mask-type:alpha" maskUnits="userSpaceOnUse" x="0" y="0" width="278" height="278">
<path fill-rule="evenodd" clip-rule="evenodd" d="M139 0C62.2326 0 0 62.2318 0 139V139C0 215.768 62.2326 278 139 278V278C215.767 278 278 215.768 278 139V139C278 62.2318 215.767 0 139 0Z" fill="white"/>
</mask>
<g mask="url(#mask38_131_3076)">
<path fill-rule="evenodd" clip-rule="evenodd" d="M75.5945 266.631L38.8616 237.907L57.3381 214.279L94.0711 243.004L75.5945 266.631Z" fill="#535565"/>
</g>
<mask id="mask39_131_3076" style="mask-type:alpha" maskUnits="userSpaceOnUse" x="0" y="0" width="278" height="278">
<path fill-rule="evenodd" clip-rule="evenodd" d="M139 0C62.2326 0 0 62.2318 0 139V139C0 215.768 62.2326 278 139 278V278C215.767 278 278 215.768 278 139V139C278 62.2318 215.767 0 139 0Z" fill="white"/>
</mask>
<g mask="url(#mask39_131_3076)">
<path fill-rule="evenodd" clip-rule="evenodd" d="M70.4569 224.537L60.1042 216.441L64.484 210.84L74.8366 218.936L70.4569 224.537Z" fill="#CFCFCF"/>
</g>
<mask id="mask40_131_3076" style="mask-type:alpha" maskUnits="userSpaceOnUse" x="0" y="0" width="278" height="278">
<path fill-rule="evenodd" clip-rule="evenodd" d="M139 0C62.2326 0 0 62.2318 0 139V139C0 215.768 62.2326 278 139 278V278C215.767 278 278 215.768 278 139V139C278 62.2318 215.767 0 139 0Z" fill="white"/>
</mask>
<g mask="url(#mask40_131_3076)">
<path fill-rule="evenodd" clip-rule="evenodd" d="M50.1098 246.904L38.8459 238.096L57.3225 214.468L68.5871 223.276L50.1098 246.904Z" fill="#38414A"/>
</g>
<mask id="mask41_131_3076" style="mask-type:alpha" maskUnits="userSpaceOnUse" x="0" y="0" width="278" height="278">
<path fill-rule="evenodd" clip-rule="evenodd" d="M139 0C62.2326 0 0 62.2318 0 139V139C0 215.768 62.2326 278 139 278V278C215.767 278 278 215.768 278 139V139" fill="white"/>
</mask>
<g mask="url(#mask41_131_3076)">
<path fill-rule="evenodd" clip-rule="evenodd" d="M90.5134 142.993C90.5134 142.993 91.8174 145.16 91.8174 145.858C91.8174 146.557 87.175 151.824 85.7954 152.289C85.2531 152.473 82.5317 152.761 82.5317 152.761C82.5317 152.761 86.5997 146.386 90.5134 142.993" fill="#ECDBD0"/>
</g>
</svg>
